<svg width="48" height="48" viewBox="0 0 48 48" fill="none" xmlns="http://www.w3.org/2000/svg">
<g clip-path="url(#clip0_767_2545)">
<path d="M24 0C10.7452 0 0 10.7452 0 24C0 37.2548 10.7452 48 24 48C37.2548 48 48 37.2548 48 24C48 10.7452 37.2548 0 24 0ZM22.1538 11.0769C22.1538 10.0573 22.9805 9.23076 24 9.23076C25.0195 9.23076 25.8462 10.0573 25.8462 11.0769V29.5385C25.8462 30.558 25.0195 31.3846 24 31.3846C22.9805 31.3846 22.1538 30.558 22.1538 29.5385V11.0769ZM24 38.9168C22.8989 38.9168 22.006 38.0242 22.006 36.9231C22.006 35.8218 22.8989 34.9292 24 34.9292C25.1011 34.9292 25.994 35.8218 25.994 36.9231C25.994 38.0242 25.1011 38.9168 24 38.9168Z" fill="url(#paint0_linear_767_2545)"/>
</g>
<defs>
<linearGradient id="paint0_linear_767_2545" x1="-5.69302" y1="75.9469" x2="74.5302" y2="66.9306" gradientUnits="userSpaceOnUse">
<stop stop-color="#CC6B7F"/>
<stop offset="1" stop-color="#93B9FF"/>
</linearGradient>
<clipPath id="clip0_767_2545">
<rect width="48" height="48" fill="white"/>
</clipPath>
</defs>
</svg>
