<svg width="255" height="78" viewBox="0 0 255 78" fill="none" xmlns="http://www.w3.org/2000/svg">
<path d="M7.73224 76.3186L7.05116 70.512L23.5388 50.7157C24.9239 49.0647 25.9295 47.6386 26.5554 46.4375C27.1813 45.2365 27.5508 44.1557 27.6636 43.1952C27.8158 42.185 27.8423 41.2572 27.7431 40.4118C27.4926 38.276 26.5653 36.7158 24.9613 35.7312C23.3521 34.702 21.1236 34.3545 18.2759 34.6885C16.0067 34.9546 13.9846 35.5978 12.2098 36.6179C10.4794 37.6328 9.04338 39.0417 7.90164 40.8445L1.28008 36.885C2.81733 34.2238 5.04275 32.0457 7.95633 30.3507C10.9092 28.606 14.2989 27.5093 18.1255 27.0605C21.5071 26.6638 24.509 26.8755 27.1312 27.6957C29.7927 28.4661 31.9082 29.7741 33.4779 31.6198C35.0921 33.4603 36.061 35.7599 36.3846 38.5186C36.5621 40.0314 36.5393 41.5677 36.3163 43.1275C36.088 44.6428 35.5143 46.2889 34.595 48.0657C33.6757 49.8424 32.2683 51.8795 30.3726 54.1768L16.1982 71.1983L14.0126 68.1393L41.3102 64.9374L42.1713 72.2791L7.73224 76.3186ZM66.7462 70.0732C63.0531 70.5064 59.6064 69.9635 56.406 68.4443C53.2502 66.92 50.6181 64.4772 48.5097 61.1159C46.3962 57.7101 45.0393 53.4488 44.4392 48.3319C43.839 43.215 44.1755 38.7775 45.4488 35.0196C46.7169 31.2172 48.7097 28.2094 51.4271 25.9961C54.1891 23.7777 57.4166 22.4519 61.1097 22.0187C64.8473 21.5803 68.294 22.1233 71.4499 23.6476C74.6057 25.1719 77.2404 27.637 79.354 31.0428C81.5068 34.3988 82.8833 38.6353 83.4835 43.7522C84.0837 48.8691 83.7275 53.3314 82.4149 57.1391C81.1416 60.897 79.1462 63.8826 76.4288 66.0958C73.7113 68.309 70.4838 69.6349 66.7462 70.0732ZM65.8616 62.5313C68.0418 62.2756 69.865 61.4754 71.3312 60.1306C72.7921 58.7414 73.8239 56.771 74.4268 54.2193C75.0741 51.6625 75.1786 48.5153 74.7402 44.7777C74.2966 40.9957 73.4667 37.9581 72.2505 35.6649C71.0735 33.3221 69.6163 31.6662 67.8788 30.6972C66.1361 29.6837 64.1746 29.3048 61.9943 29.5606C59.9031 29.8059 58.1047 30.6257 56.5993 32.0202C55.1332 33.365 54.0765 35.3158 53.4291 37.8726C52.821 40.3797 52.7388 43.5243 53.1824 47.3063C53.6208 51.0439 54.4285 54.0841 55.6054 56.427C56.8269 58.7646 58.3089 60.4402 60.0517 61.4536C61.8337 62.4174 63.7703 62.7766 65.8616 62.5313ZM87.2949 50.9508L86.6529 45.4779L120.024 41.5637L120.666 47.0366L87.2949 50.9508ZM140.22 61.4553C136.927 61.8415 133.646 61.7526 130.378 61.1888C127.148 60.5752 124.366 59.5483 122.032 58.108L124.979 50.9286C126.832 52.1096 129.009 52.9819 131.511 53.5455C134.013 54.1091 136.576 54.2369 139.202 53.929C142.316 53.5637 144.668 52.6563 146.257 51.2069C147.841 49.713 148.505 47.876 148.25 45.6957C147.999 43.5599 147 41.9631 145.252 40.9051C143.504 39.8471 140.85 39.5269 137.291 39.9444L133.019 40.4454L132.322 34.5054L143.808 17.055L145.326 20.1923L120.231 23.1358L119.377 15.8608L151.214 12.1267L151.895 17.9332L140.409 35.3836L135.558 33.2463L138.161 32.941C143.901 32.2677 148.346 33.0544 151.496 35.3011C154.686 37.4981 156.515 40.5989 156.985 44.6034C157.293 47.2286 156.91 49.7319 155.836 52.1132C154.762 54.4945 152.927 56.5367 150.33 58.2396C147.772 59.8928 144.402 60.9647 140.22 61.4553ZM179.215 56.8813C175.922 57.2676 172.642 57.1787 169.373 56.6149C166.144 56.0013 163.362 54.9744 161.028 53.5341L163.908 46.3625C165.76 47.5436 167.938 48.4159 170.44 48.9794C172.986 49.5378 175.572 49.663 178.197 49.3551C181.267 48.995 183.594 48.068 185.178 46.5741C186.807 45.075 187.493 43.2353 187.237 41.0551C187.065 39.5867 186.535 38.3407 185.649 37.3171C184.806 36.2882 183.417 35.5941 181.48 35.2349C179.588 34.8705 177.04 34.8761 173.836 35.2519L162.557 36.5749L161.977 10.8642L189.408 7.64668L190.261 14.9216L166.034 17.7633L170.087 13.093L170.516 32.3259L165.5 28.787L174.911 27.6832C179.538 27.1404 183.327 27.3276 186.276 28.2446C189.264 29.112 191.532 30.5601 193.078 32.589C194.663 34.5682 195.618 36.9371 195.941 39.6958C196.26 42.41 195.885 44.98 194.816 47.4058C193.747 49.8316 191.914 51.896 189.317 53.5989C186.765 55.2966 183.398 56.3908 179.215 56.8813ZM208.518 52.7677L234.941 2.30595L241.482 1.53876L215.059 52.0005L208.518 52.7677ZM209.861 30.7558C207.68 31.0115 205.682 30.7046 203.866 29.8351C202.05 28.9655 200.563 27.6289 199.404 25.8252C198.245 24.0215 197.514 21.8293 197.211 19.2486C196.909 16.6679 197.112 14.3661 197.822 12.3432C198.532 10.3204 199.67 8.67581 201.236 7.40961C202.801 6.14341 204.674 5.38245 206.854 5.12672C209.124 4.86055 211.144 5.16485 212.916 6.03963C214.732 6.90919 216.219 8.24581 217.378 10.0495C218.537 11.8532 219.267 14.0454 219.57 16.6261C219.873 19.2068 219.669 21.5086 218.959 23.5315C218.249 25.5544 217.112 27.1989 215.546 28.4651C214.025 29.7261 212.13 30.4897 209.861 30.7558ZM209.379 26.076C211.159 25.8673 212.458 25.0158 213.275 23.5216C214.131 21.9778 214.405 19.8932 214.097 17.268C213.789 14.6428 213.043 12.7006 211.858 11.4413C210.712 10.1322 209.249 9.5821 207.469 9.79086C205.689 9.99962 204.349 10.8785 203.448 12.4276C202.592 13.9715 202.315 16.0338 202.618 18.6145C202.92 21.1952 203.667 23.1375 204.857 24.4413C206.092 25.7399 207.599 26.2848 209.379 26.076ZM243.079 49.1876C240.898 49.4433 238.9 49.1364 237.084 48.2668C235.268 47.3973 233.781 46.0606 232.622 44.257C231.463 42.4533 230.732 40.2611 230.43 37.6804C230.127 35.0997 230.331 32.7979 231.041 30.775C231.751 28.7521 232.888 27.1076 234.454 25.8414C236.019 24.5752 237.892 23.8142 240.073 23.5585C242.342 23.2923 244.362 23.5966 246.134 24.4714C247.95 25.3409 249.437 26.6775 250.596 28.4812C251.755 30.2849 252.486 32.4771 252.788 35.0578C253.091 37.6385 252.887 39.9403 252.177 41.9632C251.467 43.9861 250.33 45.6306 248.764 46.8968C247.243 48.1578 245.348 48.9214 243.079 49.1876ZM242.531 44.5156C244.311 44.3068 245.629 43.4305 246.485 41.8866C247.341 40.3428 247.618 38.2805 247.315 35.6998C247.013 33.1191 246.266 31.1768 245.076 29.873C243.885 28.5692 242.4 28.0217 240.621 28.2304C238.885 28.434 237.567 29.3103 236.666 30.8594C235.805 32.3588 235.528 34.4211 235.836 37.0463C236.144 39.6715 236.893 41.636 238.083 42.9398C239.313 44.1939 240.795 44.7191 242.531 44.5156Z" fill="url(#paint0_linear_584_2420)"/>
<defs>
<linearGradient id="paint0_linear_584_2420" x1="249.5" y1="50.6602" x2="16.3968" y2="75.6761" gradientUnits="userSpaceOnUse">
<stop stop-color="#CC6B7F"/>
<stop offset="1" stop-color="#2670F9"/>
</linearGradient>
</defs>
</svg>
