<svg width="248" height="152" viewBox="0 0 248 152" fill="none" xmlns="http://www.w3.org/2000/svg">
<path d="M235.238 0.5C237.538 0.5 239.402 2.36465 239.402 4.66482V56.5143C239.402 60.2226 234.921 62.0818 232.296 59.4624L226.543 53.7216C224.917 52.0993 222.285 52.0993 220.659 53.7216L123.675 150.5H54.5L186.063 19.2244C187.694 17.5973 187.694 14.9553 186.063 13.3281L180.336 7.61292C177.708 4.99051 179.565 0.5 183.278 0.5H235.238Z" fill="url(#paint0_linear_584_2462)" fill-opacity="0.6"/>
<path d="M145.521 41.8544C147.81 42.0782 149.485 44.1154 149.261 46.4047L144.714 92.9138C144.353 96.604 139.713 98.0186 137.355 95.1574L133.638 90.6475C132.045 88.7149 129.12 88.6149 127.399 90.4343L69.8748 151.249L0.124992 151.249L99.2346 54.8855C100.789 53.3743 100.924 50.9236 99.5452 49.2507L95.2935 44.0918C92.9319 41.2264 95.2171 36.9367 98.9127 37.2979L145.521 41.8544Z" fill="url(#paint1_linear_584_2462)"/>
<defs>
<linearGradient id="paint0_linear_584_2462" x1="54.5" y1="75.5" x2="239.402" y2="75.5" gradientUnits="userSpaceOnUse">
<stop stop-color="#084BC9"/>
<stop offset="0.485" stop-color="#7DAAFF"/>
<stop offset="1" stop-color="#084BC9"/>
</linearGradient>
<linearGradient id="paint1_linear_584_2462" x1="-23.1607" y1="220.942" x2="208.844" y2="214.405" gradientUnits="userSpaceOnUse">
<stop stop-color="#CC6B7F"/>
<stop offset="1" stop-color="#93B9FF"/>
</linearGradient>
</defs>
</svg>
