<svg width="200" height="324" viewBox="0 0 200 324" fill="none" xmlns="http://www.w3.org/2000/svg">
<path d="M198.038 280.613C197.23 280.089 196.993 279.631 197.395 278.787C199.5 274.365 202.486 270.581 205.498 266.819C211.682 259.095 218.181 251.615 223.001 242.855C229.86 230.393 233.21 216.714 230.265 201.425C224.356 170.744 205.78 147.418 178.099 130.018C162.709 120.344 146.025 115.859 128.988 113.408C114.554 111.333 100.196 110.866 85.7716 108.918C71.564 106.999 57.5763 103.897 44.7538 95.2614C39.9418 92.0204 35.7322 88.2086 32.9186 83.1362C31.7315 80.9964 31.8763 79.1905 33.3196 77.579C35.4965 75.1483 38.3211 73.5601 41.3002 72.176C50.4898 67.9071 60.5264 65.3702 70.3406 62.3897C92.9487 55.5238 114.483 46.8954 132.909 33.1239C142.93 25.6346 151.599 16.9109 157.854 6.03938C160.015 2.28323 158.935 -2.48201 155.616 -5.26888L139.185 -19.0682C137.103 -20.8167 133.982 -19.7086 132.935 -17.1994C128.142 -5.7102 119.575 2.53902 109.659 9.59727C95.2982 19.8183 78.7979 26.502 61.5637 31.9716C48.8549 36.005 35.6986 39.1317 23.8087 44.838C16.1392 48.519 9.35134 53.236 5.11571 60.5832C-1.92631 72.7981 -0.000237678 85.7356 8.8289 98.764C18.7954 113.471 32.9363 122.87 48.9486 129.534C64.2 135.88 79.8041 138.401 95.4782 139.996C108.934 141.365 122.358 141.973 135.862 144.489C159.265 148.85 178.294 160.424 191.53 181.429C199.545 194.147 202.705 206.996 197.757 219.849C195.107 226.733 190.824 232.511 186.326 238.148C179.903 246.197 172.955 253.853 168.542 263.397C161.058 279.587 169.498 309.498 190.927 317.106C206.929 322.787 222.677 324.207 238.381 322.694C243.112 322.238 247.797 321.601 252.499 321.028L271.646 298.23C271.437 298.176 271.228 298.128 271.02 298.097C260.241 296.513 249.709 296.935 237.842 286.463C227.399 286.661 216.936 286.597 206.294 283.865C203.452 283.135 200.628 282.293 198.038 280.613Z" fill="url(#paint0_linear_637_18804)"/>
<defs>
<linearGradient id="paint0_linear_637_18804" x1="490.258" y1="103.838" x2="-25.7662" y2="-193.51" gradientUnits="userSpaceOnUse">
<stop stop-color="#CC6B7F"/>
<stop offset="1" stop-color="#93B9FF"/>
</linearGradient>
</defs>
</svg>
