<svg width="51" height="50" viewBox="0 0 51 50" fill="none" xmlns="http://www.w3.org/2000/svg">
  <path d="M49.6744 20.7935C49.9627 20.4486 50.1587 20.0363 50.2441 19.595C50.3294 19.1537 50.3013 18.698 50.1624 18.2706C50.0234 17.8431 49.7782 17.458 49.4497 17.1512C49.1213 16.8444 48.7203 16.6261 48.2843 16.5167L35.1923 13.2891C34.9469 13.2293 34.7353 13.0747 34.6039 12.8591L27.5305 1.26871C27.299 0.881847 26.9712 0.561607 26.579 0.339246C26.1868 0.116885 25.7437 0 25.2929 0C24.8421 0 24.399 0.116885 24.0068 0.339246C23.6146 0.561607 23.2868 0.881847 23.0553 1.26871L15.9818 12.8565C15.9157 12.9649 15.8288 13.0592 15.7261 13.1338C15.6234 13.2085 15.507 13.2621 15.3835 13.2915L2.30146 16.5158C1.8652 16.625 1.46386 16.8433 1.13508 17.1502C0.806305 17.457 0.560882 17.8424 0.421846 18.2701C0.282811 18.6977 0.25472 19.1537 0.340212 19.5953C0.425703 20.0368 0.621973 20.4494 0.910601 20.7942L9.63418 31.1945C9.79823 31.3899 9.87931 31.6418 9.86006 31.8962L8.84333 45.48C8.80772 45.9333 8.88981 46.3882 9.08167 46.8005C9.27352 47.2128 9.56862 47.5686 9.93838 47.8333C10.2993 48.0959 10.722 48.2608 11.1654 48.3121C11.6088 48.3633 12.058 48.2992 12.4693 48.1258L13.636 47.64C13.7102 48.9616 14.8016 49.9964 16.1253 50H34.4591C35.7809 49.9946 36.8701 48.9613 36.945 47.6416L38.1117 48.1266C38.5232 48.3006 38.9727 48.3653 39.4166 48.3143C39.8605 48.2633 40.2837 48.0985 40.6451 47.8358C41.0152 47.5708 41.3105 47.2146 41.5024 46.8018C41.6943 46.389 41.7762 45.9336 41.7401 45.4799L40.7234 31.8962C40.704 31.6371 40.7876 31.3807 40.9559 31.1828L49.6744 20.7935ZM35.2924 47.4999C35.2924 47.7209 35.2046 47.9329 35.0483 48.0892C34.892 48.2455 34.6801 48.3333 34.4591 48.3333H16.1252C15.9042 48.3333 15.6922 48.2455 15.5359 48.0892C15.3796 47.9329 15.2918 47.7209 15.2918 47.4999V39.1664C15.2911 37.4082 15.9872 35.7214 17.2277 34.4755C18.3528 37.9564 20.6378 43.0766 24.8504 45.7074C24.9831 45.7896 25.136 45.8332 25.2921 45.8332C25.4481 45.8332 25.6011 45.7896 25.7337 45.7074C29.9463 43.0765 32.2339 37.9572 33.3564 34.4755C34.5969 35.7214 35.2931 37.4082 35.2923 39.1664L35.2924 47.4999ZM27.2646 32.4995L25.9879 34.9996H24.5962L23.3195 32.4995H27.2646ZM24.7137 36.6663H25.8704L27.4088 42.1007C26.7788 42.8133 26.0685 43.4506 25.292 43.9998C24.5154 43.45 23.8051 42.8121 23.1753 42.0989L24.7137 36.6663ZM28.6805 40.4714L27.3904 35.9163L29.1254 32.5245C30.1214 32.598 31.0878 32.8961 31.9522 33.3962C31.2204 35.9045 30.1177 38.2893 28.6805 40.4714ZM25.2921 30.8329C22.0704 30.8329 19.4587 28.2212 19.4587 24.9994C19.4587 21.7777 22.0704 19.166 25.2921 19.166C28.5138 19.166 31.1256 21.7778 31.1256 24.9994C31.1219 28.2196 28.5123 30.8292 25.2921 30.8329ZM21.4586 32.5245L23.1936 35.9163L21.9035 40.4706C20.4673 38.2884 19.3653 35.9036 18.6343 33.3955C19.498 32.8959 20.4636 32.5982 21.4586 32.5245ZM39.6841 30.1079C39.2325 30.6401 39.008 31.3285 39.0591 32.0246L40.0766 45.6083C40.0913 45.7776 40.0615 45.9477 39.9902 46.102C39.9188 46.2562 39.8084 46.3891 39.6699 46.4875C39.5397 46.5838 39.3865 46.6441 39.2256 46.6626C39.0647 46.681 38.9018 46.6568 38.7532 46.5925L36.959 45.8433V39.1665C36.9517 35.0453 33.9351 31.5475 29.8597 30.9346C32.4079 28.978 33.4271 25.6158 32.3939 22.5738C31.3607 19.5317 28.5048 17.4855 25.292 17.4855C22.0792 17.4855 19.2234 19.5317 18.1902 22.5738C17.157 25.6158 18.1761 28.978 20.7243 30.9346C16.6489 31.5475 13.6322 35.0453 13.625 39.1665V45.8433L11.8275 46.5934C11.6787 46.657 11.5158 46.6807 11.3549 46.662C11.1941 46.6433 11.041 46.5829 10.9108 46.4867C10.7723 46.3883 10.6619 46.2554 10.5905 46.1012C10.5192 45.947 10.4894 45.7768 10.5041 45.6075L11.5216 32.0238C11.5717 31.3335 11.3497 30.651 10.9033 30.1221L2.18798 19.7244C2.07846 19.5956 2.00441 19.4404 1.97314 19.2743C1.94186 19.1081 1.95445 18.9367 2.00965 18.7769C2.05863 18.6193 2.14789 18.4772 2.26863 18.3646C2.38936 18.2521 2.53738 18.173 2.69805 18.1352L15.7751 14.916C16.453 14.7512 17.0381 14.3249 17.4026 13.7301L24.4804 2.13231C24.5675 1.99569 24.6877 1.88324 24.8297 1.80534C24.9718 1.72744 25.1313 1.68661 25.2933 1.68661C25.4553 1.68661 25.6147 1.72744 25.7568 1.80534C25.8989 1.88324 26.0191 1.99569 26.1062 2.13231L33.1823 13.7276C33.5453 14.3192 34.1272 14.7436 34.8015 14.9085L47.8851 18.1345C48.0455 18.1723 48.1932 18.2512 48.3136 18.3636C48.434 18.4761 48.523 18.618 48.5717 18.7753C48.6269 18.935 48.6395 19.1062 48.6084 19.2722C48.5773 19.4382 48.5034 19.5932 48.3942 19.722L39.6841 30.1079Z" fill="url(#paint0_linear_2002_2201)" />
  <defs>
    <linearGradient id="paint0_linear_2002_2201" x1="-3.70715" y1="17.803" x2="31.4326" y2="18.6207" gradientUnits="userSpaceOnUse">
      <stop stop-color="#DA0202" />
      <stop offset="1" stop-color="#074BC9" />
    </linearGradient>
  </defs>
</svg>
