<svg width="71" height="71" viewBox="0 0 71 71" fill="none" xmlns="http://www.w3.org/2000/svg">
<path d="M47.4489 45.6659C46.8902 45.6659 46.4371 46.1218 46.4371 46.6806C46.4371 47.2395 46.8902 47.6925 47.4489 47.6925C48.0076 47.6925 48.4607 47.2394 48.4607 46.6806V46.6749C48.4607 46.1161 48.0077 45.6659 47.4489 45.6659ZM51.9671 45.6659C51.4084 45.6659 50.9553 46.1218 50.9553 46.6806C50.9553 47.2395 51.4084 47.6925 51.9671 47.6925C52.5259 47.6925 52.979 47.2394 52.979 46.6806V46.6749C52.979 46.1161 52.5259 45.6659 51.9671 45.6659ZM56.4882 45.6659C55.9295 45.6659 55.4764 46.1218 55.4764 46.6806C55.4764 47.2395 55.9295 47.6925 56.4882 47.6925C57.0469 47.6925 57.5 47.2394 57.5 46.6806V46.6749C57.5 46.1161 57.047 45.6659 56.4882 45.6659ZM35.3496 29.3559C35.3496 30.3697 36.1744 31.1946 37.1881 31.1946H40.001C40.6163 31.1946 41.1606 30.8896 41.4946 30.4242C42.309 30.7524 43.2607 30.9212 44.061 30.9212H47.5998C50.1802 30.9212 52.2796 28.823 52.2796 26.244V23.6732C52.2796 21.8179 50.769 20.3086 48.9122 20.3086H47.9749V18.1498C47.9749 16.7577 46.8423 15.625 45.4503 15.625C43.819 15.625 43.2162 17.1982 42.9886 17.7919L42.1142 20.0849C41.9863 20.4213 41.8677 20.6138 41.7232 20.7252C41.463 20.0243 40.7903 19.5227 40.001 19.5227H37.1881C36.1744 19.5227 35.3496 20.3487 35.3496 21.3642V29.3559ZM41.8396 22.8186C42.5904 22.6735 43.4519 22.2194 43.9915 20.7996L44.8649 18.5093C45.2004 17.6339 45.3754 17.6339 45.4502 17.6339C45.587 17.6341 45.7181 17.6885 45.8148 17.7852C45.9115 17.882 45.966 18.0131 45.9661 18.1499V21.3131C45.9661 21.8677 46.4159 22.3175 46.9705 22.3175H48.9122C49.6614 22.3175 50.2708 22.9257 50.2708 23.6733V26.2441C50.2708 27.7154 49.0725 28.9125 47.5997 28.9125H44.0609C43.1638 28.9125 42.2855 28.6321 41.8396 28.3663V22.8186ZM37.3584 21.5315H39.8308V29.1859H37.3584V21.5315Z" fill="url(#paint0_linear_704_2311)"/>
<path d="M59.3147 40.9218H46.4501C46.3869 40.1028 46.2683 39.2889 46.0951 38.4859C46.2463 38.4629 46.3973 38.4374 46.548 38.4094C54.1736 36.9859 59.2223 29.6237 57.8025 21.9979C57.1144 18.3025 55.0289 15.0965 51.9299 12.9707C48.8306 10.8445 45.089 10.0531 41.3941 10.7427C40.2578 10.9542 39.1573 11.3009 38.1231 11.7731C37.6185 12.0034 37.3961 12.5992 37.6265 13.1038C37.8568 13.6085 38.453 13.8307 38.9573 13.6004C39.8428 13.1962 40.7865 12.8992 41.7622 12.7174C44.9298 12.1267 48.1368 12.8046 50.7936 14.6272C53.4501 16.4496 55.238 19.1979 55.8278 22.3656C57.045 28.9031 52.7169 35.2146 46.1805 36.4347C43.9952 36.8406 41.7469 36.6378 39.6782 35.8489C39.5475 35.799 39.4077 35.7769 39.268 35.7842C39.1282 35.7915 38.9915 35.828 38.8667 35.8912C37.0703 36.8007 35.1106 37.1029 33.0263 36.7952C33.8723 35.0396 34.119 33.5356 33.9525 31.5201C33.939 31.3571 33.886 31.1998 33.7979 31.0619C32.9637 29.7565 32.3963 28.3172 32.1111 26.7836C31.6349 24.2293 31.9819 21.6468 33.1146 19.3153C33.3571 18.8163 33.1492 18.2154 32.6502 17.973C32.1515 17.7304 31.5503 17.9385 31.3079 18.4374C30.4137 20.2778 29.9406 22.252 29.8989 24.259C29.385 24.2151 28.8696 24.193 28.3539 24.1927C23.5055 24.1927 18.9469 26.0807 15.5177 29.5087C12.0893 32.9369 10.2012 37.4954 10.2012 42.3447C10.2012 47.1939 12.0893 51.7526 15.5173 55.1806C18.9455 58.6108 23.5041 60.5 28.3537 60.5C33.2055 60.5 37.7651 58.6109 41.1919 55.1808C42.0941 54.279 42.8993 53.2852 43.5942 52.2156C43.9003 52.3599 44.2345 52.4345 44.5729 52.4342H59.3147C60.5891 52.4342 61.6259 51.3975 61.6259 50.123V43.2331C61.6259 41.9587 60.5892 40.9218 59.3147 40.9218ZM33.6102 38.8822C33.9534 39.6361 34.1309 40.4548 34.1309 41.2831C34.1309 44.4687 31.5392 47.0603 28.3537 47.0603C25.1681 47.0603 22.5765 44.4687 22.5765 41.2831C22.5765 38.0975 25.1682 35.5059 28.3537 35.5059C29.3189 35.5059 30.2485 35.7412 31.0828 36.1901C30.942 36.4636 30.7932 36.7329 30.6368 36.9978C30.5578 37.1317 30.5111 37.2822 30.5002 37.4373C30.4893 37.5924 30.5145 37.7479 30.574 37.8916C30.6334 38.0353 30.7254 38.1632 30.8427 38.2653C30.9601 38.3673 31.0995 38.4407 31.25 38.4798C32.0499 38.6873 32.8368 38.8202 33.6102 38.8822ZM16.938 53.7604C10.6433 47.4657 10.6433 37.2237 16.9379 30.9291C19.9875 27.8803 24.0418 26.2013 28.3538 26.2013C28.9037 26.2013 29.4563 26.2302 30.0047 26.2861C30.0397 26.5757 30.0836 26.8643 30.1362 27.1512C30.4528 28.8546 31.0688 30.4592 31.9682 31.9249C32.0263 32.8147 31.9822 33.5645 31.8073 34.3034C30.7411 33.7739 29.5683 33.4971 28.3537 33.4971C24.0604 33.4971 20.5677 36.9898 20.5677 41.2831C20.5677 43.2039 21.2683 44.9633 22.4256 46.3225C19.6598 48.023 17.748 50.8234 17.1697 53.9867C17.0918 53.912 17.0145 53.8366 16.938 53.7604ZM28.3537 58.4912C24.9568 58.4912 21.7206 57.4483 19.0095 55.5148C19.1851 52.2409 21.0881 49.2773 23.9997 47.7348C25.2844 48.606 26.8014 49.0709 28.3537 49.069C29.9064 49.0709 31.4237 48.6057 32.7086 47.7341C35.6211 49.2765 37.5245 52.2406 37.7002 55.515C34.9893 57.4483 31.7525 58.4912 28.3537 58.4912ZM39.7711 53.7608C39.6948 53.8372 39.6174 53.9121 39.5399 53.9867C38.9617 50.8227 37.0492 48.0219 34.2826 46.3216C35.4394 44.9625 36.1396 43.2035 36.1396 41.2832C36.1396 40.4587 36.0081 39.6419 35.755 38.8649C37.0069 38.7394 38.2161 38.41 39.3753 37.8759C40.8883 38.3992 42.4757 38.6563 44.07 38.6449C44.2466 39.3956 44.3691 40.158 44.4367 40.9262C43.227 40.9971 42.2645 42.0046 42.2645 43.2331V43.9408L39.3973 45.8408C39.2591 45.9324 39.1456 46.0568 39.0672 46.2029C38.9887 46.349 38.9477 46.5123 38.9477 46.6781C38.9477 46.8439 38.9887 47.0072 39.0672 47.1533C39.1456 47.2994 39.2591 47.4237 39.3973 47.5153L42.2645 49.4154V50.1231C42.2645 50.2493 42.2751 50.3729 42.2945 50.4937C41.5963 51.6859 40.7482 52.7839 39.7711 53.7608ZM59.6172 50.123C59.6172 50.287 59.4787 50.4255 59.3147 50.4255H44.5729C44.4106 50.4255 44.2734 50.287 44.2734 50.123V48.876C44.2734 48.7102 44.2323 48.5469 44.1539 48.4008C44.0755 48.2547 43.9621 48.1303 43.8238 48.0387L41.7705 46.678L43.8238 45.3172C43.9621 45.2256 44.0755 45.1012 44.1539 44.9551C44.2323 44.809 44.2734 44.6458 44.2734 44.48V43.233C44.2734 43.069 44.4106 42.9305 44.5729 42.9305H59.3147C59.4787 42.9305 59.6172 43.069 59.6172 43.233V50.123Z" fill="url(#paint1_linear_704_2311)"/>
<defs>
<linearGradient id="paint0_linear_704_2311" x1="33.5781" y1="27.043" x2="49.1495" y2="27.2932" gradientUnits="userSpaceOnUse">
<stop stop-color="#DA0202"/>
<stop offset="1" stop-color="#074BC9"/>
</linearGradient>
<linearGradient id="paint1_linear_704_2311" x1="6.08831" y1="28.303" x2="42.2279" y2="29.1679" gradientUnits="userSpaceOnUse">
<stop stop-color="#DA0202"/>
<stop offset="1" stop-color="#074BC9"/>
</linearGradient>
</defs>
</svg>
