<svg width="71" height="71" viewBox="0 0 71 71" fill="none" xmlns="http://www.w3.org/2000/svg">
<path d="M59.1928 32.7089C56.3767 32.8071 53.5647 32.4204 50.8796 31.5656C50.6315 28.1664 48.3401 25.2601 45.0927 24.2256C47.7776 22.4231 49.0047 19.1027 48.1371 15.9874C47.2695 12.8721 44.5028 10.664 41.2728 10.5087C38.0428 10.3535 35.077 12.2864 33.9148 15.304C32.9683 14.8869 31.9453 14.6715 30.911 14.6715C29.8767 14.6715 28.8537 14.8869 27.9072 15.304C26.7447 12.286 23.7784 10.3532 20.548 10.5088C17.3176 10.6645 14.5509 12.8735 13.6841 15.9894C12.8173 19.1052 14.0457 22.4257 16.7316 24.2273C13.2705 25.3266 10.9178 28.5382 10.9131 32.1698V39.6689C10.9131 41.5097 12.4053 43.0019 14.246 43.0019H20.912V43.8351C20.912 45.6758 22.4042 47.168 24.245 47.168H33.2315C35.2162 52.4399 38.8742 57.7894 45.5993 60.4425C45.6996 60.4807 45.8061 60.5002 45.9134 60.5C46.0181 60.5002 46.1218 60.4807 46.2192 60.4425C59.6128 55.1589 60.8485 39.1839 60.9077 34.4137V34.4037C60.908 34.174 60.8623 33.9465 60.7733 33.7347C60.6842 33.5229 60.5537 33.3311 60.3894 33.1705C60.2309 33.0176 60.0433 32.898 59.8378 32.8187C59.6323 32.7394 59.413 32.7021 59.1928 32.7089ZM42.5763 25.5038C45.72 25.5098 48.4342 27.7066 49.0956 30.7799C48.353 30.3915 47.6693 29.8997 47.065 29.3192C46.4231 28.7016 45.409 28.6979 44.7627 29.3109C43.3119 30.6186 41.5488 31.5306 39.6432 31.9589C38.6013 30.2618 36.9821 28.9975 35.0828 28.3985C36.3606 27.5375 37.3438 26.3057 37.9 24.8689C38.848 25.2879 39.8732 25.5041 40.9097 25.5038H42.5763ZM40.9099 12.1719C44.1312 12.1719 46.7425 14.7833 46.7425 18.0046C46.7425 21.2258 44.1311 23.8373 40.9099 23.8373C40.0123 23.8339 39.1279 23.6214 38.3268 23.2165C38.5268 21.8861 38.3589 20.5263 37.8413 19.2844C37.3237 18.0426 36.4762 16.9661 35.3905 16.1715C36.1679 13.7822 38.3972 12.1667 40.9099 12.1719ZM36.7436 22.1708C36.7436 25.3922 34.1322 28.0035 30.9109 28.0035C27.6897 28.0035 25.0783 25.3921 25.0783 22.1708C25.0783 18.9496 27.6897 16.3382 30.9109 16.3382C34.1307 16.3418 36.7399 18.951 36.7436 22.1708ZM15.0792 18.0046C15.0751 15.1439 17.1496 12.704 19.9737 12.2479C22.7978 11.7918 25.5349 13.4549 26.4313 16.1714C25.3457 16.966 24.4982 18.0425 23.9806 19.2844C23.463 20.5262 23.2951 21.886 23.495 23.2164C22.694 23.6213 21.8096 23.8338 20.912 23.8372C17.6921 23.8336 15.0829 21.2244 15.0792 18.0046ZM17.1157 41.3354C17.4156 40.8309 17.5756 40.2557 17.5791 39.6689V31.3364C17.5791 31.1155 17.4913 30.9035 17.335 30.7473C17.1788 30.591 16.9668 30.5032 16.7459 30.5032C16.5249 30.5032 16.3129 30.591 16.1567 30.7473C16.0004 30.9035 15.9126 31.1155 15.9126 31.3364V39.6689C15.9126 40.5893 15.1665 41.3354 14.2461 41.3354C13.3257 41.3354 12.5796 40.5893 12.5796 39.6689V32.1697C12.5837 28.4899 15.5658 25.5079 19.2456 25.5037H20.9121C21.9486 25.504 22.9737 25.2878 23.9217 24.8688C24.4767 26.3026 25.4568 27.5324 26.7306 28.3934C23.2696 29.4928 20.9168 32.7044 20.9121 36.3359V41.3354H17.1157ZM27.1147 45.5016C27.4145 44.9972 27.5745 44.4219 27.578 43.8351V35.5027C27.578 35.2817 27.4902 35.0698 27.3339 34.9135C27.1777 34.7573 26.9658 34.6695 26.7448 34.6695C26.5238 34.6695 26.3119 34.7573 26.1556 34.9135C25.9994 35.0698 25.9116 35.2817 25.9116 35.5027V43.8351C25.9116 44.7555 25.1655 45.5016 24.245 45.5016C23.3246 45.5016 22.5785 44.7555 22.5785 43.8351V36.3359C22.5826 32.6561 25.5647 29.6741 29.2445 29.6699H32.5775C33.6107 29.6686 34.6299 29.909 35.5535 30.372C36.4772 30.835 37.2797 31.5077 37.8969 32.3363C36.1577 32.6257 34.395 32.7501 32.6324 32.708C32.1847 32.6875 31.7487 32.8544 31.4292 33.1688C31.2638 33.3309 31.1327 33.5247 31.0436 33.7386C30.9546 33.9524 30.9095 34.182 30.9109 34.4137C30.9686 38.1736 31.5577 41.9066 32.6607 45.5016H27.1147ZM45.9093 58.7702C39.7642 56.2263 36.4412 51.1585 34.648 46.1883C34.6328 46.0956 34.6018 46.0063 34.5563 45.9241C33.2994 42.2011 32.6317 38.3045 32.5774 34.3754C35.3271 34.447 42.1388 34.2337 45.8868 30.4983C49.6856 34.2328 56.4931 34.4587 59.2311 34.3703C59.238 34.3791 59.2412 34.39 59.2403 34.4012C59.1845 38.8807 58.0463 53.7507 45.9093 58.7702Z" fill="url(#paint0_linear_704_2282)"/>
<path d="M55.8842 35.9489C52.6918 35.7652 49.5831 34.8574 46.7935 33.2942C46.53 33.13 46.2257 33.043 45.9153 33.043C45.6048 33.043 45.3005 33.13 45.037 33.2942C42.2453 34.8585 39.1338 35.7658 35.9389 35.9473C35.7197 35.9661 35.5064 36.0281 35.3114 36.1298C35.1163 36.2315 34.9433 36.3707 34.8023 36.5396C34.6613 36.7085 34.5552 36.9036 34.4899 37.1137C34.4247 37.3238 34.4018 37.5447 34.4224 37.7637C35.5472 49.5782 41.6032 54.5952 45.1137 56.5284C45.3568 56.6637 45.6304 56.7347 45.9086 56.7347C46.1868 56.7347 46.4604 56.6637 46.7036 56.5284C50.2199 54.5885 56.2858 49.5725 57.3991 37.7612C57.4196 37.5424 57.3967 37.3217 57.3315 37.1118C57.2664 36.9018 57.1604 36.7069 57.0196 36.5381C56.8788 36.3693 56.7059 36.2301 56.5111 36.1284C56.3162 36.0267 56.1032 35.9646 55.8842 35.9456V35.9489ZM45.9095 55.0669C42.6857 53.2846 37.1329 48.6509 36.0773 37.6113C39.5416 37.4352 42.9151 36.4419 45.922 34.7125C48.9214 36.4379 52.2861 37.43 55.7417 37.6079C54.6985 48.6426 49.1399 53.2805 45.9095 55.0669Z" fill="url(#paint1_linear_704_2282)"/>
<path d="M41.0579 44.8165C40.8756 44.9988 40.7722 45.2454 40.77 45.5032C40.7677 45.761 40.8668 46.0094 41.0459 46.1948L41.0459 46.1948L41.0478 46.1967L43.5475 48.6964C43.7318 48.8807 43.9818 48.9844 44.2427 48.9844H44.2943V48.9847L44.3035 48.9842C44.4428 48.9756 44.5786 48.9375 44.702 48.8724C44.8254 48.8073 44.9336 48.7167 45.0193 48.6066L45.0193 48.6065L50.852 41.1074L50.852 41.1074L50.8531 41.1058C51.0093 40.8996 51.0779 40.6402 51.0442 40.3838C51.0104 40.1274 50.877 39.8946 50.6729 39.7358C50.4687 39.577 50.2102 39.5051 49.9534 39.5356C49.6965 39.566 49.462 39.6964 49.3007 39.8985L49.2994 39.9001L44.1542 46.5202L42.438 44.8063L42.438 44.8063L42.4362 44.8045C42.2508 44.6254 42.0024 44.5263 41.7446 44.5285C41.4868 44.5308 41.2402 44.6342 41.0579 44.8165ZM41.0579 44.8165L41.1639 44.9225L41.0579 44.8165C41.0579 44.8165 41.0579 44.8165 41.0579 44.8165Z" fill="url(#paint2_linear_704_2282)" stroke="url(#paint3_linear_704_2282)" stroke-width="0.3"/>
<defs>
<linearGradient id="paint0_linear_704_2282" x1="6.9146" y1="28.303" x2="42.0502" y2="29.1205" gradientUnits="userSpaceOnUse">
<stop stop-color="#DA0202"/>
<stop offset="1" stop-color="#074BC9"/>
</linearGradient>
<linearGradient id="paint1_linear_704_2282" x1="32.5762" y1="41.4786" x2="48.7348" y2="41.8435" gradientUnits="userSpaceOnUse">
<stop stop-color="#DA0202"/>
<stop offset="1" stop-color="#074BC9"/>
</linearGradient>
<linearGradient id="paint2_linear_704_2282" x1="40.1215" y1="42.9387" x2="47.1365" y2="43.1167" gradientUnits="userSpaceOnUse">
<stop stop-color="#DA0202"/>
<stop offset="1" stop-color="#074BC9"/>
</linearGradient>
<linearGradient id="paint3_linear_704_2282" x1="40.1215" y1="42.9387" x2="47.1365" y2="43.1167" gradientUnits="userSpaceOnUse">
<stop stop-color="#DA0202"/>
<stop offset="1" stop-color="#074BC9"/>
</linearGradient>
</defs>
</svg>
