<svg width="71" height="70" viewBox="0 0 71 70" fill="none" xmlns="http://www.w3.org/2000/svg">
<path d="M59.2154 48.8296L55.8999 49.875C59.2377 45.3653 60.9617 39.864 60.7944 34.2559C60.6272 28.6479 58.5785 23.259 54.9778 18.9563C51.3771 14.6536 46.4338 11.687 40.9431 10.5338C35.4523 9.38064 29.7332 10.1079 24.7058 12.5985C19.6784 15.0892 15.6348 19.1985 13.2256 24.2654C10.8164 29.3324 10.1815 35.0625 11.4231 40.5339C12.6647 46.0054 15.7106 50.9001 20.0709 54.4309C24.4312 57.9617 29.8524 59.9232 35.4624 60H35.475C35.5934 60.0007 35.7107 59.9781 35.8203 59.9335C35.9299 59.8888 36.0297 59.823 36.1138 59.7399C36.198 59.6567 36.265 59.5577 36.3109 59.4487C36.3569 59.3396 36.3809 59.2225 36.3816 59.1042C36.3823 58.9858 36.3597 58.8685 36.3151 58.7589C36.2705 58.6493 36.2047 58.5495 36.1215 58.4654C36.0383 58.3812 35.9394 58.3142 35.8303 58.2682C35.7212 58.2223 35.6042 58.1983 35.4858 58.1976C30.425 58.1252 25.5259 56.4038 21.5321 53.2947C17.5382 50.1857 14.6676 45.8586 13.3559 40.9702C12.166 36.5307 12.3194 31.838 13.7966 27.4856C15.2739 23.1333 18.0086 19.3167 21.6551 16.5187C25.3015 13.7207 29.6958 12.0669 34.2822 11.7665C38.8686 11.466 43.4411 12.5324 47.4213 14.8308C50.2605 16.4691 52.7206 18.6898 54.6401 21.3469C56.5596 24.0039 57.8949 27.0372 58.5582 30.2473C59.2215 33.4574 59.1977 36.7715 58.4886 39.9717C57.7794 43.172 56.4008 46.1858 54.4435 48.8152L54.5327 45.3293C54.5388 45.0904 54.4497 44.8589 54.2851 44.6857C54.1205 44.5125 53.8938 44.4117 53.655 44.4056C53.5363 44.4011 53.418 44.4204 53.3069 44.4624C53.1958 44.5044 53.0943 44.5681 53.0082 44.6499C52.9221 44.7317 52.8533 44.8299 52.8057 44.9386C52.7582 45.0474 52.7328 45.1646 52.7312 45.2834L52.5897 50.8411C52.5847 51.0668 52.6336 51.2905 52.7323 51.4936C52.831 51.6967 52.9767 51.8733 53.1573 52.0088C53.3379 52.1443 53.5483 52.2348 53.7709 52.2728C53.9934 52.3107 54.2219 52.2951 54.4372 52.2271L59.7579 50.5491C59.8708 50.5135 59.9756 50.4559 60.0663 50.3798C60.1569 50.3037 60.2317 50.2105 60.2864 50.1055C60.341 50.0004 60.3745 49.8857 60.3848 49.7677C60.395 49.6498 60.382 49.531 60.3464 49.4181C60.3108 49.3052 60.2533 49.2004 60.1771 49.1097C60.101 49.019 60.0078 48.9442 59.9028 48.8896C59.7977 48.8349 59.683 48.8015 59.565 48.7912C59.4471 48.7809 59.3283 48.794 59.2154 48.8296Z" fill="url(#paint0_linear_479_2043)"/>
<path d="M51.8318 27.3214C51.7929 27.1366 51.7178 26.9613 51.6108 26.8057C51.5037 26.65 51.3669 26.5172 51.2081 26.4148L36.8042 17.0603C36.6458 16.9574 36.4687 16.8867 36.283 16.8523C36.0972 16.8178 35.9065 16.8203 35.7217 16.8595C35.537 16.8988 35.3617 16.974 35.206 17.081C35.0503 17.188 34.9173 17.3246 34.8144 17.483L33.8654 18.9457C33.663 19.2555 33.5886 19.6319 33.6581 19.9954C33.7275 20.359 33.9352 20.6815 34.2376 20.895C33.4011 22.3759 32.8522 24.0017 32.6199 25.6866C32.4798 27.2538 32.6463 28.8333 33.1102 30.3368C33.3869 31.485 33.6996 32.7872 33.3905 33.2622C33.0832 33.7371 31.7656 33.9804 30.6039 34.1958C29.0221 34.3872 27.4936 34.8888 26.1061 35.672C24.6807 36.5623 23.436 37.7134 22.4373 39.065C22.1193 38.8756 21.7402 38.8169 21.3799 38.9012C21.0195 38.9856 20.7059 39.2065 20.5051 39.5174L19.5552 40.98C19.4523 41.1385 19.3816 41.3156 19.3471 41.5013C19.3127 41.687 19.3151 41.8777 19.3544 42.0625C19.3936 42.2473 19.4689 42.4225 19.5759 42.5782C19.6829 42.7339 19.8195 42.867 19.9779 42.9699L34.3827 52.3244C34.6147 52.476 34.8859 52.5568 35.1631 52.5569C35.2646 52.5569 35.3658 52.5463 35.465 52.5253C35.6501 52.4867 35.8256 52.4116 35.9813 52.3046C36.1371 52.1975 36.2701 52.0606 36.3725 51.9017L37.3215 50.4391C37.5242 50.1293 37.5986 49.7529 37.5292 49.3892C37.4598 49.0256 37.2519 48.7031 36.9493 48.4898C37.7856 47.0087 38.3345 45.383 38.567 43.6981C38.7071 42.1312 38.5406 40.552 38.0767 39.0488C37.8 37.8997 37.4873 36.5975 37.7955 36.1226C38.1038 35.6476 39.4213 35.4043 40.583 35.1889C42.1652 34.9971 43.694 34.4949 45.0818 33.7109C46.5076 32.8202 47.7526 31.6684 48.7515 30.3161C48.9691 30.4478 49.2181 30.5187 49.4724 30.5216C49.5739 30.5216 49.6751 30.511 49.7743 30.4901C49.9593 30.4514 50.1348 30.3763 50.2906 30.2693C50.4464 30.1622 50.5794 30.0253 50.6818 29.8664L51.6317 28.4038C51.735 28.2456 51.8058 28.0684 51.8402 27.8826C51.8745 27.6969 51.8717 27.5061 51.8318 27.3214ZM35.0586 50.6139L21.2648 41.6568L21.819 40.8052L22.1876 41.0449L23.3799 41.82L35.6119 49.7632L35.0586 50.6139ZM44.0463 32.2357C42.8677 32.8635 41.5816 33.264 40.2549 33.4163C38.5886 33.7254 37.0142 34.0165 36.2842 35.1412C35.5543 36.265 35.9282 37.8222 36.3239 39.4705C36.7297 40.7646 36.8836 42.1244 36.7772 43.4764C36.5814 44.8889 36.1284 46.2537 35.4407 47.5029L23.9522 40.041C24.8284 38.8891 25.9092 37.9085 27.1406 37.1481C28.3192 36.5203 29.6053 36.1198 30.932 35.9676C32.5983 35.6593 34.1727 35.3683 34.9027 34.2436C35.6327 33.1189 35.2587 31.5625 34.863 29.9142C34.4569 28.6196 34.303 27.2591 34.4097 25.9065C34.6056 24.4946 35.0586 23.1304 35.7462 21.8818L41.4905 25.6127L47.2338 29.3428C46.3577 30.4944 45.2772 31.475 44.0463 32.2357ZM49.3688 28.5795L43.3695 24.6836L35.9436 19.8622L35.9418 19.8604L35.575 19.6225L36.1283 18.7699L49.9212 27.7279L49.3688 28.5795Z" fill="url(#paint1_linear_479_2043)"/>
<defs>
<linearGradient id="paint0_linear_479_2043" x1="6.80412" y1="27.803" x2="41.9452" y2="28.6207" gradientUnits="userSpaceOnUse">
<stop stop-color="#DA0202"/>
<stop offset="1" stop-color="#074BC9"/>
</linearGradient>
<linearGradient id="paint1_linear_479_2043" x1="16.7204" y1="29.5497" x2="39.5919" y2="30.0344" gradientUnits="userSpaceOnUse">
<stop stop-color="#DA0202"/>
<stop offset="1" stop-color="#074BC9"/>
</linearGradient>
</defs>
</svg>
