<svg width="71" height="70" viewBox="0 0 71 70" fill="none" xmlns="http://www.w3.org/2000/svg">
<path d="M60.08 39.2278L57.4543 36.602C56.9379 36.0875 56.2387 35.7986 55.5098 35.7986C54.7809 35.7986 54.0817 36.0875 53.5654 36.602L39.3862 50.7821L37.4321 57.9491L36.9539 58.4272C36.7825 58.5987 36.6858 58.8309 36.6848 59.0733C36.6837 59.3158 36.7785 59.5488 36.9484 59.7217L36.9438 59.7401L36.9613 59.7355C37.1341 59.9058 37.3673 60.0009 37.6099 60.0001C37.8526 59.9992 38.085 59.9025 38.2567 59.7309L38.7357 59.2518L45.9018 57.2977L60.081 43.1176C60.5961 42.6014 60.8853 41.9018 60.8851 41.1725C60.885 40.4432 60.5954 39.7438 60.08 39.2278ZM41.5135 51.2612L50.9506 41.825L54.8598 45.7332L45.4227 55.1704L41.5135 51.2612ZM40.6816 53.0347L43.6482 56.0014L39.5686 57.1144L40.6816 53.0347ZM58.7773 41.8149L56.1617 44.4305L52.2525 40.5222L54.8681 37.9066C55.0385 37.7365 55.2693 37.6408 55.5101 37.6406C55.7509 37.6405 55.9819 37.7358 56.1524 37.9057L58.7782 40.5315C58.9483 40.7018 59.0437 40.9327 59.0436 41.1733C59.0434 41.414 58.9476 41.6448 58.7773 41.8149ZM34.1678 21.0565C33.9235 21.0565 33.6891 21.1536 33.5163 21.3264C33.3436 21.4991 33.2465 21.7335 33.2465 21.9778C33.2465 22.2222 33.3436 22.4565 33.5163 22.6293C33.6891 22.8021 33.9235 22.8992 34.1678 22.8992H50.7516C50.996 22.8992 51.2303 22.8021 51.4031 22.6293C51.5759 22.4565 51.673 22.2222 51.673 21.9778C51.673 21.7335 51.5759 21.4991 51.4031 21.3264C51.2303 21.1536 50.996 21.0565 50.7516 21.0565H34.1678ZM51.673 34.8764C51.673 34.632 51.5759 34.3977 51.4031 34.2249C51.2303 34.0521 50.996 33.955 50.7516 33.955H34.1678C33.9235 33.955 33.6891 34.0521 33.5163 34.2249C33.3436 34.3977 33.2465 34.632 33.2465 34.8764C33.2465 35.1207 33.3436 35.3551 33.5163 35.5278C33.6891 35.7006 33.9235 35.7977 34.1678 35.7977H50.7516C50.996 35.7977 51.2303 35.7006 51.4031 35.5278C51.5759 35.3551 51.673 35.1207 51.673 34.8764ZM28.2529 16.6719C28.1612 16.593 28.0548 16.5329 27.9398 16.4951C27.8248 16.4573 27.7034 16.4427 27.5827 16.4519C27.462 16.4611 27.3443 16.4941 27.2364 16.549C27.1285 16.6038 27.0325 16.6794 26.9539 16.7714L21.1974 23.486L17.6761 20.8455C17.4806 20.6992 17.2349 20.6364 16.9931 20.6709C16.7513 20.7055 16.533 20.8345 16.3863 21.0298C16.3136 21.1265 16.2607 21.2365 16.2306 21.3537C16.2005 21.4708 16.1939 21.5928 16.211 21.7125C16.2281 21.8322 16.2687 21.9474 16.3304 22.0514C16.3921 22.1555 16.4737 22.2463 16.5705 22.3187L20.7819 25.4779C20.9688 25.6195 21.2029 25.6841 21.4359 25.6584C21.669 25.6327 21.8834 25.5187 22.0349 25.3398L28.3524 17.9692C28.4311 17.8775 28.491 17.7712 28.5286 17.6564C28.5662 17.5415 28.5808 17.4204 28.5715 17.2999C28.5623 17.1795 28.5294 17.062 28.4747 16.9542C28.4201 16.8465 28.3447 16.7505 28.2529 16.6719ZM28.2529 29.5705C28.1612 29.4915 28.0548 29.4314 27.9398 29.3936C27.8248 29.3559 27.7034 29.3412 27.5827 29.3504C27.462 29.3597 27.3443 29.3927 27.2364 29.4475C27.1285 29.5023 27.0325 29.5779 26.9539 29.67L21.1974 36.3846L17.6761 33.7441C17.2689 33.4391 16.6922 33.522 16.3863 33.9283C16.0804 34.3346 16.1633 34.9123 16.5705 35.2173L20.7819 38.3765C20.9688 38.5181 21.2029 38.5826 21.4359 38.5569C21.669 38.5312 21.8834 38.4172 22.0349 38.2383L28.3524 30.8677C28.4311 30.776 28.491 30.6697 28.5286 30.5549C28.5662 30.4401 28.5808 30.3189 28.5715 30.1985C28.5623 30.078 28.5294 29.9605 28.4747 29.8528C28.4201 29.745 28.3447 29.6491 28.2529 29.5705ZM26.9529 43.4898L21.1965 50.2035L17.6761 47.563C17.2689 47.258 16.6922 47.341 16.3863 47.7473C16.0804 48.1536 16.1633 48.7312 16.5705 49.0362L20.7819 52.1954C20.9688 52.337 21.2029 52.4016 21.4359 52.3759C21.669 52.3502 21.8834 52.2361 22.0349 52.0572L28.3524 44.6875C28.4348 44.5962 28.498 44.4893 28.5383 44.3731C28.5787 44.2569 28.5954 44.1339 28.5875 44.0112C28.5795 43.8884 28.5471 43.7685 28.4921 43.6585C28.437 43.5486 28.3606 43.4507 28.2671 43.3707C28.1737 43.2908 28.0652 43.2303 27.948 43.1929C27.8309 43.1556 27.7074 43.142 27.5849 43.1531C27.4624 43.1642 27.3434 43.1998 27.2349 43.2576C27.1263 43.3154 27.0305 43.3944 26.9529 43.4898Z" fill="url(#paint0_linear_479_2074)"/>
<path d="M32.3251 57.9097H20.5101C15.3405 57.9097 11.1347 53.7039 11.1347 48.5344V21.218C11.1347 16.0485 15.3405 11.8436 20.5101 11.8436H47.8255C52.995 11.8436 57.2009 16.0485 57.2009 21.218V32.1118C57.2009 32.3561 57.2979 32.5905 57.4707 32.7632C57.6435 32.936 57.8778 33.0331 58.1222 33.0331C58.3666 33.0331 58.6009 32.936 58.7737 32.7632C58.9465 32.5905 59.0435 32.3561 59.0435 32.1118V21.218C59.0435 15.0323 54.0113 10 47.8255 10H20.5101C14.3243 10.0009 9.29205 15.0323 9.29205 21.218V48.5334C9.29205 54.7192 14.3243 59.7515 20.5101 59.7515H32.3251C32.4485 59.7554 32.5714 59.7344 32.6866 59.6899C32.8017 59.6454 32.9067 59.5782 32.9954 59.4923C33.084 59.4064 33.1545 59.3036 33.2027 59.1899C33.2508 59.0762 33.2756 58.954 33.2756 58.8306C33.2756 58.7072 33.2508 58.585 33.2027 58.4713C33.1545 58.3576 33.084 58.2548 32.9954 58.1689C32.9067 58.083 32.8017 58.0158 32.6866 57.9713C32.5714 57.9268 32.4485 57.9058 32.3251 57.9097Z" fill="url(#paint1_linear_479_2074)"/>
<defs>
<linearGradient id="paint0_linear_479_2074" x1="12.628" y1="31.956" x2="44.0301" y2="32.7056" gradientUnits="userSpaceOnUse">
<stop stop-color="#DA0202"/>
<stop offset="1" stop-color="#074BC9"/>
</linearGradient>
<linearGradient id="paint1_linear_479_2074" x1="5.31302" y1="27.7147" x2="40.2778" y2="28.5282" gradientUnits="userSpaceOnUse">
<stop stop-color="#DA0202"/>
<stop offset="1" stop-color="#074BC9"/>
</linearGradient>
</defs>
</svg>
