<svg width="71" height="70" viewBox="0 0 71 70" fill="none" xmlns="http://www.w3.org/2000/svg">
<path d="M57.8334 31.6574C57.6474 25.9811 55.3022 20.5899 51.2763 16.584C47.0308 12.3377 41.3884 10 35.3894 10C23.2731 10 13.373 19.6439 12.9463 31.6574C12.012 32.0712 11.2178 32.7471 10.66 33.6032C10.1021 34.4593 9.80447 35.4588 9.80316 36.4806V42.4061C9.80467 43.8054 10.3612 45.1469 11.3506 46.1363C12.3401 47.1258 13.6816 47.6823 15.0808 47.6838C15.9862 47.6827 16.8541 47.3226 17.4943 46.6824C18.1345 46.0422 18.4946 45.1743 18.4957 44.269V34.6169C18.4957 32.8487 17.1395 31.4069 15.4154 31.2355C16.0518 20.7691 24.7647 12.4479 35.3894 12.4479C40.7356 12.4479 45.7628 14.5319 49.5464 18.3155C53.0208 21.7899 55.0542 26.3185 55.3602 31.2363C53.6377 31.4093 52.284 32.8503 52.284 34.6169V44.2682C52.284 46.051 53.6614 47.5018 55.4059 47.6528V50.0917C55.4044 51.4123 54.8791 52.6784 53.9451 53.6122C53.0112 54.5459 51.7451 55.0711 50.4244 55.0724H46.7354C46.4867 54.3473 46.0172 53.7183 45.3927 53.2737C44.7683 52.8291 44.0203 52.5912 43.2537 52.5935H39.4513C38.9054 52.5935 38.3816 52.7093 37.9018 52.9329C37.2593 53.2297 36.7152 53.7041 36.3335 54.3C35.9518 54.8959 35.7485 55.5886 35.7476 56.2963C35.7476 57.2869 36.1336 58.2171 36.8329 58.9131C37.1756 59.2586 37.5836 59.5326 38.0331 59.7192C38.4826 59.9058 38.9646 60.0012 39.4513 60H43.2537C44.8302 60 46.2198 58.9808 46.7379 57.5203H50.4244C54.5214 57.5203 57.8538 54.1879 57.8538 50.0917V47.2171C58.7825 46.8009 59.5712 46.1253 60.125 45.2715C60.6789 44.4178 60.9743 43.4222 60.9757 42.4045V36.4789C60.9757 34.3297 59.6816 32.4791 57.8334 31.6574ZM16.0469 34.6169V44.2682C16.0469 44.801 15.6137 45.2351 15.08 45.2351C14.3298 45.2342 13.6105 44.9358 13.08 44.4053C12.5495 43.8748 12.2511 43.1555 12.2502 42.4053V36.4797C12.2511 35.7295 12.5495 35.0103 13.08 34.4798C13.6105 33.9493 14.3298 33.6508 15.08 33.65C15.6137 33.65 16.0469 34.0841 16.0469 34.6169ZM44.4817 56.5591C44.4209 56.8401 44.2659 57.0919 44.0425 57.2728C43.819 57.4537 43.5404 57.5528 43.2529 57.5537H39.4505C39.1159 57.5537 38.8018 57.4232 38.5619 57.1833C38.4451 57.0674 38.3526 56.9294 38.2895 56.7774C38.2265 56.6255 38.1943 56.4625 38.1947 56.2979C38.1956 55.9652 38.3282 55.6464 38.5635 55.4112C38.7989 55.176 39.1178 55.0436 39.4505 55.043H43.2529C43.5874 55.043 43.9016 55.1727 44.1407 55.4126C44.3773 55.6484 44.5079 55.9634 44.5079 56.2979C44.5087 56.3877 44.4989 56.4775 44.4817 56.5591ZM58.5278 42.4053C58.5269 43.1555 58.2285 43.8748 57.698 44.4053C57.1675 44.9358 56.4483 45.2342 55.698 45.2351C55.4416 45.2349 55.1958 45.1329 55.0145 44.9516C54.8333 44.7703 54.7313 44.5245 54.7311 44.2682V34.6169C54.7311 34.0841 55.1644 33.65 55.698 33.65C56.4483 33.6508 57.1675 33.9493 57.698 34.4798C58.2285 35.0103 58.5269 35.7295 58.5278 36.4797V42.4053Z" fill="url(#paint0_linear_479_2097)"/>
<path d="M43.3147 42.8269C44.6897 42.8254 46.008 42.2785 46.9802 41.3062C47.9525 40.3339 48.4994 39.0156 48.5009 37.6406V27.073C48.5009 25.6908 47.9608 24.3885 46.98 23.4077C45.9992 22.4269 44.6977 21.8867 43.3147 21.8867H27.4637C26.0887 21.8882 24.7704 22.4351 23.7981 23.4074C22.8258 24.3797 22.2789 25.698 22.2774 27.073V37.6406C22.2789 39.0156 22.8258 40.3339 23.7981 41.3062C24.7704 42.2785 26.0887 42.8254 27.4637 42.8269H27.5608V45.5653C27.5592 45.8996 27.6237 46.231 27.7506 46.5404C27.8775 46.8497 28.0643 47.131 28.3003 47.3679C28.5363 47.6048 28.8168 47.7927 29.1257 47.9208C29.4345 48.0489 29.7657 48.1147 30.1001 48.1143C30.4342 48.115 30.7651 48.0484 31.073 47.9184C31.3808 47.7885 31.6593 47.5979 31.8919 47.3579L36.4475 42.8269H43.3147ZM35.0807 40.7347L30.1507 45.6379C30.1286 45.6607 30.1123 45.6779 30.0658 45.6575C30.0095 45.6346 30.0095 45.5979 30.0095 45.5653V41.6029C30.0095 41.2783 29.8806 40.967 29.651 40.7375C29.4215 40.5079 29.1102 40.379 28.7856 40.379H27.4645C26.7385 40.3781 26.0425 40.0893 25.5291 39.576C25.0158 39.0626 24.727 38.3666 24.7261 37.6406V27.073C24.727 26.347 25.0158 25.651 25.5291 25.1376C26.0425 24.6243 26.7385 24.3355 27.4645 24.3346H43.3155C44.0449 24.3346 44.7312 24.6202 45.2501 25.1383C45.7691 25.6573 46.0539 26.3443 46.0539 27.073V37.6406C46.053 38.3666 45.7642 39.0626 45.2508 39.576C44.7375 40.0893 44.0415 40.3781 43.3155 40.379H35.944C35.6201 40.379 35.31 40.5071 35.0807 40.7347Z" fill="url(#paint1_linear_479_2097)"/>
<path d="M29.4434 30.7471C28.4479 30.7471 27.6376 31.5581 27.6376 32.5528C27.6376 33.5475 28.4487 34.3585 29.4434 34.3585C30.4397 34.3585 31.2507 33.5475 31.2507 32.5528C31.2507 31.5581 30.4405 30.7471 29.4434 30.7471ZM35.3885 30.7471C34.393 30.7471 33.5828 31.5581 33.5828 32.5528C33.5828 33.5475 34.3938 34.3585 35.3885 34.3585C36.3856 34.3585 37.1959 33.5475 37.1959 32.5528C37.1959 31.5581 36.3856 30.7471 35.3885 30.7471ZM41.3336 30.7471C40.3382 30.7471 39.5279 31.5581 39.5279 32.5528C39.5279 33.5475 40.339 34.3585 41.3336 34.3585C42.3299 34.3585 43.141 33.5475 43.141 32.5528C43.141 31.5581 42.3299 30.7471 41.3336 30.7471Z" fill="url(#paint2_linear_479_2097)"/>
<defs>
<linearGradient id="paint0_linear_479_2097" x1="5.71047" y1="27.803" x2="41.673" y2="28.6594" gradientUnits="userSpaceOnUse">
<stop stop-color="#DA0202"/>
<stop offset="1" stop-color="#074BC9"/>
</linearGradient>
<linearGradient id="paint1_linear_479_2097" x1="20.1801" y1="31.2253" x2="38.6097" y2="31.6541" gradientUnits="userSpaceOnUse">
<stop stop-color="#DA0202"/>
<stop offset="1" stop-color="#074BC9"/>
</linearGradient>
<linearGradient id="paint2_linear_479_2097" x1="26.3977" y1="32.033" x2="37.1915" y2="33.1111" gradientUnits="userSpaceOnUse">
<stop stop-color="#DA0202"/>
<stop offset="1" stop-color="#074BC9"/>
</linearGradient>
</defs>
</svg>
