<svg width="71" height="70" viewBox="0 0 71 70" fill="none" xmlns="http://www.w3.org/2000/svg">
<path d="M30.597 41.2502H18.0969C17.8206 41.2502 17.5557 41.1405 17.3603 40.9451C17.165 40.7498 17.0552 40.4848 17.0552 40.2086C17.0552 39.9323 17.165 39.6673 17.3603 39.472C17.5557 39.2766 17.8206 39.1669 18.0969 39.1669H30.597C30.8733 39.1669 31.1383 39.2766 31.3336 39.472C31.529 39.6673 31.6387 39.9323 31.6387 40.2086C31.6387 40.4848 31.529 40.7498 31.3336 40.9451C31.1383 41.1405 30.8733 41.2502 30.597 41.2502ZM30.597 47.5003H18.0969C17.8206 47.5003 17.5557 47.3905 17.3603 47.1952C17.165 46.9998 17.0552 46.7349 17.0552 46.4586C17.0552 46.1824 17.165 45.9174 17.3603 45.722C17.5557 45.5267 17.8206 45.4169 18.0969 45.4169H30.597C30.8733 45.4169 31.1383 45.5267 31.3336 45.722C31.529 45.9174 31.6387 46.1824 31.6387 46.4586C31.6387 46.7349 31.529 46.9998 31.3336 47.1952C31.1383 47.3905 30.8733 47.5003 30.597 47.5003ZM28.5137 24.5834C26.2157 24.5834 24.347 22.7146 24.347 20.4167C24.347 18.1188 26.2157 16.25 28.5137 16.25C30.8116 16.25 32.6804 18.1188 32.6804 20.4167C32.6804 22.7146 30.8116 24.5834 28.5137 24.5834ZM28.5137 18.3334C27.3658 18.3334 26.4303 19.2688 26.4303 20.4167C26.4303 21.5646 27.3658 22.5001 28.5137 22.5001C29.6616 22.5001 30.597 21.5646 30.597 20.4167C30.597 19.2688 29.6616 18.3334 28.5137 18.3334ZM35.8054 35.0002C35.5291 35.0002 35.2642 34.8904 35.0688 34.6951C34.8735 34.4997 34.7637 34.2348 34.7637 33.9585V31.8751C34.7637 30.1522 33.3616 28.7501 31.6387 28.7501H25.3886C23.6657 28.7501 22.2636 30.1522 22.2636 31.8751V33.9585C22.2636 34.2348 22.1539 34.4997 21.9585 34.6951C21.7632 34.8904 21.4982 35.0002 21.2219 35.0002C20.9457 35.0002 20.6807 34.8904 20.4854 34.6951C20.29 34.4997 20.1803 34.2348 20.1803 33.9585V31.8751C20.1803 29.0043 22.5178 26.6668 25.3886 26.6668H31.6387C34.5096 26.6668 36.8471 29.0043 36.8471 31.8751V33.9585C36.8471 34.2348 36.7373 34.4997 36.542 34.6951C36.3466 34.8904 36.0817 35.0002 35.8054 35.0002Z" fill="url(#paint0_linear_479_2119)"/>
<path d="M34.8262 53.7504H16.0136C14.6327 53.7488 13.3089 53.1995 12.3325 52.2231C11.3561 51.2467 10.8068 49.9229 10.8052 48.542L10.8052 15.2084C10.8052 12.3375 13.1427 10 16.0136 10H41.0138C43.8847 10 46.2222 12.3375 46.2222 15.2084V31.9169C46.2222 32.1931 46.1124 32.4581 45.9171 32.6534C45.7217 32.8488 45.4568 32.9585 45.1805 32.9585C44.9042 32.9585 44.6393 32.8488 44.4439 32.6534C44.2486 32.4581 44.1388 32.1931 44.1388 31.9169V15.2084C44.1388 13.4854 42.7367 12.0834 41.0138 12.0834H16.0136C14.2906 12.0834 12.8885 13.4854 12.8885 15.2084V48.542C12.8885 50.265 14.2906 51.6671 16.0136 51.6671H34.8262C35.1025 51.6671 35.3675 51.7768 35.5628 51.9722C35.7582 52.1675 35.8679 52.4325 35.8679 52.7087C35.8679 52.985 35.7582 53.25 35.5628 53.4453C35.3675 53.6407 35.1025 53.7504 34.8262 53.7504Z" fill="url(#paint1_linear_479_2119)"/>
<path d="M46.2224 55.8335C40.4786 55.8335 35.8056 51.1606 35.8056 45.4168C35.8056 39.673 40.4786 35 46.2224 35C51.9662 35 56.6391 39.673 56.6391 45.4168C56.6391 51.1606 51.9662 55.8335 46.2224 55.8335ZM46.2224 37.0834C41.6265 37.0834 37.889 40.8209 37.889 45.4168C37.889 50.0126 41.6265 53.7502 46.2224 53.7502C50.8182 53.7502 54.5558 50.0126 54.5558 45.4168C54.5558 40.8209 50.8182 37.0834 46.2224 37.0834Z" fill="url(#paint2_linear_479_2119)"/>
<path d="M59.7639 59.9997C59.4875 59.9997 59.2224 59.8903 59.0264 59.6955L52.1138 52.7829C51.9241 52.5865 51.8191 52.3233 51.8215 52.0502C51.8238 51.7771 51.9334 51.5158 52.1265 51.3227C52.3196 51.1295 52.5809 51.02 52.854 51.0176C53.1272 51.0152 53.3903 51.1202 53.5868 51.31L60.4993 58.2226C60.6445 58.3682 60.7434 58.5536 60.7834 58.7554C60.8234 58.9572 60.8028 59.1662 60.7241 59.3563C60.6455 59.5464 60.5123 59.7089 60.3414 59.8234C60.1705 59.9379 59.9696 59.9992 59.7639 59.9997Z" fill="url(#paint3_linear_479_2119)"/>
<defs>
<linearGradient id="paint0_linear_479_2119" x1="15.4723" y1="27.377" x2="29.3863" y2="27.582" gradientUnits="userSpaceOnUse">
<stop stop-color="#DA0202"/>
<stop offset="1" stop-color="#074BC9"/>
</linearGradient>
<linearGradient id="paint1_linear_479_2119" x1="7.97259" y1="25.5778" x2="32.8679" y2="26.0467" gradientUnits="userSpaceOnUse">
<stop stop-color="#DA0202"/>
<stop offset="1" stop-color="#074BC9"/>
</linearGradient>
<linearGradient id="paint2_linear_479_2119" x1="34.1394" y1="42.418" x2="48.7809" y2="42.7587" gradientUnits="userSpaceOnUse">
<stop stop-color="#DA0202"/>
<stop offset="1" stop-color="#074BC9"/>
</linearGradient>
<linearGradient id="paint3_linear_479_2119" x1="51.1031" y1="54.2157" x2="57.4154" y2="54.3626" gradientUnits="userSpaceOnUse">
<stop stop-color="#DA0202"/>
<stop offset="1" stop-color="#074BC9"/>
</linearGradient>
</defs>
</svg>
