<svg width="71" height="70" viewBox="0 0 71 70" fill="none" xmlns="http://www.w3.org/2000/svg">
<path d="M11.2393 60H32.5585C33.1474 60 33.5596 59.5289 33.6185 58.9988V55.8775C33.6185 51.0483 30.6738 46.7492 26.1981 44.9823C28.6126 43.4511 29.9672 40.8599 29.9672 38.2097C29.9672 33.7338 26.257 30.2003 21.9578 30.2003C17.5408 30.2003 13.9484 33.7338 13.9484 38.1508C13.9484 40.9188 15.3618 43.5101 17.7175 44.9823C13.2416 46.7492 10.297 51.0483 10.297 55.8775V58.9988C10.2381 59.5288 10.7093 60 11.2393 60ZM15.9508 38.2096C15.9508 34.9116 18.6599 32.2614 21.899 32.2614C25.197 32.2614 27.8472 34.9116 27.8472 38.2096C27.8472 41.5076 25.1381 44.1578 21.899 44.1578C18.6598 44.1578 15.9508 41.4487 15.9508 38.2096ZM12.2994 55.8185C12.2994 50.5182 16.5985 46.219 21.8989 46.219C27.1992 46.219 31.4984 50.5182 31.4984 55.8185V57.9387H12.2994V55.8185ZM53.5832 24.7231C57.2934 22.3674 58.4713 17.4794 56.1156 13.769C54.6433 11.3545 51.9931 10 49.284 10C44.867 10 41.2746 13.5335 41.2746 17.9505C41.2746 20.7185 42.688 23.3097 45.0438 24.782C40.5679 26.5489 37.6233 30.848 37.6233 35.6183V38.7396C37.6233 39.3286 38.0944 39.7408 38.6244 39.7997H59.9436C60.083 39.8003 60.2211 39.7732 60.35 39.7202C60.4788 39.6671 60.5959 39.5891 60.6945 39.4905C60.793 39.3919 60.8711 39.2749 60.9242 39.146C60.9772 39.0171 61.0042 38.879 61.0037 38.7396V35.6183C61.0037 30.7891 58.0591 26.431 53.5832 24.7231ZM43.3358 17.9505C43.3358 14.6525 46.0449 12.0023 49.284 12.0023C50.0658 12.0001 50.8402 12.1525 51.5629 12.4507C52.2855 12.7488 52.9421 13.1869 53.4949 13.7396C54.0477 14.2924 54.4857 14.949 54.7839 15.6717C55.082 16.3943 55.2344 17.1688 55.2322 17.9505C55.2322 21.3074 52.5231 23.8987 49.284 23.8987C46.0449 23.8987 43.3358 21.2485 43.3358 17.9505ZM58.9424 37.6796H39.6845V35.5594C39.6845 30.2591 43.9837 25.9599 49.284 25.9599C54.5844 25.9599 58.8835 30.2591 58.8835 35.5594V37.6796H58.9424ZM42.217 47.6325C41.8048 47.2203 41.1569 47.2203 40.7447 47.6325L37.5056 50.8716C37.0934 51.2838 37.0934 51.9317 37.5056 52.3439L40.7447 55.583C41.1569 55.9952 41.8048 55.9952 42.217 55.583C42.6292 55.1708 42.6292 54.5229 42.217 54.1107L40.7447 52.6384H43.6305C48.6364 52.6384 52.6411 48.5749 52.6411 43.6279C52.6411 43.0389 52.1699 42.5678 51.581 42.5678C50.9921 42.5678 50.5209 43.0389 50.5209 43.6279C50.5209 47.4559 47.3996 50.5772 43.5716 50.5772H40.6858L42.1581 49.1049C42.6292 48.6926 42.6292 48.0447 42.217 47.6325ZM21.1922 25.371C21.1922 25.9599 21.6634 26.431 22.2523 26.431C22.8413 26.431 23.3124 25.9599 23.3124 25.371C23.3124 21.5429 26.4337 18.4216 30.2617 18.4216H33.1475L31.6752 19.8939C31.263 20.3061 31.263 20.954 31.6752 21.3662C32.0875 21.7784 32.7353 21.7784 33.1475 21.3662L36.3866 18.1271C36.7399 17.7738 36.7988 17.067 36.3866 16.6548L33.1475 13.4157C32.7353 13.0035 32.0875 13.0035 31.6752 13.4157C31.263 13.8279 31.263 14.4758 31.6752 14.8291L33.1475 16.3014H30.2617C25.2558 16.3604 21.1922 20.3652 21.1922 25.371Z" fill="url(#paint0_linear_479_2127)"/>
<defs>
<linearGradient id="paint0_linear_479_2127" x1="6.23623" y1="27.803" x2="41.8752" y2="28.6441" gradientUnits="userSpaceOnUse">
<stop stop-color="#DA0202"/>
<stop offset="1" stop-color="#074BC9"/>
</linearGradient>
</defs>
</svg>
