<svg width="71" height="71" viewBox="0 0 71 71" fill="none" xmlns="http://www.w3.org/2000/svg">
<path d="M51.3438 25.1264C51.9382 25.1264 52.4203 24.6444 52.4203 24.0498V13.4297C52.4203 11.759 51.0613 10.4 49.3906 10.4H13.8438C12.1731 10.4 10.8141 11.759 10.8141 13.4297V57.5703C10.8141 59.241 12.1731 60.6 13.8438 60.6H49.3906C51.0613 60.6 52.4203 59.241 52.4203 57.5703V50.3758C52.4203 49.7812 51.9382 49.2992 51.3438 49.2992C50.7493 49.2992 50.2672 49.7812 50.2672 50.3758V57.5703C50.2672 58.0536 49.8739 58.4469 49.3906 58.4469H13.8438C13.3605 58.4469 12.9672 58.0536 12.9672 57.5703V13.4297C12.9672 12.9464 13.3605 12.5531 13.8438 12.5531H49.3906C49.8739 12.5531 50.2672 12.9464 50.2672 13.4297V24.0498C50.2672 24.6444 50.7493 25.1264 51.3438 25.1264Z" fill="url(#paint0_linear_704_2273)" stroke="url(#paint1_linear_704_2273)" stroke-width="0.2"/>
<mask id="path-2-outside-1_704_2273" maskUnits="userSpaceOnUse" x="16.875" y="14.7734" width="45" height="41" fill="black">
<rect fill="white" x="16.875" y="14.7734" width="45" height="41"/>
<path d="M31.6172 15.7734C26.6632 15.7734 22.6328 19.8038 22.6328 24.7578C22.6328 27.3278 23.7178 29.6489 25.4533 31.288C25.4858 31.3228 25.5204 31.3557 25.5582 31.3856C27.1569 32.8484 29.2846 33.7421 31.6171 33.7421C33.9496 33.7421 36.0772 32.8483 37.676 31.3856C37.7133 31.3557 37.7483 31.3231 37.7809 31.288C39.5166 29.6489 40.6016 27.3278 40.6016 24.7578C40.6016 19.8038 36.5712 15.7734 31.6172 15.7734ZM31.6172 31.7891C30.0226 31.7891 28.5509 31.2547 27.37 30.3566C28.2283 28.8347 29.83 27.8828 31.6172 27.8828C33.4044 27.8828 35.0061 28.8347 35.8644 30.3566C34.6834 31.2547 33.2118 31.7891 31.6172 31.7891ZM30.0547 24.3672V23.7324C30.0547 22.8709 30.7557 22.1699 31.6172 22.1699C32.4787 22.1699 33.1797 22.8709 33.1797 23.7324V24.3672C33.1797 25.2287 32.4787 25.9297 31.6172 25.9297C30.7557 25.9297 30.0547 25.2287 30.0547 24.3672ZM37.2754 28.9261C36.5627 27.8671 35.5653 27.0311 34.3981 26.5143C34.8581 25.9198 35.1328 25.1752 35.1328 24.3672V23.7324C35.1328 21.7938 33.5558 20.2168 31.6172 20.2168C29.6786 20.2168 28.1016 21.7938 28.1016 23.7324V24.3672C28.1016 25.1752 28.3763 25.9198 28.8362 26.5143C27.6691 27.0311 26.6717 27.8671 25.959 28.9261C25.0968 27.7588 24.5859 26.3171 24.5859 24.7578C24.5859 20.8808 27.7401 17.7266 31.6172 17.7266C35.4942 17.7266 38.6484 20.8808 38.6484 24.7578C38.6484 26.3171 38.1376 27.7588 37.2754 28.9261ZM36.8906 53.2734H31.6172C31.0779 53.2734 30.6406 53.7106 30.6406 54.25C30.6406 54.7894 31.0779 55.2266 31.6172 55.2266H36.8906C37.4299 55.2266 37.8672 54.7894 37.8672 54.25C37.8672 53.7106 37.4299 53.2734 36.8906 53.2734ZM36.8906 47.8047H23.0234C22.4842 47.8047 22.0469 48.2419 22.0469 48.7812C22.0469 49.3206 22.4842 49.7578 23.0234 49.7578H36.8906C37.4299 49.7578 37.8672 49.3206 37.8672 48.7812C37.8672 48.2419 37.4299 47.8047 36.8906 47.8047ZM36.8906 42.3359H23.0234C22.4842 42.3359 22.0469 42.7731 22.0469 43.3125C22.0469 43.8519 22.4842 44.2891 23.0234 44.2891H36.8906C37.4299 44.2891 37.8672 43.8519 37.8672 43.3125C37.8672 42.7731 37.4299 42.3359 36.8906 42.3359ZM19.5429 37.1533C19.3591 36.9706 19.1107 36.8678 18.8516 36.8672C18.5946 36.8672 18.3427 36.9717 18.1611 37.1533C17.9795 37.335 17.875 37.5869 17.875 37.8438C17.875 38.1006 17.9794 38.3525 18.1611 38.5342C18.3448 38.7165 18.5928 38.8193 18.8516 38.8203C19.1094 38.8203 19.3604 38.7158 19.5429 38.5342C19.7245 38.3525 19.8291 38.1006 19.8291 37.8438C19.8291 37.5869 19.7246 37.335 19.5429 37.1533ZM19.5429 42.6221C19.359 42.4396 19.1106 42.3368 18.8516 42.3359C18.5946 42.3359 18.3438 42.4404 18.1611 42.6221C17.9795 42.8037 17.875 43.0557 17.875 43.3125C17.875 43.5693 17.9794 43.8213 18.1611 44.0029C18.3448 44.1853 18.5928 44.288 18.8516 44.2891C19.1094 44.2891 19.3604 44.1846 19.5429 44.0029C19.7245 43.8213 19.8291 43.5693 19.8291 43.3125C19.8291 43.0557 19.7246 42.8037 19.5429 42.6221ZM19.5429 48.0908C19.359 47.9083 19.1106 47.8055 18.8516 47.8047C18.5946 47.8047 18.3438 47.9092 18.1611 48.0908C17.9795 48.2725 17.875 48.5244 17.875 48.7812C17.875 49.0381 17.9794 49.29 18.1611 49.4717C18.3447 49.6542 18.5927 49.757 18.8516 49.7578C19.1094 49.7578 19.3613 49.6533 19.5429 49.4717C19.7245 49.29 19.8291 49.0381 19.8291 48.7812C19.8291 48.5244 19.7246 48.2725 19.5429 48.0908ZM36.8906 36.8672H23.0234C22.4842 36.8672 22.0469 37.3044 22.0469 37.8438C22.0469 38.3831 22.4842 38.8203 23.0234 38.8203H36.8906C37.4299 38.8203 37.8672 38.3831 37.8672 37.8438C37.8672 37.3044 37.4299 36.8672 36.8906 36.8672ZM58.8628 23.2266C57.9141 22.6788 56.8088 22.5333 55.7504 22.8168C54.6922 23.1004 53.8076 23.7791 53.26 24.7278L40.9707 46.0133C40.9034 46.13 40.8609 46.2594 40.8459 46.3933L39.9809 54.1417C39.9657 54.2782 39.9794 54.4164 40.0213 54.5472C40.0631 54.6781 40.1321 54.7986 40.2236 54.901C40.3152 55.0034 40.4274 55.0853 40.5527 55.1414C40.6781 55.1975 40.8139 55.2266 40.9513 55.2267C41.1597 55.2267 41.3627 55.1601 41.5305 55.0364L47.8082 50.413C47.9167 50.3331 48.0075 50.2316 48.0748 50.1149L60.364 28.8295C61.4948 26.8709 60.8214 24.3574 58.8628 23.2266ZM42.1695 52.14L42.6213 48.0939L45.4477 49.7258L42.1695 52.14ZM46.8717 48.2926L43.1505 46.1441L53.0123 29.0631L56.7335 31.2115L46.8717 48.2926ZM58.6726 27.8528L57.71 29.5201L53.9888 27.3717L54.9514 25.7044C55.0918 25.4596 55.2794 25.2451 55.5033 25.0732C55.7273 24.9014 55.983 24.7757 56.2559 24.7034C56.5283 24.6296 56.8127 24.6105 57.0925 24.6474C57.3723 24.6842 57.6421 24.7762 57.8861 24.9181C58.1309 25.0585 58.3455 25.2461 58.5173 25.47C58.6891 25.694 58.8148 25.9497 58.8871 26.2226C58.9609 26.495 58.98 26.7794 58.9431 27.0592C58.9063 27.339 58.8143 27.6088 58.6726 27.8528Z"/>
</mask>
<path d="M31.6172 15.7734C26.6632 15.7734 22.6328 19.8038 22.6328 24.7578C22.6328 27.3278 23.7178 29.6489 25.4533 31.288C25.4858 31.3228 25.5204 31.3557 25.5582 31.3856C27.1569 32.8484 29.2846 33.7421 31.6171 33.7421C33.9496 33.7421 36.0772 32.8483 37.676 31.3856C37.7133 31.3557 37.7483 31.3231 37.7809 31.288C39.5166 29.6489 40.6016 27.3278 40.6016 24.7578C40.6016 19.8038 36.5712 15.7734 31.6172 15.7734ZM31.6172 31.7891C30.0226 31.7891 28.5509 31.2547 27.37 30.3566C28.2283 28.8347 29.83 27.8828 31.6172 27.8828C33.4044 27.8828 35.0061 28.8347 35.8644 30.3566C34.6834 31.2547 33.2118 31.7891 31.6172 31.7891ZM30.0547 24.3672V23.7324C30.0547 22.8709 30.7557 22.1699 31.6172 22.1699C32.4787 22.1699 33.1797 22.8709 33.1797 23.7324V24.3672C33.1797 25.2287 32.4787 25.9297 31.6172 25.9297C30.7557 25.9297 30.0547 25.2287 30.0547 24.3672ZM37.2754 28.9261C36.5627 27.8671 35.5653 27.0311 34.3981 26.5143C34.8581 25.9198 35.1328 25.1752 35.1328 24.3672V23.7324C35.1328 21.7938 33.5558 20.2168 31.6172 20.2168C29.6786 20.2168 28.1016 21.7938 28.1016 23.7324V24.3672C28.1016 25.1752 28.3763 25.9198 28.8362 26.5143C27.6691 27.0311 26.6717 27.8671 25.959 28.9261C25.0968 27.7588 24.5859 26.3171 24.5859 24.7578C24.5859 20.8808 27.7401 17.7266 31.6172 17.7266C35.4942 17.7266 38.6484 20.8808 38.6484 24.7578C38.6484 26.3171 38.1376 27.7588 37.2754 28.9261ZM36.8906 53.2734H31.6172C31.0779 53.2734 30.6406 53.7106 30.6406 54.25C30.6406 54.7894 31.0779 55.2266 31.6172 55.2266H36.8906C37.4299 55.2266 37.8672 54.7894 37.8672 54.25C37.8672 53.7106 37.4299 53.2734 36.8906 53.2734ZM36.8906 47.8047H23.0234C22.4842 47.8047 22.0469 48.2419 22.0469 48.7812C22.0469 49.3206 22.4842 49.7578 23.0234 49.7578H36.8906C37.4299 49.7578 37.8672 49.3206 37.8672 48.7812C37.8672 48.2419 37.4299 47.8047 36.8906 47.8047ZM36.8906 42.3359H23.0234C22.4842 42.3359 22.0469 42.7731 22.0469 43.3125C22.0469 43.8519 22.4842 44.2891 23.0234 44.2891H36.8906C37.4299 44.2891 37.8672 43.8519 37.8672 43.3125C37.8672 42.7731 37.4299 42.3359 36.8906 42.3359ZM19.5429 37.1533C19.3591 36.9706 19.1107 36.8678 18.8516 36.8672C18.5946 36.8672 18.3427 36.9717 18.1611 37.1533C17.9795 37.335 17.875 37.5869 17.875 37.8438C17.875 38.1006 17.9794 38.3525 18.1611 38.5342C18.3448 38.7165 18.5928 38.8193 18.8516 38.8203C19.1094 38.8203 19.3604 38.7158 19.5429 38.5342C19.7245 38.3525 19.8291 38.1006 19.8291 37.8438C19.8291 37.5869 19.7246 37.335 19.5429 37.1533ZM19.5429 42.6221C19.359 42.4396 19.1106 42.3368 18.8516 42.3359C18.5946 42.3359 18.3438 42.4404 18.1611 42.6221C17.9795 42.8037 17.875 43.0557 17.875 43.3125C17.875 43.5693 17.9794 43.8213 18.1611 44.0029C18.3448 44.1853 18.5928 44.288 18.8516 44.2891C19.1094 44.2891 19.3604 44.1846 19.5429 44.0029C19.7245 43.8213 19.8291 43.5693 19.8291 43.3125C19.8291 43.0557 19.7246 42.8037 19.5429 42.6221ZM19.5429 48.0908C19.359 47.9083 19.1106 47.8055 18.8516 47.8047C18.5946 47.8047 18.3438 47.9092 18.1611 48.0908C17.9795 48.2725 17.875 48.5244 17.875 48.7812C17.875 49.0381 17.9794 49.29 18.1611 49.4717C18.3447 49.6542 18.5927 49.757 18.8516 49.7578C19.1094 49.7578 19.3613 49.6533 19.5429 49.4717C19.7245 49.29 19.8291 49.0381 19.8291 48.7812C19.8291 48.5244 19.7246 48.2725 19.5429 48.0908ZM36.8906 36.8672H23.0234C22.4842 36.8672 22.0469 37.3044 22.0469 37.8438C22.0469 38.3831 22.4842 38.8203 23.0234 38.8203H36.8906C37.4299 38.8203 37.8672 38.3831 37.8672 37.8438C37.8672 37.3044 37.4299 36.8672 36.8906 36.8672ZM58.8628 23.2266C57.9141 22.6788 56.8088 22.5333 55.7504 22.8168C54.6922 23.1004 53.8076 23.7791 53.26 24.7278L40.9707 46.0133C40.9034 46.13 40.8609 46.2594 40.8459 46.3933L39.9809 54.1417C39.9657 54.2782 39.9794 54.4164 40.0213 54.5472C40.0631 54.6781 40.1321 54.7986 40.2236 54.901C40.3152 55.0034 40.4274 55.0853 40.5527 55.1414C40.6781 55.1975 40.8139 55.2266 40.9513 55.2267C41.1597 55.2267 41.3627 55.1601 41.5305 55.0364L47.8082 50.413C47.9167 50.3331 48.0075 50.2316 48.0748 50.1149L60.364 28.8295C61.4948 26.8709 60.8214 24.3574 58.8628 23.2266ZM42.1695 52.14L42.6213 48.0939L45.4477 49.7258L42.1695 52.14ZM46.8717 48.2926L43.1505 46.1441L53.0123 29.0631L56.7335 31.2115L46.8717 48.2926ZM58.6726 27.8528L57.71 29.5201L53.9888 27.3717L54.9514 25.7044C55.0918 25.4596 55.2794 25.2451 55.5033 25.0732C55.7273 24.9014 55.983 24.7757 56.2559 24.7034C56.5283 24.6296 56.8127 24.6105 57.0925 24.6474C57.3723 24.6842 57.6421 24.7762 57.8861 24.9181C58.1309 25.0585 58.3455 25.2461 58.5173 25.47C58.6891 25.694 58.8148 25.9497 58.8871 26.2226C58.9609 26.495 58.98 26.7794 58.9431 27.0592C58.9063 27.339 58.8143 27.6088 58.6726 27.8528Z" fill="url(#paint2_linear_704_2273)"/>
<path d="M31.6172 15.7734C26.6632 15.7734 22.6328 19.8038 22.6328 24.7578C22.6328 27.3278 23.7178 29.6489 25.4533 31.288C25.4858 31.3228 25.5204 31.3557 25.5582 31.3856C27.1569 32.8484 29.2846 33.7421 31.6171 33.7421C33.9496 33.7421 36.0772 32.8483 37.676 31.3856C37.7133 31.3557 37.7483 31.3231 37.7809 31.288C39.5166 29.6489 40.6016 27.3278 40.6016 24.7578C40.6016 19.8038 36.5712 15.7734 31.6172 15.7734ZM31.6172 31.7891C30.0226 31.7891 28.5509 31.2547 27.37 30.3566C28.2283 28.8347 29.83 27.8828 31.6172 27.8828C33.4044 27.8828 35.0061 28.8347 35.8644 30.3566C34.6834 31.2547 33.2118 31.7891 31.6172 31.7891ZM30.0547 24.3672V23.7324C30.0547 22.8709 30.7557 22.1699 31.6172 22.1699C32.4787 22.1699 33.1797 22.8709 33.1797 23.7324V24.3672C33.1797 25.2287 32.4787 25.9297 31.6172 25.9297C30.7557 25.9297 30.0547 25.2287 30.0547 24.3672ZM37.2754 28.9261C36.5627 27.8671 35.5653 27.0311 34.3981 26.5143C34.8581 25.9198 35.1328 25.1752 35.1328 24.3672V23.7324C35.1328 21.7938 33.5558 20.2168 31.6172 20.2168C29.6786 20.2168 28.1016 21.7938 28.1016 23.7324V24.3672C28.1016 25.1752 28.3763 25.9198 28.8362 26.5143C27.6691 27.0311 26.6717 27.8671 25.959 28.9261C25.0968 27.7588 24.5859 26.3171 24.5859 24.7578C24.5859 20.8808 27.7401 17.7266 31.6172 17.7266C35.4942 17.7266 38.6484 20.8808 38.6484 24.7578C38.6484 26.3171 38.1376 27.7588 37.2754 28.9261ZM36.8906 53.2734H31.6172C31.0779 53.2734 30.6406 53.7106 30.6406 54.25C30.6406 54.7894 31.0779 55.2266 31.6172 55.2266H36.8906C37.4299 55.2266 37.8672 54.7894 37.8672 54.25C37.8672 53.7106 37.4299 53.2734 36.8906 53.2734ZM36.8906 47.8047H23.0234C22.4842 47.8047 22.0469 48.2419 22.0469 48.7812C22.0469 49.3206 22.4842 49.7578 23.0234 49.7578H36.8906C37.4299 49.7578 37.8672 49.3206 37.8672 48.7812C37.8672 48.2419 37.4299 47.8047 36.8906 47.8047ZM36.8906 42.3359H23.0234C22.4842 42.3359 22.0469 42.7731 22.0469 43.3125C22.0469 43.8519 22.4842 44.2891 23.0234 44.2891H36.8906C37.4299 44.2891 37.8672 43.8519 37.8672 43.3125C37.8672 42.7731 37.4299 42.3359 36.8906 42.3359ZM19.5429 37.1533C19.3591 36.9706 19.1107 36.8678 18.8516 36.8672C18.5946 36.8672 18.3427 36.9717 18.1611 37.1533C17.9795 37.335 17.875 37.5869 17.875 37.8438C17.875 38.1006 17.9794 38.3525 18.1611 38.5342C18.3448 38.7165 18.5928 38.8193 18.8516 38.8203C19.1094 38.8203 19.3604 38.7158 19.5429 38.5342C19.7245 38.3525 19.8291 38.1006 19.8291 37.8438C19.8291 37.5869 19.7246 37.335 19.5429 37.1533ZM19.5429 42.6221C19.359 42.4396 19.1106 42.3368 18.8516 42.3359C18.5946 42.3359 18.3438 42.4404 18.1611 42.6221C17.9795 42.8037 17.875 43.0557 17.875 43.3125C17.875 43.5693 17.9794 43.8213 18.1611 44.0029C18.3448 44.1853 18.5928 44.288 18.8516 44.2891C19.1094 44.2891 19.3604 44.1846 19.5429 44.0029C19.7245 43.8213 19.8291 43.5693 19.8291 43.3125C19.8291 43.0557 19.7246 42.8037 19.5429 42.6221ZM19.5429 48.0908C19.359 47.9083 19.1106 47.8055 18.8516 47.8047C18.5946 47.8047 18.3438 47.9092 18.1611 48.0908C17.9795 48.2725 17.875 48.5244 17.875 48.7812C17.875 49.0381 17.9794 49.29 18.1611 49.4717C18.3447 49.6542 18.5927 49.757 18.8516 49.7578C19.1094 49.7578 19.3613 49.6533 19.5429 49.4717C19.7245 49.29 19.8291 49.0381 19.8291 48.7812C19.8291 48.5244 19.7246 48.2725 19.5429 48.0908ZM36.8906 36.8672H23.0234C22.4842 36.8672 22.0469 37.3044 22.0469 37.8438C22.0469 38.3831 22.4842 38.8203 23.0234 38.8203H36.8906C37.4299 38.8203 37.8672 38.3831 37.8672 37.8438C37.8672 37.3044 37.4299 36.8672 36.8906 36.8672ZM58.8628 23.2266C57.9141 22.6788 56.8088 22.5333 55.7504 22.8168C54.6922 23.1004 53.8076 23.7791 53.26 24.7278L40.9707 46.0133C40.9034 46.13 40.8609 46.2594 40.8459 46.3933L39.9809 54.1417C39.9657 54.2782 39.9794 54.4164 40.0213 54.5472C40.0631 54.6781 40.1321 54.7986 40.2236 54.901C40.3152 55.0034 40.4274 55.0853 40.5527 55.1414C40.6781 55.1975 40.8139 55.2266 40.9513 55.2267C41.1597 55.2267 41.3627 55.1601 41.5305 55.0364L47.8082 50.413C47.9167 50.3331 48.0075 50.2316 48.0748 50.1149L60.364 28.8295C61.4948 26.8709 60.8214 24.3574 58.8628 23.2266ZM42.1695 52.14L42.6213 48.0939L45.4477 49.7258L42.1695 52.14ZM46.8717 48.2926L43.1505 46.1441L53.0123 29.0631L56.7335 31.2115L46.8717 48.2926ZM58.6726 27.8528L57.71 29.5201L53.9888 27.3717L54.9514 25.7044C55.0918 25.4596 55.2794 25.2451 55.5033 25.0732C55.7273 24.9014 55.983 24.7757 56.2559 24.7034C56.5283 24.6296 56.8127 24.6105 57.0925 24.6474C57.3723 24.6842 57.6421 24.7762 57.8861 24.9181C58.1309 25.0585 58.3455 25.2461 58.5173 25.47C58.6891 25.694 58.8148 25.9497 58.8871 26.2226C58.9609 26.495 58.98 26.7794 58.9431 27.0592C58.9063 27.339 58.8143 27.6088 58.6726 27.8528Z" stroke="url(#paint3_linear_704_2273)" stroke-width="0.4" mask="url(#path-2-outside-1_704_2273)"/>
<defs>
<linearGradient id="paint0_linear_704_2273" x1="7.60246" y1="28.303" x2="36.7072" y2="28.8638" gradientUnits="userSpaceOnUse">
<stop stop-color="#DA0202"/>
<stop offset="1" stop-color="#074BC9"/>
</linearGradient>
<linearGradient id="paint1_linear_704_2273" x1="7.60246" y1="28.303" x2="36.7072" y2="28.8638" gradientUnits="userSpaceOnUse">
<stop stop-color="#DA0202"/>
<stop offset="1" stop-color="#074BC9"/>
</linearGradient>
<linearGradient id="paint2_linear_704_2273" x1="14.4329" y1="29.8212" x2="44.6762" y2="30.5888" gradientUnits="userSpaceOnUse">
<stop stop-color="#DA0202"/>
<stop offset="1" stop-color="#074BC9"/>
</linearGradient>
<linearGradient id="paint3_linear_704_2273" x1="14.4329" y1="29.8212" x2="44.6762" y2="30.5888" gradientUnits="userSpaceOnUse">
<stop stop-color="#DA0202"/>
<stop offset="1" stop-color="#074BC9"/>
</linearGradient>
</defs>
</svg>
