<svg width="71" height="71" viewBox="0 0 71 71" fill="none" xmlns="http://www.w3.org/2000/svg">
<path d="M35.9131 57.8684H14.8605C13.8139 57.8673 12.8105 57.451 12.0705 56.711C11.3305 55.971 10.9142 54.9676 10.9131 53.9211V20.4386C10.9131 19.6175 11.2341 18.8447 11.8166 18.2632L18.6762 11.4035C18.9611 11.1166 19.3001 10.889 19.6735 10.7339C20.0469 10.5788 20.4473 10.4993 20.8517 10.5H46.4394C48.6157 10.5 50.3868 12.2711 50.3868 14.4474V38.1316C50.3868 38.4806 50.2481 38.8152 50.0014 39.062C49.7546 39.3087 49.4199 39.4474 49.071 39.4474C48.722 39.4474 48.3873 39.3087 48.1406 39.062C47.8938 38.8152 47.7552 38.4806 47.7552 38.1316V14.4474C47.7552 13.7219 47.1648 13.1316 46.4394 13.1316H20.8517C20.793 13.1315 20.7348 13.1431 20.6806 13.1657C20.6264 13.1882 20.5772 13.2214 20.5359 13.2632L13.6762 20.1228C13.6345 20.1641 13.6013 20.2133 13.5787 20.2675C13.5562 20.3217 13.5446 20.3799 13.5447 20.4386V53.9211C13.5447 54.6465 14.135 55.2368 14.8605 55.2368H35.9131C36.2621 55.2368 36.5967 55.3755 36.8435 55.6222C37.0902 55.869 37.2289 56.2037 37.2289 56.5526C37.2289 56.9016 37.0902 57.2363 36.8435 57.483C36.5967 57.7298 36.2621 57.8684 35.9131 57.8684Z" fill="url(#paint0_linear_704_2279)"/>
<path d="M18.3692 21.9035H12.2289C11.8799 21.9035 11.5452 21.7649 11.2985 21.5181C11.0517 21.2714 10.9131 20.9367 10.9131 20.5877C10.9131 20.2387 11.0517 19.9041 11.2985 19.6573C11.5452 19.4106 11.8799 19.2719 12.2289 19.2719H18.3692C19.0947 19.2719 19.685 18.6816 19.685 17.9561V11.8158C19.685 11.4668 19.8236 11.1321 20.0704 10.8854C20.3172 10.6386 20.6518 10.5 21.0008 10.5C21.3498 10.5 21.6844 10.6386 21.9312 10.8854C22.178 11.1321 22.3166 11.4668 22.3166 11.8158V17.9561C22.3166 20.1325 20.5455 21.9035 18.3692 21.9035ZM34.6306 19.3211H34.6219L26.6613 19.2719C26.3124 19.2708 25.9781 19.131 25.7322 18.8834C25.4863 18.6359 25.3488 18.3007 25.3499 17.9518C25.3511 17.6028 25.4908 17.2686 25.7384 17.0226C25.986 16.7767 26.3211 16.6392 26.6701 16.6404H26.678L34.6385 16.6895C34.9875 16.6906 35.3217 16.8304 35.5676 17.078C35.8136 17.3255 35.9511 17.6607 35.9499 18.0096C35.9488 18.3586 35.809 18.6928 35.5614 18.9388C35.3139 19.1847 34.9796 19.3222 34.6306 19.3211ZM42.9306 28.093H42.928L18.3008 28.0439C17.9518 28.0435 17.6173 27.9045 17.3708 27.6575C17.1243 27.4105 16.986 27.0757 16.9863 26.7268C16.9867 26.3778 17.1256 26.0432 17.3726 25.7967C17.6197 25.5502 17.9545 25.4119 18.3034 25.4123H18.3061L42.9333 25.4614C43.106 25.4616 43.2771 25.4958 43.4367 25.5621C43.5963 25.6283 43.7412 25.7254 43.8633 25.8477C43.9853 25.97 44.0821 26.1152 44.1481 26.2749C44.214 26.4346 44.2479 26.6057 44.2477 26.7785C44.2476 26.9513 44.2134 27.1224 44.1471 27.2819C44.0808 27.4415 43.9837 27.5865 43.8614 27.7085C43.7391 27.8306 43.594 27.9274 43.4343 27.9933C43.2746 28.0593 43.1034 28.0932 42.9306 28.093ZM42.9306 35.0614H42.928L18.3008 35.0123C17.9518 35.0119 17.6173 34.873 17.3708 34.626C17.1243 34.379 16.986 34.0441 16.9863 33.6952C16.9867 33.3462 17.1256 33.0117 17.3726 32.7652C17.6197 32.5186 17.9545 32.3804 18.3034 32.3807H18.3061L42.9333 32.4298C43.106 32.43 43.2771 32.4642 43.4367 32.5305C43.5963 32.5968 43.7412 32.6938 43.8633 32.8161C43.9853 32.9384 44.0821 33.0836 44.1481 33.2433C44.214 33.403 44.2479 33.5741 44.2477 33.7469C44.2476 33.9197 44.2134 34.0908 44.1471 34.2504C44.0808 34.4099 43.9837 34.5549 43.8614 34.6769C43.7391 34.799 43.594 34.8958 43.4343 34.9617C43.2746 35.0277 43.1034 35.0616 42.9306 35.0614ZM35.9131 42.0789H35.9096L18.2999 42.0298C17.951 42.0294 17.6165 41.8903 17.37 41.6432C17.1236 41.3961 16.9854 41.0612 16.9859 40.7123C16.9864 40.3633 17.1254 40.0288 17.3725 39.7824C17.6196 39.536 17.9545 39.3978 18.3034 39.3982H18.3078L35.9166 39.4474C36.2656 39.4478 36.6001 39.5869 36.8465 39.834C37.0929 40.0811 37.2311 40.4159 37.2306 40.7649C37.2302 41.1139 37.0911 41.4484 36.844 41.6948C36.5969 41.9412 36.2621 42.0794 35.9131 42.0789ZM24.5096 51.7772H24.4991L18.2938 51.7281C18.121 51.7275 17.95 51.6929 17.7906 51.6262C17.6312 51.5596 17.4864 51.4622 17.3647 51.3396C17.1187 51.092 16.9812 50.7569 16.9824 50.4079C16.9835 50.0589 17.1233 49.7247 17.3709 49.4788C17.6185 49.2328 17.9536 49.0953 18.3026 49.0965H18.314L24.5201 49.1456C24.8691 49.147 25.2032 49.287 25.449 49.5347C25.6947 49.7825 25.832 50.1177 25.8306 50.4667C25.8292 50.8156 25.6893 51.1498 25.4415 51.3955C25.1938 51.6413 24.8585 51.7786 24.5096 51.7772ZM49.071 60.5C42.5412 60.5 37.2289 55.1877 37.2289 48.6579C37.2289 42.1281 42.5412 36.8158 49.071 36.8158C55.6008 36.8158 60.9131 42.1281 60.9131 48.6579C60.9131 55.1877 55.6008 60.5 49.071 60.5ZM49.071 39.4474C43.992 39.4474 39.8605 43.5789 39.8605 48.6579C39.8605 53.7368 43.992 57.8684 49.071 57.8684C54.1499 57.8684 58.2815 53.7368 58.2815 48.6579C58.2815 43.5789 54.1499 39.4474 49.071 39.4474Z" fill="url(#paint1_linear_704_2279)"/>
<path d="M43.5833 48.7588C43.3855 48.9566 43.2734 49.2241 43.2709 49.5037C43.2685 49.7834 43.376 50.0528 43.5703 50.254L43.5703 50.254L43.5721 50.2558L46.3218 53.0055C46.5218 53.2055 46.793 53.318 47.0759 53.318H47.1327V53.3183L47.1419 53.3177C47.293 53.3084 47.4404 53.2671 47.5742 53.1965C47.7081 53.1259 47.8254 53.0276 47.9183 52.9081L47.9184 52.9081L54.3343 44.659L54.3343 44.659L54.3355 44.6574C54.5048 44.4338 54.5793 44.1524 54.5427 43.8743C54.5061 43.5961 54.3614 43.3436 54.1399 43.1713C53.9184 42.9991 53.638 42.9211 53.3594 42.9541C53.0808 42.9871 52.8265 43.1286 52.6514 43.3479L52.6502 43.3494L46.9801 50.645L45.0802 48.7476L45.0802 48.7476L45.0784 48.7459C44.8773 48.5516 44.6078 48.4441 44.3282 48.4465C44.0485 48.4489 43.781 48.5611 43.5833 48.7588ZM43.5833 48.7588L43.6894 48.8649M43.5833 48.7588C43.5833 48.7588 43.5833 48.7588 43.5833 48.7588L43.6894 48.8649M43.6894 48.8649C43.5194 49.0348 43.423 49.2647 43.4209 49.505C43.4188 49.7454 43.5112 49.9769 43.6782 50.1498L44.9742 48.8537C44.8013 48.6868 44.5698 48.5944 44.3295 48.5965C44.0892 48.5986 43.8593 48.695 43.6894 48.8649Z" fill="url(#paint2_linear_704_2279)" stroke="url(#paint3_linear_704_2279)" stroke-width="0.3"/>
<defs>
<linearGradient id="paint0_linear_704_2279" x1="7.75605" y1="27.366" x2="35.5023" y2="27.904" gradientUnits="userSpaceOnUse">
<stop stop-color="#DA0202"/>
<stop offset="1" stop-color="#074BC9"/>
</linearGradient>
<linearGradient id="paint1_linear_704_2279" x1="6.91417" y1="28.303" x2="42.0536" y2="29.1206" gradientUnits="userSpaceOnUse">
<stop stop-color="#DA0202"/>
<stop offset="1" stop-color="#074BC9"/>
</linearGradient>
<linearGradient id="paint2_linear_704_2279" x1="42.5427" y1="46.6827" x2="50.2591" y2="46.8784" gradientUnits="userSpaceOnUse">
<stop stop-color="#DA0202"/>
<stop offset="1" stop-color="#074BC9"/>
</linearGradient>
<linearGradient id="paint3_linear_704_2279" x1="42.5427" y1="46.6827" x2="50.2591" y2="46.8784" gradientUnits="userSpaceOnUse">
<stop stop-color="#DA0202"/>
<stop offset="1" stop-color="#074BC9"/>
</linearGradient>
</defs>
</svg>
