<svg width="21" height="20" viewBox="0 0 21 20" fill="none" xmlns="http://www.w3.org/2000/svg">
<path d="M16.9631 8.33317C16.9631 12.494 12.3473 16.8273 10.7973 18.1657C10.6529 18.2742 10.4771 18.333 10.2964 18.333C10.1158 18.333 9.93999 18.2742 9.79559 18.1657C8.24559 16.8273 3.62976 12.494 3.62976 8.33317C3.62976 6.56506 4.33214 4.86937 5.58238 3.61913C6.83262 2.36888 8.52832 1.6665 10.2964 1.6665C12.0645 1.6665 13.7602 2.36888 15.0105 3.61913C16.2607 4.86937 16.9631 6.56506 16.9631 8.33317Z" stroke="#DA0202" stroke-width="1.5" stroke-linecap="round" stroke-linejoin="round"/>
<path d="M10.2964 10.8332C11.6771 10.8332 12.7964 9.71388 12.7964 8.33317C12.7964 6.95246 11.6771 5.83317 10.2964 5.83317C8.91572 5.83317 7.79643 6.95246 7.79643 8.33317C7.79643 9.71388 8.91572 10.8332 10.2964 10.8332Z" stroke="#DA0202" stroke-width="1.5" stroke-linecap="round" stroke-linejoin="round"/>
</svg>
