<svg width="90" height="90" viewBox="0 0 90 90" fill="none" xmlns="http://www.w3.org/2000/svg">
<rect width="90" height="90" rx="45" fill="url(#paint0_linear_374_1470)"/>
<path d="M63.9032 49.0458H59.0552V48.1004C59.0552 46.3427 57.5985 44.9126 55.808 44.9126H48.3894C46.599 44.9126 45.1423 46.3427 45.1423 48.1004V48.6843C43.7967 46.1952 41.5465 44.3336 38.8534 43.4582C40.5384 42.0268 41.6056 39.9262 41.6056 37.587C41.6056 33.2841 37.9996 29.7835 33.5672 29.7835C29.1348 29.7835 25.5288 33.284 25.5288 37.587C25.5288 39.9278 26.5976 42.0297 28.2846 43.4613C26.3792 44.0857 24.66 45.2173 23.3372 46.7435C21.6366 48.7054 20.7001 51.1975 20.7001 53.7606V59.4715C20.7001 59.6611 20.7768 59.8428 20.9133 59.9769C21.0498 60.1109 21.235 60.1862 21.4281 60.1862H37.5511V66.6069C37.5511 68.092 38.7819 69.3002 40.2946 69.3002H63.9034C65.4161 69.3002 66.6468 68.092 66.6468 66.6069V51.739C66.6465 50.254 65.4159 49.0458 63.9032 49.0458ZM65.1905 51.739V54.4147L58.3842 58.7859H55.6838V58.779C55.6838 58.1732 55.1817 57.6803 54.5646 57.6803H53.9284V56.5226C53.9284 56.333 53.8517 56.1513 53.7152 56.0172C53.5787 55.8832 53.3935 55.8079 53.2004 55.8079H50.997C50.8039 55.8079 50.6188 55.8832 50.4822 56.0172C50.3457 56.1513 50.269 56.333 50.269 56.5226V57.6803H49.6328C49.0158 57.6803 48.5136 58.1732 48.5136 58.779V58.7859H45.8132L39.0071 54.4146V51.739C39.0071 51.0422 39.5845 50.4752 40.2945 50.4752H63.9033C64.613 50.4752 65.1905 51.0422 65.1905 51.739ZM51.725 61.321H52.4724V61.7328C52.4724 61.9317 52.3013 62.0997 52.0987 62.0997C51.8961 62.0997 51.7249 61.9317 51.7249 61.7328V61.321H51.725ZM49.9696 59.8916V59.1096H54.2278V59.8916H49.9696ZM52.4724 57.6803H51.725V57.2373H52.4724V57.6803ZM55.6436 49.0458H48.5538V48.2618H55.6436V49.0458ZM48.3893 46.342H55.8079C56.7956 46.342 57.5991 47.1308 57.5991 48.1004V49.0458H57.0996V48.1004C57.0996 47.4013 56.5201 46.8324 55.8079 46.8324H48.3893C47.6771 46.8324 47.0977 47.4012 47.0977 48.1004V49.0458H46.5982V48.1004C46.5982 47.1308 47.4017 46.342 48.3893 46.342ZM26.9847 37.587C26.9847 34.0723 29.9376 31.2129 33.5671 31.2129C37.1967 31.2129 40.1495 34.0722 40.1495 37.587C40.1495 41.1018 37.1967 43.9611 33.5671 43.9611C29.9376 43.9611 26.9847 41.1018 26.9847 37.587ZM22.156 58.7567V53.7605C22.156 49.2456 25.3924 45.3971 29.8842 44.5196C31.0239 45.093 32.2865 45.3916 33.5672 45.3904C34.8488 45.3916 36.1122 45.0927 37.2525 44.5185C39.9738 45.0514 42.3006 46.7029 43.6823 49.0457H40.2945C38.7818 49.0457 37.551 50.2539 37.551 51.7389V58.7566H22.156V58.7567ZM63.9032 67.8707H40.2944C39.5845 67.8707 39.007 67.3037 39.007 66.6068V56.1227L45.1976 60.0986C45.3161 60.1747 45.4545 60.2153 45.5961 60.2153H48.5135V60.2222C48.5135 60.8281 49.0157 61.321 49.6327 61.321H50.2689V61.7328C50.2689 62.7233 51.0897 63.5291 52.0987 63.5291C53.1076 63.5291 53.9284 62.7233 53.9284 61.7328V61.321H54.5646C55.1817 61.321 55.6838 60.8281 55.6838 60.2222V60.2153H58.6013C58.7428 60.2153 58.8813 60.1748 58.9997 60.0986L65.1905 56.1227V66.6068C65.1905 67.3038 64.613 67.8707 63.9032 67.8707ZM44.121 43.6385H47.7602C47.9533 43.6385 48.1384 43.5632 48.275 43.4292C48.4115 43.2952 48.4882 43.1134 48.4882 42.9238V37.0397C48.4882 36.8502 48.4115 36.6684 48.275 36.5343C48.1384 36.4003 47.9533 36.325 47.7602 36.325H44.121C43.9279 36.325 43.7427 36.4003 43.6062 36.5343C43.4696 36.6684 43.3929 36.8502 43.3929 37.0397V42.9238C43.3929 43.1134 43.4696 43.2952 43.6062 43.4292C43.7427 43.5632 43.9279 43.6385 44.121 43.6385ZM44.849 37.7545H47.0322V42.2092H44.849V37.7545ZM50.5742 33.6859C50.3811 33.6859 50.1959 33.7612 50.0594 33.8952C49.9229 34.0292 49.8462 34.211 49.8462 34.4006V42.9238C49.8462 43.1134 49.9229 43.2952 50.0594 43.4292C50.1959 43.5632 50.3811 43.6385 50.5742 43.6385H54.2134C54.4065 43.6385 54.5917 43.5632 54.7282 43.4292C54.8647 43.2952 54.9414 43.1134 54.9414 42.9238V34.4006C54.9414 34.211 54.8647 34.0292 54.7282 33.8952C54.5917 33.7612 54.4065 33.6859 54.2134 33.6859H50.5742ZM53.4854 42.2092H51.3022V35.1153H53.4854V42.2092ZM57.0276 31.0468C56.8345 31.0468 56.6493 31.1221 56.5128 31.2561C56.3763 31.3901 56.2996 31.5719 56.2996 31.7615V42.9238C56.2996 43.1134 56.3763 43.2952 56.5128 43.4292C56.6493 43.5632 56.8345 43.6385 57.0276 43.6385H60.6667C60.8598 43.6385 61.045 43.5632 61.1815 43.4292C61.3181 43.2952 61.3948 43.1134 61.3948 42.9238V31.7615C61.3948 31.5719 61.3181 31.3901 61.1815 31.2561C61.045 31.1221 60.8598 31.0468 60.6667 31.0468H57.0276ZM59.9387 42.2092H57.7556V32.4761H59.9387V42.2092ZM69.0548 28.022L66.5268 24.8578C66.3815 24.6748 66.1954 24.5269 65.9828 24.4253C65.7703 24.3238 65.5369 24.2714 65.3005 24.272H65.3004C64.8185 24.272 64.3715 24.4855 64.0741 24.8577L61.5461 28.022C61.2736 28.363 61.2243 28.8166 61.4173 29.2059C61.6101 29.5952 62.0042 29.837 62.4457 29.837H62.7528V42.9238C62.7528 43.1134 62.8295 43.2952 62.966 43.4292C63.1026 43.5632 63.2877 43.6385 63.4808 43.6385H67.1201C67.3131 43.6385 67.4983 43.5632 67.6348 43.4292C67.7714 43.2952 67.8481 43.1134 67.8481 42.9238V29.837H68.1552C68.5966 29.837 68.9906 29.5953 69.1835 29.206C69.3765 28.8167 69.3273 28.3631 69.0548 28.022ZM67.1201 28.4076C66.927 28.4076 66.7418 28.4829 66.6053 28.617C66.4688 28.751 66.3921 28.9328 66.3921 29.1223V42.2092H64.2088V29.1223C64.2088 28.9328 64.1321 28.751 63.9956 28.617C63.8591 28.4829 63.6739 28.4076 63.4808 28.4076H63.0885L65.2198 25.7399C65.2402 25.7144 65.2673 25.7015 65.3004 25.7015C65.3335 25.7015 65.3606 25.7144 65.381 25.7399L67.5124 28.4076H67.1201ZM45.0591 33.3142H45.0642C51.2143 33.2732 56.082 31.0316 59.9267 26.4653L60.5723 26.7376C60.9518 26.898 61.3833 26.8333 61.6981 26.5688C62.0107 26.3059 62.1408 25.8984 62.0376 25.5054L60.9849 21.4929C60.9445 21.3365 60.8678 21.1914 60.7608 21.0689C60.6539 20.9464 60.5195 20.8498 60.3683 20.7866C60.2175 20.7225 60.0538 20.6934 59.8897 20.7015C59.7257 20.7097 59.5657 20.755 59.4224 20.8339L55.7328 22.8461C55.3715 23.043 55.1601 23.4161 55.1809 23.8196C55.2019 24.2255 55.4507 24.5772 55.8305 24.7375L56.0145 24.8151C54.7384 26.6449 51.7423 29.5084 44.8153 31.926C44.6537 31.9825 44.5176 32.0933 44.431 32.2387C44.3444 32.3841 44.313 32.5549 44.3421 32.7208C44.3713 32.8868 44.4592 33.0373 44.5904 33.1459C44.7215 33.2544 44.8875 33.314 45.0591 33.3142ZM57.7148 24.8301C57.7638 24.7427 57.7936 24.6462 57.8024 24.5469C57.8111 24.4475 57.7986 24.3475 57.7656 24.2532C57.7326 24.1589 57.6798 24.0724 57.6108 23.9993C57.5417 23.9262 57.4578 23.8681 57.3644 23.8287L57.119 23.7252L59.698 22.3187L60.4339 25.1235L59.9944 24.938C59.8471 24.8759 59.6831 24.8633 59.5278 24.902C59.3724 24.9407 59.2344 25.0287 59.1352 25.1522C57.3972 27.3163 54.7112 30.0224 50.1324 31.2396C54.8712 28.8307 56.8846 26.3108 57.7148 24.8301Z" fill="url(#paint1_linear_374_1470)"/>
<defs>
<linearGradient id="paint0_linear_374_1470" x1="45" y1="90.0017" x2="45" y2="0.00168998" gradientUnits="userSpaceOnUse">
<stop stop-color="#FFEBEB"/>
<stop offset="1" stop-color="white"/>
</linearGradient>
<linearGradient id="paint1_linear_374_1470" x1="14.9359" y1="97.5964" x2="96.1619" y2="88.4674" gradientUnits="userSpaceOnUse">
<stop stop-color="#CC6B7F"/>
<stop offset="1" stop-color="#93B9FF"/>
</linearGradient>
</defs>
</svg>
