<svg width="21" height="21" viewBox="0 0 21 21" fill="none" xmlns="http://www.w3.org/2000/svg">
<path d="M18.6416 14.4389V16.8821C18.6425 17.1089 18.596 17.3334 18.5052 17.5412C18.4143 17.749 18.2811 17.9356 18.1139 18.0889C17.9468 18.2423 17.7495 18.359 17.5346 18.4317C17.3198 18.5043 17.0921 18.5313 16.8662 18.5109C14.3602 18.2386 11.953 17.3823 9.83799 16.0107C7.87027 14.7603 6.20199 13.0921 4.95162 11.1243C3.57528 8.99975 2.71875 6.58083 2.45143 4.06354C2.43108 3.83834 2.45785 3.61136 2.53002 3.39706C2.6022 3.18277 2.71821 2.98585 2.87066 2.81884C3.02311 2.65183 3.20866 2.5184 3.41551 2.42704C3.62235 2.33567 3.84595 2.28838 4.07208 2.28816H6.51526C6.91049 2.28427 7.29365 2.42423 7.59332 2.68195C7.893 2.93967 8.08873 3.29756 8.14405 3.68892C8.24717 4.47079 8.43841 5.23849 8.71412 5.97737C8.8237 6.26886 8.84741 6.58565 8.78246 6.89021C8.7175 7.19476 8.56661 7.47432 8.34765 7.69574L7.31337 8.73002C8.4727 10.7689 10.1609 12.457 12.1997 13.6164L13.234 12.5821C13.4554 12.3631 13.735 12.2122 14.0395 12.1473C14.3441 12.0823 14.6609 12.1061 14.9524 12.2156C15.6913 12.4913 16.459 12.6826 17.2408 12.7857C17.6364 12.8415 17.9977 13.0408 18.256 13.3456C18.5143 13.6504 18.6515 14.0395 18.6416 14.4389Z" stroke="url(#paint0_linear_956_7480)" stroke-width="1.22159" stroke-linecap="round" stroke-linejoin="round"/>
<defs>
<linearGradient id="paint0_linear_956_7480" x1="1.1494" y1="8.06674" x2="12.5327" y2="8.33108" gradientUnits="userSpaceOnUse">
<stop stop-color="#DA0202"/>
<stop offset="1" stop-color="#074BC9"/>
</linearGradient>
</defs>
</svg>
