<svg width="29" height="28" viewBox="0 0 29 28" fill="none" xmlns="http://www.w3.org/2000/svg">
<rect x="0.592651" width="28" height="28" rx="14" fill="#2FA8DF"/>
<path d="M19.9613 8.61709L19.7309 8.70065L7.22483 13.2065C7.1362 13.2339 7.05918 13.29 7.00582 13.3659C6.95246 13.4418 6.9258 13.5332 6.93 13.6259C6.93419 13.7185 6.96902 13.8072 7.02902 13.8779C7.08902 13.9487 7.1708 13.9975 7.26154 14.0168L10.4988 14.9031L11.1028 16.6755L11.7067 18.448C11.7414 18.5349 11.7967 18.612 11.868 18.6726C11.9392 18.7333 12.0242 18.7756 12.1155 18.7959C12.2069 18.8163 12.3018 18.814 12.392 18.7893C12.4823 18.7647 12.5651 18.7183 12.6334 18.6544L14.3059 17.0743L17.59 19.3013C17.9914 19.5748 18.5636 19.3722 18.6662 18.9215L20.8412 9.31089C20.9476 8.83485 20.4462 8.44364 19.9613 8.61709ZM18.3648 10.7504L12.7144 15.369L12.4486 15.5867C12.3902 15.633 12.352 15.7002 12.3422 15.7741L12.2827 16.2653L12.1194 17.6453C12.1207 17.6621 12.1154 17.6787 12.1044 17.6916C12.0935 17.7044 12.0779 17.7123 12.0612 17.7137C12.0444 17.715 12.0277 17.7097 12.0149 17.6987C12.0021 17.6878 11.9941 17.6722 11.9928 17.6555L11.5332 16.2767L11.0584 14.8651C11.0384 14.8016 11.041 14.7331 11.066 14.6714C11.0909 14.6097 11.1366 14.5587 11.1952 14.527L17.0747 11.1568L18.1813 10.5238C18.3421 10.4301 18.5066 10.6339 18.3648 10.7504Z" fill="white"/>
</svg>
