<svg width="28" height="28" viewBox="0 0 28 28" fill="none" xmlns="http://www.w3.org/2000/svg">
  <rect width="28" height="28" rx="14" fill="#269F2E" />
  <path d="M18.629 9.36897C17.5365 8.26564 16.0858 7.58899 14.5384 7.4611C12.991 7.33321 11.4488 7.76248 10.1901 8.67149C8.93131 9.5805 8.03882 10.9094 7.67357 12.4185C7.30833 13.9276 7.49438 15.5175 8.19816 16.9015L7.50731 20.2556C7.50014 20.2889 7.49994 20.3234 7.50671 20.3569C7.51349 20.3904 7.52709 20.4221 7.54668 20.4501C7.57538 20.4925 7.61634 20.5252 7.6641 20.5437C7.71185 20.5623 7.76413 20.5658 7.81396 20.5539L11.1012 19.7747C12.4813 20.4607 14.06 20.6348 15.5564 20.266C17.0528 19.8972 18.3699 19.0095 19.2732 17.7608C20.1766 16.5121 20.6076 14.9834 20.4896 13.4468C20.3716 11.9101 19.7123 10.4651 18.629 9.36897ZM17.604 17.5494C16.8482 18.3032 15.8748 18.8007 14.8212 18.972C13.7676 19.1432 12.6868 18.9795 11.7312 18.504L11.273 18.2773L9.2577 18.7545L9.26367 18.7295L9.68128 16.7011L9.45697 16.2584C8.96867 15.2994 8.79641 14.2105 8.96488 13.1476C9.13335 12.0847 9.63389 11.1024 10.3948 10.3414C11.3509 9.38561 12.6475 8.84867 13.9994 8.84867C15.3513 8.84867 16.6479 9.38561 17.604 10.3414C17.6122 10.3508 17.6209 10.3595 17.6303 10.3677C18.5745 11.3259 19.1016 12.6186 19.0967 13.964C19.0918 15.3093 18.5552 16.5981 17.604 17.5494Z" fill="white" />
  <path d="M17.4255 16.0613C17.1785 16.4503 16.7884 16.9263 16.298 17.0445C15.4389 17.2521 14.1204 17.0516 12.4798 15.522L12.4595 15.5041C11.0169 14.1665 10.6423 13.0533 10.733 12.1703C10.7831 11.6692 11.2007 11.2158 11.5527 10.9199C11.6083 10.8724 11.6743 10.8386 11.7454 10.8211C11.8164 10.8037 11.8906 10.8031 11.9619 10.8195C12.0332 10.8358 12.0997 10.8686 12.156 10.9153C12.2124 10.9619 12.2571 11.0211 12.2865 11.0881L12.8174 12.2813C12.8519 12.3586 12.8647 12.4439 12.8544 12.528C12.8441 12.6121 12.8111 12.6918 12.759 12.7586L12.4905 13.107C12.4329 13.1789 12.3982 13.2664 12.3907 13.3583C12.3833 13.4502 12.4035 13.5421 12.4488 13.6224C12.5991 13.8861 12.9594 14.2739 13.3592 14.633C13.8078 15.0387 14.3053 15.4098 14.6203 15.5363C14.7046 15.5707 14.7973 15.5791 14.8864 15.5604C14.9755 15.5417 15.057 15.4967 15.1203 15.4313L15.4317 15.1175C15.4918 15.0582 15.5665 15.016 15.6483 14.995C15.73 14.974 15.8159 14.9751 15.897 14.9982L17.1582 15.3561C17.2278 15.3775 17.2916 15.4144 17.3447 15.4642C17.3978 15.514 17.4388 15.5752 17.4646 15.6432C17.4904 15.7113 17.5002 15.7843 17.4935 15.8568C17.4867 15.9292 17.4635 15.9992 17.4255 16.0613Z" fill="white" />
</svg>
