<svg width="443" height="526" viewBox="0 0 443 526" fill="none" xmlns="http://www.w3.org/2000/svg">
  <g filter="url(#filter0_d_374_1466)">
    <path fill-rule="evenodd" clip-rule="evenodd" d="M265.31 27.1277C275.242 41.3601 289.117 55 306.472 55H405C424.33 55 440 70.67 440 90V488C440 507.33 424.33 523 405 523H38C18.67 523 3 507.33 3 488V90C3 70.67 18.67 55 38 55H135.528C152.883 55 166.758 41.3601 176.69 27.1277C186.933 12.4499 202.971 3 221 3C239.029 3 255.067 12.4499 265.31 27.1277Z" fill="white" />
  </g>
  <defs>
    <filter id="filter0_d_374_1466" x="0" y="0" width="443" height="526" filterUnits="userSpaceOnUse" color-interpolation-filters="sRGB">
      <feFlood flood-opacity="0" result="BackgroundImageFix" />
      <feColorMatrix in="SourceAlpha" type="matrix" values="0 0 0 0 0 0 0 0 0 0 0 0 0 0 0 0 0 0 127 0" result="hardAlpha" />
      <feOffset />
      <feGaussianBlur stdDeviation="1.5" />
      <feComposite in2="hardAlpha" operator="out" />
      <feColorMatrix type="matrix" values="0 0 0 0 0 0 0 0 0 0 0 0 0 0 0 0 0 0 0.2 0" />
      <feBlend mode="normal" in2="BackgroundImageFix" result="effect1_dropShadow_374_1466" />
      <feBlend mode="normal" in="SourceGraphic" in2="effect1_dropShadow_374_1466" result="shape" />
    </filter>
  </defs>
</svg>
