<svg width="324" height="407" viewBox="0 0 324 407" fill="none" xmlns="http://www.w3.org/2000/svg">
<g filter="url(#filter0_d_738_2249)">
<path fill-rule="evenodd" clip-rule="evenodd" d="M71.9024 54.3555C89.1894 54.3555 103.112 40.7177 113.637 27.0037C124.604 12.713 141.859 3.5 161.265 3.5C180.671 3.5 197.925 12.713 208.892 27.0038C219.417 40.7177 233.34 54.3555 250.627 54.3555H286C305.33 54.3555 321 70.0255 321 89.3555V368.355C321 387.685 305.33 403.355 286 403.355H38C18.67 403.355 3 387.685 3 368.355V89.3555C3 70.0255 18.67 54.3555 38 54.3555H71.9024Z" fill="white"/>
</g>
<defs>
<filter id="filter0_d_738_2249" x="0" y="0.5" width="324" height="405.855" filterUnits="userSpaceOnUse" color-interpolation-filters="sRGB">
<feFlood flood-opacity="0" result="BackgroundImageFix"/>
<feColorMatrix in="SourceAlpha" type="matrix" values="0 0 0 0 0 0 0 0 0 0 0 0 0 0 0 0 0 0 127 0" result="hardAlpha"/>
<feOffset/>
<feGaussianBlur stdDeviation="1.5"/>
<feComposite in2="hardAlpha" operator="out"/>
<feColorMatrix type="matrix" values="0 0 0 0 0 0 0 0 0 0 0 0 0 0 0 0 0 0 0.2 0"/>
<feBlend mode="normal" in2="BackgroundImageFix" result="effect1_dropShadow_738_2249"/>
<feBlend mode="normal" in="SourceGraphic" in2="effect1_dropShadow_738_2249" result="shape"/>
</filter>
</defs>
</svg>
