<svg width="20" height="20" viewBox="0 0 20 20" fill="none" xmlns="http://www.w3.org/2000/svg">
<path d="M7.40161 10L9.40161 12L13.4016 8" fill="white"/>
<path d="M3.40161 1H17.4016C18.5062 1 19.4016 1.89543 19.4016 3V17C19.4016 18.1046 18.5062 19 17.4016 19H3.40161C2.29704 19 1.40161 18.1046 1.40161 17V3C1.40161 1.89543 2.29704 1 3.40161 1Z" fill="white"/>
<path d="M7.40161 10L9.40161 12L13.4016 8M3.40161 1H17.4016C18.5062 1 19.4016 1.89543 19.4016 3V17C19.4016 18.1046 18.5062 19 17.4016 19H3.40161C2.29704 19 1.40161 18.1046 1.40161 17V3C1.40161 1.89543 2.29704 1 3.40161 1Z" stroke="#074BC9" stroke-linecap="round" stroke-linejoin="round"/>
</svg>
