<svg width="128" height="41" viewBox="0 0 128 41" fill="none" xmlns="http://www.w3.org/2000/svg">
<path d="M12.5143 29V12.2727H19.2117C20.4423 12.2727 21.4687 12.4551 22.2909 12.82C23.1131 13.1848 23.7311 13.6912 24.1449 14.3391C24.5588 14.9817 24.7657 15.7222 24.7657 16.5607C24.7657 17.2141 24.635 17.7886 24.3736 18.2841C24.1123 18.7741 23.7529 19.1771 23.2955 19.4929C22.8436 19.8033 22.3263 20.0238 21.7437 20.1545V20.3178C22.3807 20.3451 22.977 20.5247 23.5324 20.8569C24.0932 21.189 24.5479 21.6546 24.8964 22.2536C25.2449 22.8471 25.4191 23.5549 25.4191 24.3771C25.4191 25.2647 25.1986 26.0569 24.7575 26.7539C24.3219 27.4454 23.6767 27.9927 22.8218 28.3956C21.9669 28.7985 20.9133 29 19.6609 29H12.5143ZM16.0508 26.1087H18.934C19.9196 26.1087 20.6383 25.9208 21.0903 25.5451C21.5422 25.1639 21.7682 24.6576 21.7682 24.0259C21.7682 23.5631 21.6565 23.1547 21.4333 22.8008C21.2101 22.4469 20.8915 22.1692 20.4777 21.9677C20.0693 21.7662 19.582 21.6655 19.0157 21.6655H16.0508V26.1087ZM16.0508 19.2724H18.6726C19.1573 19.2724 19.5874 19.188 19.9631 19.0192C20.3443 18.8449 20.6438 18.5999 20.8616 18.2841C21.0848 17.9683 21.1964 17.5898 21.1964 17.1488C21.1964 16.5444 20.9814 16.0571 20.5512 15.6868C20.1265 15.3165 19.5221 15.1314 18.738 15.1314H16.0508V19.2724ZM44.0832 29L38.7089 21.8697H37.5001V29H33.9636V12.2727H37.5001V18.9538H38.2107L43.7647 12.2727H48.167L41.6411 20.032L48.4692 29H44.0832ZM53.5909 29H49.8011L55.5756 12.2727H60.1332L65.8995 29H62.1097L57.9197 16.0952H57.7891L53.5909 29ZM53.354 22.4251H62.3058V25.1857H53.354V22.4251ZM67.4662 33.0348V26.1822H68.6015C68.9881 25.9045 69.342 25.5124 69.6633 25.006C69.9846 24.4942 70.2595 23.7891 70.4882 22.8906C70.7169 21.9867 70.8803 20.8052 70.9783 19.3459L71.452 12.2727H82.5191V26.1822H84.3487V33.0185H80.9509V29H70.8639V33.0348H67.4662ZM72.6853 26.1822H79.1214V15.1886H74.6374L74.376 19.3459C74.3052 20.4512 74.1882 21.4313 74.0248 22.2862C73.8669 23.1411 73.6736 23.8898 73.4449 24.5323C73.2217 25.1694 72.9685 25.7193 72.6853 26.1822ZM86.9588 29V12.2727H93.5582C94.8269 12.2727 95.9078 12.515 96.8008 12.9996C97.6938 13.4788 98.3744 14.1458 98.8427 15.0007C99.3164 15.8501 99.5533 16.8303 99.5533 17.9411C99.5533 19.0518 99.3137 20.032 98.8345 20.8814C98.3553 21.7308 97.6611 22.3924 96.7518 22.8661C95.8479 23.3398 94.7534 23.5767 93.4684 23.5767H89.2621V20.7425H92.8966C93.5773 20.7425 94.1381 20.6255 94.5792 20.3913C95.0257 20.1518 95.3578 19.8223 95.5756 19.4031C95.7989 18.9783 95.9105 18.491 95.9105 17.9411C95.9105 17.3857 95.7989 16.901 95.5756 16.4872C95.3578 16.0679 95.0257 15.744 94.5792 15.5153C94.1327 15.2811 93.5664 15.1641 92.8803 15.1641H90.4954V29H86.9588ZM102.31 29V12.2727H113.582V15.1886H105.847V19.1744H113.002V22.0902H105.847V26.0842H113.614V29H102.31Z" fill="#DA0202"/>
<path d="M115.286 2.43652H125.286C125.68 2.43652 126 2.75632 126 3.15081V12.4365" stroke="#2D2C3D" stroke-width="2.85714"/>
<path d="M114.714 39.0078H124.714C125.109 39.0078 125.429 38.688 125.429 38.2935V29.0078" stroke="#2D2C3D" stroke-width="2.85714"/>
<path d="M12.7142 39.0078H2.71423C2.31974 39.0078 1.99995 38.688 1.99995 38.2935V29.0078" stroke="#2D2C3D" stroke-width="2.85714"/>
<path d="M12.7144 2.00781H2.71435C2.31987 2.00781 2.00007 2.32761 2.00007 2.7221V12.0078" stroke="#2D2C3D" stroke-width="2.85714"/>
</svg>
