<svg width="130" height="40" viewBox="0 0 130 40" fill="none" xmlns="http://www.w3.org/2000/svg">
<path d="M11.0185 28.4297V12.3297H18.5165C20.3871 12.3297 21.8438 12.69 22.8865 13.4107C23.9291 14.1314 24.4505 15.1587 24.4505 16.4927C24.4505 17.8114 23.9598 18.8387 22.9785 19.5747C21.9971 20.2954 20.6938 20.6557 19.0685 20.6557L19.5055 19.6897C21.3148 19.6897 22.7178 20.05 23.7145 20.7707C24.7111 21.4914 25.2095 22.534 25.2095 23.8987C25.2095 25.3094 24.6728 26.421 23.5995 27.2337C22.5415 28.031 20.9928 28.4297 18.9535 28.4297H11.0185ZM14.7215 25.6697H18.8155C19.6741 25.6697 20.3258 25.501 20.7705 25.1637C21.2151 24.8264 21.4375 24.305 21.4375 23.5997C21.4375 22.925 21.2151 22.4267 20.7705 22.1047C20.3258 21.7674 19.6741 21.5987 18.8155 21.5987H14.7215V25.6697ZM14.7215 18.9997H18.1945C19.0071 18.9997 19.6205 18.8387 20.0345 18.5167C20.4485 18.1794 20.6555 17.6887 20.6555 17.0447C20.6555 16.4007 20.4485 15.9177 20.0345 15.5957C19.6205 15.2584 19.0071 15.0897 18.1945 15.0897H14.7215V18.9997ZM46.0088 28.4297L40.9948 20.6787L44.0078 18.8617L50.2408 28.4297H46.0088ZM35.5438 28.4297V12.3297H39.2468V28.4297H35.5438ZM38.1658 21.9437V18.8387H43.7778V21.9437H38.1658ZM44.3528 20.7937L40.9258 20.3797L46.1468 12.3297H50.0798L44.3528 20.7937ZM50.3149 28.4297L57.4909 12.3297H61.1709L68.3699 28.4297H64.4599L58.5719 14.2157H60.0439L54.1329 28.4297H50.3149ZM53.9029 24.9797L54.8919 22.1507H63.1719L64.1839 24.9797H53.9029ZM81.7267 26.7737V15.3657H76.2067L76.1377 17.7117C76.0917 18.7084 76.0227 19.6514 75.9307 20.5407C75.8541 21.43 75.7314 22.2427 75.5627 22.9787C75.3941 23.6994 75.1717 24.3127 74.8957 24.8187C74.6351 25.3247 74.3054 25.685 73.9067 25.8997L69.9277 25.3937C70.4797 25.409 70.9321 25.2174 71.2847 24.8187C71.6527 24.42 71.9441 23.8604 72.1587 23.1397C72.3734 22.4037 72.5267 21.545 72.6187 20.5637C72.7261 19.5824 72.8027 18.5167 72.8487 17.3667L73.0327 12.3297H85.4067V26.7737H81.7267ZM69.3987 31.7647L69.4217 25.3937H87.6607V31.7647H84.2107V28.4297H72.8487V31.7647H69.3987ZM90.629 28.4297V12.3297H97.598C99.0393 12.3297 100.281 12.5674 101.324 13.0427C102.367 13.5027 103.172 14.1697 103.739 15.0437C104.306 15.9177 104.59 16.9604 104.59 18.1717C104.59 19.3677 104.306 20.4027 103.739 21.2767C103.172 22.1507 102.367 22.8254 101.324 23.3007C100.281 23.7607 99.0393 23.9907 97.598 23.9907H92.699L94.355 22.3117V28.4297H90.629ZM94.355 22.7257L92.699 20.9547H97.391C98.541 20.9547 99.3997 20.7094 99.967 20.2187C100.534 19.728 100.818 19.0457 100.818 18.1717C100.818 17.2824 100.534 16.5924 99.967 16.1017C99.3997 15.611 98.541 15.3657 97.391 15.3657H92.699L94.355 13.5947V22.7257ZM110.935 18.8157H118.686V21.7137H110.935V18.8157ZM111.211 25.4397H119.974V28.4297H107.508V12.3297H119.675V15.3197H111.211V25.4397Z" fill="white"/>
<path d="M117.286 1.86523H127.286C127.68 1.86523 128 2.18503 128 2.57952V11.8652" stroke="white" stroke-width="2.85714"/>
<path d="M116.714 38.4375H126.714C127.109 38.4375 127.429 38.1177 127.429 37.7232V28.4375" stroke="white" stroke-width="2.85714"/>
<path d="M12.7142 38.4375H2.71423C2.31974 38.4375 1.99995 38.1177 1.99995 37.7232V28.4375" stroke="white" stroke-width="2.85714"/>
<path d="M12.7144 1.4375H2.71435C2.31987 1.4375 2.00007 1.7573 2.00007 2.15179V11.4375" stroke="white" stroke-width="2.85714"/>
</svg>
