<svg width="123" height="124" viewBox="0 0 123 124" fill="none" xmlns="http://www.w3.org/2000/svg">
<path opacity="0.5" d="M122.849 62C122.849 95.8665 95.3948 123.321 61.5283 123.321C27.6618 123.321 0.20752 95.8665 0.20752 62C0.20752 28.1334 27.6618 0.679199 61.5283 0.679199C95.3948 0.679199 122.849 28.1334 122.849 62Z" fill="url(#paint0_linear_374_1316)"/>
<path d="M116.279 61.9997C116.279 92.2377 91.7662 116.75 61.5283 116.75C31.2903 116.75 6.77759 92.2377 6.77759 61.9997C6.77759 31.7617 31.2903 7.24902 61.5283 7.24902C91.7662 7.24902 116.279 31.7617 116.279 61.9997Z" fill="url(#paint1_linear_374_1316)"/>
<path d="M80.3312 58.5157C83.001 60.0644 83.001 63.9362 80.3312 65.4849L53.3 81.1655C50.6303 82.7142 47.2931 80.7783 47.2931 77.6809L47.2931 46.3197C47.2931 43.2223 50.6303 41.2864 53.3 42.8351L80.3312 58.5157Z" fill="white"/>
<defs>
<linearGradient id="paint0_linear_374_1316" x1="59.9559" y1="-26.3741" x2="57.8873" y2="112.492" gradientUnits="userSpaceOnUse">
<stop offset="0.21032" stop-color="#DA0202"/>
<stop offset="1" stop-color="#084BC9"/>
</linearGradient>
<linearGradient id="paint1_linear_374_1316" x1="60.1244" y1="-16.9057" x2="58.2774" y2="107.082" gradientUnits="userSpaceOnUse">
<stop offset="0.21032" stop-color="#DA0202"/>
<stop offset="1" stop-color="#084BC9"/>
</linearGradient>
</defs>
</svg>
