<svg width="121" height="134" viewBox="0 0 121 134" fill="none" xmlns="http://www.w3.org/2000/svg">
<path d="M107.746 93.624L79.4048 26.7519C78.5802 24.8067 76.8762 23.367 74.8095 22.8703L47.7423 16.366C46.3435 16.0301 44.8736 16.1489 43.5468 16.7059L38.0233 19.0247C36.6965 19.5817 35.5846 20.5469 34.8506 21.778L20.641 45.6121C19.5563 47.4321 19.4032 49.6515 20.2273 51.5959L48.5683 118.469C50.005 121.859 53.9402 123.444 57.3579 122.009L104.159 102.36C107.576 100.926 109.183 97.0144 107.746 93.624ZM49.1089 37.5053C46.3655 38.6572 43.2067 37.3845 42.0537 34.6639C40.9008 31.9427 42.1894 28.8036 44.9327 27.6517C47.6759 26.5003 50.8342 27.7723 51.9871 30.4935C53.1408 33.2143 51.8516 36.3533 49.1089 37.5053Z" fill="url(#paint0_linear_936_8495)"/>
<path d="M77.2808 39.4839L56.4061 18.9229C55.3278 17.8606 53.9343 17.1727 52.4296 16.9603L46.1655 16.0761C44.6608 15.8637 43.1261 16.1381 41.7861 16.8591L15.8473 30.8117C13.8673 31.8771 12.509 33.8098 12.1844 36.0223L1.02206 112.098C0.456118 115.955 3.13931 119.525 7.01492 120.072L60.0925 127.564C63.9682 128.111 67.5695 125.429 68.1354 121.572L79.2978 45.4963C79.6224 43.2837 78.8742 41.0537 77.2808 39.4839ZM46.0196 38.861C42.9081 38.4217 40.7545 35.5565 41.2087 32.4611C41.6629 29.3657 44.5529 27.2124 47.6643 27.6516C50.7751 28.0908 52.9287 30.9561 52.4745 34.0514C52.0204 37.1468 49.1304 39.3001 46.0196 38.861Z" fill="url(#paint1_linear_936_8495)"/>
<path d="M47.2596 29.9818C46.4943 29.8733 45.9645 29.1653 46.0763 28.4004L49.3241 6.16622C49.4358 5.40132 50.1467 4.86922 50.912 4.97773C51.6773 5.08624 52.2071 5.79428 52.0953 6.55918L48.8476 28.7934C48.7358 29.5583 48.0249 30.0904 47.2596 29.9818Z" fill="#2D2C3D"/>
<path d="M38.0196 71.9127C38.983 65.3477 36.3338 61.1909 31.491 60.5074C26.9142 59.8614 22.5685 63.193 21.5585 70.0758C20.5939 77.0191 23.8141 80.9862 28.1248 81.5946C32.595 82.2255 36.9551 79.1662 38.0196 71.9127ZM25.307 70.4428C25.9441 66.1014 27.9925 62.8778 30.9195 63.2909C34.1657 63.7491 34.877 67.4161 34.2632 71.5988C33.595 76.1519 31.7296 79.2392 28.643 78.8036C25.716 78.3905 24.5558 74.8222 25.307 70.4428Z" fill="white"/>
<path d="M50.8038 63.9077L27.1167 94.2386C26.5001 95.0283 26.967 96.1824 27.9599 96.3226C28.4256 96.3883 28.8919 96.2002 29.1811 95.8298L52.8683 65.4989C53.4849 64.7093 53.018 63.5551 52.0252 63.4149L52.025 63.4149C51.5593 63.3492 51.093 63.5374 50.8038 63.9077Z" fill="white"/>
<path d="M52.0455 77.9566C47.4689 77.3106 43.1232 80.6423 42.1054 87.5779C41.1486 94.4682 44.3688 98.4353 48.6793 99.0437C53.0964 99.6671 57.4563 96.6078 58.5208 89.3544C59.4842 82.7893 56.8883 78.6401 52.0455 77.9566ZM49.1976 96.2527C46.3238 95.8471 45.1103 92.2713 45.8085 87.8845C46.4456 83.543 48.5471 80.327 51.4741 80.7401C54.7204 81.1983 55.4315 84.8653 54.8177 89.0479C54.1495 93.6011 52.2841 96.6883 49.1976 96.2527Z" fill="white"/>
<defs>
<linearGradient id="paint0_linear_936_8495" x1="17.3452" y1="64.6653" x2="111.227" y2="78.3836" gradientUnits="userSpaceOnUse">
<stop stop-color="white"/>
<stop offset="1" stop-color="#084BC9"/>
</linearGradient>
<linearGradient id="paint1_linear_936_8495" x1="-17.129" y1="180.43" x2="97.0152" y2="189.069" gradientUnits="userSpaceOnUse">
<stop stop-color="#CC6B7F"/>
<stop offset="1" stop-color="#93B9FF"/>
</linearGradient>
</defs>
</svg>
