<?xml version="1.0" encoding="utf-8"?><svg viewBox="0 0 1095 1646" xmlns="http://www.w3.org/2000/svg" xmlns:xlink="http://www.w3.org/1999/xlink"><style>:root>svg{display:none}:root>svg:target{display:block}</style><svg viewBox="0 0 483 85" id="1" xmlns="http://www.w3.org/2000/svg"><g filter="url(#aa)"><path d="M31.902 67.569C22.268 45.17 12.634 22.787 3 .404c3.025 7.043 97.972 12.77 233.875 12.892 139.352.12 240.273-5.683 242.708-12.968l-28.901 67.165c-2.148 6.454-89.927 11.592-213.307 11.486-120.341-.105-202.796-5.168-205.488-11.41h.015Z"/></g><defs><filter id="aa" x=".334" y=".328" width="481.916" height="83.986" filterUnits="userSpaceOnUse" color-interpolation-filters="sRGB"><feFlood flood-opacity="0" result="BackgroundImageFix"/><feColorMatrix in="SourceAlpha" values="0 0 0 0 0 0 0 0 0 0 0 0 0 0 0 0 0 0 127 0" result="hardAlpha"/><feOffset dy="2.666"/><feGaussianBlur stdDeviation="1.333"/><feComposite in2="hardAlpha" operator="out"/><feColorMatrix values="0 0 0 0 0 0 0 0 0 0 0 0 0 0 0 0 0 0 0.25 0"/><feBlend in2="BackgroundImageFix" result="effect1_dropShadow_801_2842"/><feBlend in="SourceGraphic" in2="effect1_dropShadow_801_2842" result="shape"/></filter></defs></svg><svg viewBox="0 0 48 48" id="att" xmlns="http://www.w3.org/2000/svg"><g clip-path="url(#ba)"><path d="M24 0C10.745 0 0 10.745 0 24s10.745 24 24 24 24-10.745 24-24S37.255 0 24 0Zm-1.846 11.077a1.846 1.846 0 0 1 3.692 0v18.461a1.846 1.846 0 0 1-3.692 0v-18.46ZM24 38.917a1.994 1.994 0 1 1 0-3.988 1.994 1.994 0 0 1 0 3.988Z"/></g><defs><clipPath id="ba"><path d="M0 0h48v48H0z"/></clipPath></defs></svg><svg viewBox="0 0 255 78" id="audit-1" xmlns="http://www.w3.org/2000/svg"><path d="m7.732 76.319-.68-5.807 16.487-19.796c1.385-1.651 2.39-3.077 3.016-4.279.626-1.2.996-2.281 1.109-3.242.152-1.01.178-1.938.08-2.783-.251-2.136-1.179-3.696-2.783-4.68-1.609-1.03-3.837-1.377-6.685-1.044-2.27.267-4.291.91-6.066 1.93-1.73 1.015-3.167 2.424-4.308 4.226L1.28 36.885c1.537-2.661 3.763-4.84 6.676-6.534 2.953-1.745 6.343-2.842 10.17-3.29 3.381-.397 6.383-.186 9.005.635 2.662.77 4.777 2.078 6.347 3.924 1.614 1.84 2.583 4.14 2.907 6.899a17.79 17.79 0 0 1-.069 4.608c-.228 1.516-.802 3.162-1.721 4.939-.92 1.776-2.327 3.813-4.222 6.11L16.198 71.199l-2.185-3.059 27.297-3.202.861 7.342-34.439 4.04Zm59.014-6.246c-3.693.433-7.14-.11-10.34-1.629-3.156-1.524-5.788-3.967-7.896-7.328-2.114-3.406-3.47-7.667-4.07-12.784-.601-5.117-.264-9.554 1.009-13.312 1.268-3.803 3.26-6.81 5.978-9.024 2.762-2.218 5.99-3.544 9.683-3.977 3.737-.439 7.184.104 10.34 1.629 3.156 1.524 5.79 3.989 7.904 7.395 2.153 3.356 3.53 7.592 4.13 12.71.6 5.116.244 9.578-1.07 13.386-1.272 3.758-3.268 6.744-5.985 8.957-2.718 2.213-5.945 3.539-9.683 3.977Zm-.884-7.542c2.18-.255 4.003-1.056 5.47-2.4 1.46-1.39 2.492-3.36 3.095-5.912.647-2.556.752-5.704.313-9.441-.443-3.782-1.273-6.82-2.49-9.113-1.177-2.343-2.634-3.999-4.371-4.968-1.743-1.013-3.704-1.392-5.885-1.136-2.09.245-3.89 1.065-5.395 2.46-1.466 1.344-2.522 3.295-3.17 5.852-.608 2.507-.69 5.651-.247 9.433.439 3.738 1.246 6.778 2.423 9.121 1.222 2.338 2.704 4.013 4.447 5.027 1.782.963 3.718 1.323 5.81 1.077Zm21.433-11.58-.642-5.473 33.371-3.914.642 5.473-33.371 3.914Zm52.925 10.504a34.18 34.18 0 0 1-9.842-.266c-3.23-.614-6.012-1.64-8.346-3.081l2.947-7.18c1.853 1.182 4.03 2.054 6.532 2.617a22.7 22.7 0 0 0 7.691.384c3.114-.365 5.466-1.273 7.055-2.722 1.584-1.494 2.248-3.331 1.993-5.511-.251-2.136-1.25-3.733-2.998-4.79-1.748-1.059-4.402-1.38-7.961-.962l-4.272.501-.697-5.94 11.486-17.45 1.518 3.137-25.095 2.944-.854-7.275 31.837-3.734.681 5.806-11.486 17.45-4.851-2.137 2.603-.305c5.74-.673 10.185.113 13.335 2.36 3.19 2.197 5.019 5.298 5.489 9.302.308 2.626-.075 5.129-1.149 7.51-1.074 2.382-2.909 4.424-5.506 6.127-2.558 1.653-5.928 2.725-10.11 3.215Zm38.995-4.574a34.176 34.176 0 0 1-9.842-.266c-3.229-.614-6.011-1.64-8.345-3.08l2.88-7.172c1.852 1.18 4.03 2.053 6.532 2.616 2.546.559 5.132.684 7.757.376 3.07-.36 5.397-1.287 6.981-2.78 1.629-1.5 2.315-3.34 2.059-5.52-.172-1.468-.702-2.714-1.588-3.738-.843-1.029-2.232-1.723-4.169-2.082-1.892-.364-4.44-.359-7.644.017l-11.279 1.323-.58-25.71 27.431-3.218.853 7.275-24.227 2.841 4.053-4.67.429 19.233-5.016-3.539 9.411-1.104c4.627-.543 8.416-.355 11.365.562 2.988.867 5.256 2.315 6.802 4.344 1.585 1.98 2.54 4.348 2.863 7.107.319 2.714-.056 5.284-1.125 7.71s-2.902 4.49-5.499 6.193c-2.552 1.698-5.919 2.792-10.102 3.282Zm29.303-4.113 26.423-50.462 6.541-.767L215.059 52l-6.541.767Zm1.343-22.012c-2.181.256-4.179-.051-5.995-.92-1.816-.87-3.303-2.207-4.462-4.01-1.159-1.805-1.89-3.997-2.193-6.577-.302-2.581-.099-4.883.611-6.906.71-2.023 1.848-3.667 3.414-4.933 1.565-1.267 3.438-2.028 5.618-2.283 2.27-.266 4.29.038 6.062.913 1.816.87 3.303 2.206 4.462 4.01 1.159 1.803 1.889 3.995 2.192 6.576.303 2.58.099 4.883-.611 6.905-.71 2.023-1.847 3.668-3.413 4.934-1.521 1.261-3.416 2.025-5.685 2.29Zm-.482-4.68c1.78-.209 3.079-1.06 3.896-2.554.856-1.544 1.13-3.629.822-6.254-.308-2.625-1.054-4.567-2.239-5.827-1.146-1.309-2.609-1.859-4.389-1.65-1.78.209-3.12 1.088-4.021 2.637-.856 1.543-1.133 3.606-.83 6.186.302 2.581 1.049 4.523 2.239 5.827 1.235 1.299 2.742 1.844 4.522 1.635Zm33.7 23.112c-2.181.255-4.179-.052-5.995-.921-1.816-.87-3.303-2.206-4.462-4.01-1.159-1.804-1.89-3.996-2.192-6.577-.303-2.58-.099-4.882.611-6.905.71-2.023 1.847-3.667 3.413-4.934 1.565-1.266 3.438-2.027 5.619-2.283 2.269-.266 4.289.039 6.061.913 1.816.87 3.303 2.206 4.462 4.01 1.159 1.804 1.89 3.996 2.192 6.577.303 2.58.099 4.882-.611 6.905-.71 2.023-1.847 3.668-3.413 4.934-1.521 1.26-3.416 2.024-5.685 2.29Zm-.548-4.672c1.78-.21 3.098-1.085 3.954-2.63.856-1.543 1.133-3.605.83-6.186-.302-2.58-1.049-4.523-2.239-5.827-1.191-1.304-2.676-1.851-4.455-1.643-1.736.204-3.054 1.08-3.955 2.63-.861 1.499-1.138 3.561-.83 6.186.308 2.626 1.057 4.59 2.247 5.894 1.23 1.254 2.712 1.78 4.448 1.576Z"/></svg><svg viewBox="0 0 1095 1646" id="bg-page" xmlns="http://www.w3.org/2000/svg"><g filter="url(#da)"><path d="M546.5 743 741 479.5 679.5 354l-273 432.5L354 1292l145.5-249 47-300Z"/></g><defs><filter id="da" x=".2" y=".2" width="1094.6" height="1645.6" filterUnits="userSpaceOnUse" color-interpolation-filters="sRGB"><feFlood flood-opacity="0" result="BackgroundImageFix"/><feBlend in="SourceGraphic" in2="BackgroundImageFix" result="shape"/><feGaussianBlur stdDeviation="176.9" result="effect1_foregroundBlur_88_93"/></filter></defs></svg><svg viewBox="0 0 51 50" id="gr-1" xmlns="http://www.w3.org/2000/svg"><path d="M49.674 20.794a2.655 2.655 0 0 0-1.39-4.277l-13.092-3.228a.953.953 0 0 1-.588-.43L27.53 1.27a2.608 2.608 0 0 0-4.476 0l-7.073 11.588a.961.961 0 0 1-.598.434L2.3 16.517a2.654 2.654 0 0 0-1.39 4.278l8.723 10.4a.977.977 0 0 1 .226.702L8.843 45.48a2.64 2.64 0 0 0 1.095 2.353 2.592 2.592 0 0 0 2.531.293l1.167-.486a2.5 2.5 0 0 0 2.49 2.36h18.333a2.5 2.5 0 0 0 2.486-2.358l1.167.485a2.591 2.591 0 0 0 2.533-.291 2.64 2.64 0 0 0 1.095-2.356l-1.017-13.584a.988.988 0 0 1 .233-.713l8.718-10.39ZM35.292 47.5a.833.833 0 0 1-.833.833H16.125a.833.833 0 0 1-.833-.833v-8.334c0-1.758.695-3.445 1.936-4.69 1.125 3.48 3.41 8.6 7.622 11.231a.839.839 0 0 0 .884 0c4.212-2.63 6.5-7.75 7.622-11.232a6.644 6.644 0 0 1 1.936 4.691V47.5Zm-8.027-15L25.988 35h-1.392l-1.276-2.5h3.945Zm-2.551 4.166h1.156l1.539 5.435c-.63.712-1.34 1.35-2.117 1.899a12.324 12.324 0 0 1-2.117-1.901l1.539-5.433Zm3.966 3.805-1.29-4.555 1.735-3.391a6.617 6.617 0 0 1 2.827.871 26.207 26.207 0 0 1-3.272 7.075Zm-3.388-9.638a5.833 5.833 0 1 1 5.834-5.834 5.84 5.84 0 0 1-5.834 5.834Zm-3.833 1.692 1.735 3.391-1.29 4.555a26.21 26.21 0 0 1-3.27-7.075c.864-.5 1.83-.798 2.825-.871Zm18.225-2.417a2.661 2.661 0 0 0-.625 1.917l1.018 13.583a.976.976 0 0 1-.407.88.925.925 0 0 1-.917.105l-1.794-.75v-6.677a8.34 8.34 0 0 0-7.1-8.231 7.5 7.5 0 1 0-9.135 0 8.34 8.34 0 0 0-7.099 8.232v6.676l-1.797.75a.93.93 0 0 1-.917-.106.976.976 0 0 1-.407-.88l1.018-13.583a2.651 2.651 0 0 0-.619-1.902L2.188 19.724a.973.973 0 0 1-.178-.947.949.949 0 0 1 .688-.642l13.077-3.219a2.64 2.64 0 0 0 1.628-1.186L24.48 2.132a.964.964 0 0 1 1.626 0l7.076 11.596a2.634 2.634 0 0 0 1.62 1.18l13.083 3.226a.946.946 0 0 1 .687.641.973.973 0 0 1-.178.947l-8.71 10.386Z"/></svg><svg viewBox="0 0 71 70" id="gr-2" xmlns="http://www.w3.org/2000/svg"><path d="M59.215 48.83 55.9 49.875A25.001 25.001 0 1 0 35.462 60h.013a.902.902 0 0 0 .01-1.802 23.257 23.257 0 0 1-22.13-17.228 23.238 23.238 0 1 1 45.203-10.723 23.226 23.226 0 0 1-4.114 18.568l.089-3.486a.9.9 0 0 0-.878-.923.889.889 0 0 0-.924.877l-.141 5.558a1.42 1.42 0 0 0 1.847 1.386l5.32-1.678a.902.902 0 0 0-.542-1.72Z"/><path d="M51.832 27.321a1.43 1.43 0 0 0-.624-.906L36.804 17.06a1.437 1.437 0 0 0-1.99.423l-.949 1.463a1.429 1.429 0 0 0 .373 1.949 13.488 13.488 0 0 0-1.618 4.792c-.14 1.567.026 3.146.49 4.65.277 1.148.59 2.45.28 2.925-.307.475-1.624.718-2.786.934a12.11 12.11 0 0 0-4.498 1.476 13.365 13.365 0 0 0-3.669 3.393 1.43 1.43 0 0 0-1.932.452l-.95 1.463a1.44 1.44 0 0 0 .423 1.99l14.405 9.354a1.428 1.428 0 0 0 1.082.201 1.426 1.426 0 0 0 .907-.623l.95-1.463a1.428 1.428 0 0 0-.373-1.95 13.498 13.498 0 0 0 1.618-4.79 12.11 12.11 0 0 0-.49-4.65c-.277-1.15-.59-2.452-.282-2.926.309-.475 1.626-.719 2.788-.934a12.109 12.109 0 0 0 4.499-1.478 13.367 13.367 0 0 0 3.67-3.395c.217.132.466.203.72.206a1.465 1.465 0 0 0 .819-.253c.155-.107.288-.244.39-.403l.95-1.462a1.43 1.43 0 0 0 .2-1.083ZM35.059 50.614l-13.794-8.957.554-.852.369.24 1.192.775 12.232 7.943-.553.85Zm8.987-18.378a10.647 10.647 0 0 1-3.791 1.18c-1.666.31-3.24.6-3.97 1.725-.73 1.124-.357 2.681.039 4.33.406 1.294.56 2.653.453 4.005a11.673 11.673 0 0 1-1.336 4.027L23.952 40.04a11.787 11.787 0 0 1 3.189-2.893 10.645 10.645 0 0 1 3.791-1.18c1.666-.309 3.24-.6 3.97-1.724.73-1.125.357-2.681-.039-4.33a10.604 10.604 0 0 1-.453-4.008 11.668 11.668 0 0 1 1.336-4.024l5.744 3.73 5.744 3.73a11.799 11.799 0 0 1-3.188 2.894Zm5.323-3.656-6-3.896-7.425-4.822-.002-.002-.367-.238.553-.852 13.793 8.958-.552.851Z"/></svg><svg viewBox="0 0 71 70" id="gr-3" xmlns="http://www.w3.org/2000/svg"><path d="m60.08 39.228-2.626-2.626a2.755 2.755 0 0 0-3.889 0l-14.179 14.18-1.954 7.167-.478.478a.92.92 0 0 0-.006 1.295l-.004.018.017-.005a.92.92 0 0 0 1.296-.004l.479-.48 7.166-1.953 14.179-14.18a2.753 2.753 0 0 0-.001-3.89ZM41.514 51.26l9.437-9.436 3.909 3.908-9.437 9.437-3.91-3.909Zm-.832 1.774L43.648 56l-4.08 1.113 1.114-4.08Zm18.095-11.22-2.615 2.616-3.91-3.909 2.616-2.615a.91.91 0 0 1 1.284-.001l2.626 2.626a.908.908 0 0 1 0 1.283Zm-24.61-20.758a.921.921 0 0 0 0 1.842h16.585a.921.921 0 0 0 0-1.843H34.168Zm17.506 13.82a.921.921 0 0 0-.921-.922H34.168a.921.921 0 0 0 0 1.843h16.584a.921.921 0 0 0 .921-.922Zm-23.42-18.205a.921.921 0 0 0-1.3.1l-5.756 6.714-3.52-2.64a.923.923 0 0 0-1.347 1.205.919.919 0 0 0 .24.268l4.212 3.159a.917.917 0 0 0 1.253-.138l6.317-7.37a.92.92 0 0 0-.1-1.298Zm0 12.898a.92.92 0 0 0-1.3.1l-5.756 6.715-3.52-2.64a.922.922 0 0 0-1.29.183.92.92 0 0 0 .183 1.29l4.212 3.158a.917.917 0 0 0 1.253-.138l6.317-7.37a.92.92 0 0 0-.1-1.297Zm-1.3 13.92-5.756 6.713-3.52-2.64a.922.922 0 0 0-1.29.184.92.92 0 0 0 .183 1.29l4.212 3.158a.917.917 0 0 0 1.253-.138l6.317-7.37a.918.918 0 0 0-.085-1.316.922.922 0 0 0-1.314.119Z"/><path d="M32.325 57.91H20.51c-5.17 0-9.375-4.206-9.375-9.376V21.218c0-5.17 4.206-9.374 9.375-9.374h27.315c5.17 0 9.376 4.205 9.376 9.374v10.894a.921.921 0 1 0 1.843 0V21.218C59.044 15.032 54.01 10 47.826 10H20.51c-6.186 0-11.218 5.032-11.218 11.218v27.315c0 6.186 5.032 11.218 11.218 11.218h11.815a.922.922 0 1 0 0-1.841Z"/></svg><svg viewBox="0 0 71 70" id="gr-4" xmlns="http://www.w3.org/2000/svg"><path d="M57.833 31.657a22.294 22.294 0 0 0-6.557-15.073A22.32 22.32 0 0 0 35.39 10c-12.116 0-22.016 9.644-22.443 21.657a5.281 5.281 0 0 0-3.143 4.824v5.925a5.283 5.283 0 0 0 5.278 5.278 3.419 3.419 0 0 0 3.415-3.415v-9.652c0-1.768-1.356-3.21-3.08-3.381.636-10.467 9.349-18.788 19.973-18.788a19.891 19.891 0 0 1 14.157 5.867c3.475 3.475 5.508 8.003 5.814 12.921-1.722.173-3.076 1.614-3.076 3.38v9.652c0 1.783 1.377 3.234 3.122 3.385v2.439a4.986 4.986 0 0 1-4.982 4.98h-3.689a3.67 3.67 0 0 0-3.481-2.479H39.45a3.65 3.65 0 0 0-1.55.34 3.71 3.71 0 0 0-2.153 3.363c0 .99.386 1.921 1.085 2.617A3.675 3.675 0 0 0 39.45 60h3.803c1.576 0 2.966-1.02 3.484-2.48h3.686c4.097 0 7.43-3.332 7.43-7.428v-2.875a5.282 5.282 0 0 0 3.122-4.813V36.48c0-2.15-1.294-4-3.143-4.822Zm-41.786 2.96v9.651a.968.968 0 0 1-.967.967 2.833 2.833 0 0 1-2.83-2.83V36.48a2.833 2.833 0 0 1 2.83-2.83c.534 0 .967.434.967.967Zm28.435 21.942a1.262 1.262 0 0 1-1.23.995H39.45c-.334 0-.648-.13-.888-.37a1.243 1.243 0 0 1-.367-.886 1.259 1.259 0 0 1 1.255-1.255h3.803c.334 0 .649.13.888.37a1.242 1.242 0 0 1 .34 1.146Zm14.046-14.154a2.833 2.833 0 0 1-2.83 2.83.968.968 0 0 1-.967-.967v-9.651c0-.533.433-.967.967-.967a2.833 2.833 0 0 1 2.83 2.83v5.925Z"/><path d="M43.315 42.827A5.192 5.192 0 0 0 48.5 37.64V27.073c0-1.382-.54-2.684-1.521-3.665a5.15 5.15 0 0 0-3.665-1.521h-15.85a5.192 5.192 0 0 0-5.187 5.186v10.568a5.192 5.192 0 0 0 5.187 5.186h.097v2.738a2.538 2.538 0 0 0 3.512 2.353c.308-.13.586-.32.819-.56l4.555-4.531h6.868Zm-8.234-2.092-4.93 4.903c-.022.023-.039.04-.085.02-.056-.023-.056-.06-.056-.093v-3.962a1.224 1.224 0 0 0-1.224-1.224h-1.322a2.742 2.742 0 0 1-2.738-2.738V27.073a2.742 2.742 0 0 1 2.739-2.738h15.85c.73 0 1.416.285 1.935.803.52.52.804 1.206.804 1.935v10.568a2.742 2.742 0 0 1-2.739 2.738h-7.371c-.324 0-.634.128-.863.356Z"/><path d="M29.443 30.747c-.995 0-1.805.811-1.805 1.806a1.81 1.81 0 0 0 1.805 1.806 1.81 1.81 0 0 0 1.808-1.806c0-.995-.81-1.806-1.808-1.806Zm5.945 0c-.995 0-1.805.811-1.805 1.806s.81 1.806 1.806 1.806a1.81 1.81 0 0 0 1.807-1.806c0-.995-.81-1.806-1.807-1.806Zm5.946 0c-.996 0-1.806.811-1.806 1.806a1.81 1.81 0 0 0 1.806 1.806 1.81 1.81 0 0 0 1.807-1.806 1.81 1.81 0 0 0-1.807-1.806Z"/></svg><svg viewBox="0 0 71 70" id="gr-5" xmlns="http://www.w3.org/2000/svg"><path d="M56.984 12.26a17.127 17.127 0 0 1 5.308 12.417c0 5.851-2.927 11.019-7.396 14.12v6.236c0 .985-1.192 1.48-1.889.782l-4.332-4.332a17.24 17.24 0 0 1-3.56.37 17.273 17.273 0 0 1-3.462-.348m-13.71-17.29C28.187 14.942 35.78 7.5 45.114 7.5c3.325 0 6.428.944 9.058 2.579"/><path d="M24.47 23.858c-9.487 0-17.178 7.69-17.178 17.177 0 5.852 2.927 11.02 7.396 14.12v6.236c0 .986 1.192 1.48 1.89.782l4.331-4.331c1.171.246 2.364.37 3.56.37 9.488 0 17.179-7.69 17.179-17.177 0-9.486-7.691-17.177-17.178-17.177Z"/><path d="M21.955 48.944H32.58a2.213 2.213 0 0 0 2.213-2.214v-9.849c0-1.222-.99-2.213-2.213-2.213H16.31c-1.222 0-2.213.99-2.213 2.213v9.85c0 1.222.99 2.213 2.213 2.213h2.324m2.284-14.276v-1.845c0-.61.496-1.106 1.107-1.106h4.838c.611 0 1.107.495 1.107 1.106v1.845"/><path d="M26.143 41.75v1.943a1.673 1.673 0 1 1-3.346 0V41.75"/><path d="M14.098 38.804a1.107 1.107 0 0 0 .858 1.078l8.993 2.07c.342.08.698.076 1.04-.01l8.968-2.267a1.107 1.107 0 0 0 .835-1.073"/></svg><svg viewBox="0 0 71 70" id="gr-6" xmlns="http://www.w3.org/2000/svg"><path d="M30.597 41.25h-12.5a1.042 1.042 0 1 1 0-2.083h12.5a1.041 1.041 0 1 1 0 2.083Zm0 6.25h-12.5a1.042 1.042 0 0 1 0-2.083h12.5a1.042 1.042 0 0 1 0 2.083Zm-2.083-22.917a4.17 4.17 0 0 1-4.167-4.166 4.17 4.17 0 0 1 4.167-4.167 4.17 4.17 0 0 1 4.166 4.167 4.17 4.17 0 0 1-4.166 4.166Zm0-6.25a2.087 2.087 0 0 0-2.084 2.084c0 1.148.936 2.083 2.084 2.083a2.087 2.087 0 0 0 2.083-2.083 2.087 2.087 0 0 0-2.083-2.084ZM35.805 35a1.042 1.042 0 0 1-1.041-1.041v-2.084a3.129 3.129 0 0 0-3.125-3.125h-6.25a3.129 3.129 0 0 0-3.125 3.125v2.084a1.042 1.042 0 1 1-2.084 0v-2.084a5.216 5.216 0 0 1 5.209-5.208h6.25a5.216 5.216 0 0 1 5.208 5.208v2.084A1.042 1.042 0 0 1 35.805 35Z"/><path d="M34.826 53.75H16.014a5.214 5.214 0 0 1-5.209-5.208V15.208A5.216 5.216 0 0 1 16.014 10h25a5.216 5.216 0 0 1 5.208 5.208v16.709a1.042 1.042 0 0 1-2.083 0V15.208a3.129 3.129 0 0 0-3.125-3.125h-25a3.129 3.129 0 0 0-3.125 3.125v33.334a3.129 3.129 0 0 0 3.125 3.125h18.812a1.041 1.041 0 1 1 0 2.083Z"/><path d="M46.222 55.834c-5.743 0-10.416-4.673-10.416-10.417S40.479 35 46.222 35c5.744 0 10.417 4.673 10.417 10.417s-4.673 10.416-10.417 10.416Zm0-18.75c-4.596 0-8.333 3.737-8.333 8.333s3.737 8.333 8.333 8.333 8.334-3.737 8.334-8.333-3.738-8.334-8.334-8.334Z"/><path d="M59.764 60a1.05 1.05 0 0 1-.738-.304l-6.912-6.913a1.042 1.042 0 0 1 1.473-1.473l6.912 6.913A1.041 1.041 0 0 1 59.764 60Z"/></svg><svg viewBox="0 0 71 70" id="gr-7" xmlns="http://www.w3.org/2000/svg"><path d="M11.24 60h21.319c.588 0 1-.471 1.06-1.001v-3.122c0-4.829-2.945-9.128-7.42-10.895 2.414-1.53 3.768-4.122 3.768-6.772 0-4.476-3.71-8.01-8.01-8.01-4.416 0-8.009 3.534-8.009 7.95a8.052 8.052 0 0 0 3.77 6.832 11.697 11.697 0 0 0-7.421 10.895V59c-.059.53.412 1.001.942 1.001Zm4.71-21.79c0-3.298 2.71-5.949 5.949-5.949a5.932 5.932 0 0 1 5.948 5.949c0 3.298-2.709 5.948-5.948 5.948-3.24 0-5.948-2.71-5.948-5.948ZM12.3 55.818c0-5.3 4.299-9.599 9.599-9.599s9.6 4.3 9.6 9.6v2.12h-19.2v-2.12Zm41.283-31.095c3.71-2.356 4.888-7.244 2.533-10.954C54.643 11.354 51.993 10 49.284 10c-4.417 0-8.01 3.534-8.01 7.95a8.052 8.052 0 0 0 3.77 6.832c-4.476 1.767-7.42 6.066-7.42 10.836v3.122c0 .589.47 1 1 1.06h21.32a1.057 1.057 0 0 0 1.06-1.06v-3.122c0-4.829-2.945-9.187-7.42-10.895Zm-10.247-6.772c0-3.299 2.709-5.949 5.948-5.949a5.93 5.93 0 0 1 5.948 5.949 5.932 5.932 0 0 1-5.948 5.948c-3.24 0-5.948-2.65-5.948-5.948ZM58.942 37.68H39.684v-2.12c0-5.3 4.3-9.6 9.6-9.6s9.6 4.3 9.6 9.6v2.12h.058Zm-16.725 9.953a1.031 1.031 0 0 0-1.472 0l-3.24 3.239a1.031 1.031 0 0 0 0 1.472l3.24 3.239c.412.412 1.06.412 1.472 0a1.031 1.031 0 0 0 0-1.472l-1.472-1.473h2.886c5.005 0 9.01-4.063 9.01-9.01 0-.59-.471-1.06-1.06-1.06-.589 0-1.06.47-1.06 1.06 0 3.828-3.121 6.95-6.95 6.95h-2.885l1.472-1.473c.471-.412.471-1.06.059-1.472ZM21.192 25.37c0 .589.471 1.06 1.06 1.06.59 0 1.06-.471 1.06-1.06 0-3.828 3.122-6.95 6.95-6.95h2.886l-1.473 1.473a1.031 1.031 0 0 0 0 1.472c.412.412 1.06.412 1.473 0l3.239-3.239c.353-.353.412-1.06 0-1.472l-3.24-3.24a1.031 1.031 0 0 0-1.472 0c-.412.413-.412 1.06 0 1.414l1.473 1.472h-2.886c-5.006.06-9.07 4.064-9.07 9.07Z"/></svg><svg viewBox="0 0 860 957" id="hero-bg-pink" xmlns="http://www.w3.org/2000/svg"><g filter="url(#la)"><path d="M337.972 247.539 538 61.573 474.752-27l-280.76 305.24L140 635l149.636-175.733 48.336-211.728Z"/></g><defs><filter id="la" x="-181.5" y="-348.5" width="1041" height="1305" filterUnits="userSpaceOnUse" color-interpolation-filters="sRGB"><feFlood flood-opacity="0" result="BackgroundImageFix"/><feBlend in="SourceGraphic" in2="BackgroundImageFix" result="shape"/><feGaussianBlur stdDeviation="160.75" result="effect1_foregroundBlur_823_5397"/></filter></defs></svg><svg viewBox="0 0 502.664 502.664" xml:space="preserve" id="icon" xmlns="http://www.w3.org/2000/svg"><path d="M153.821 358.226 0 274.337v-46.463l153.821-83.414v54.574L46.636 250.523l107.185 53.431v54.272zm26.273 29.358L282.103 115.08h32.227L212.084 387.584h-31.99zm168.749-29.358v-54.272l107.164-52.999-107.164-52.59v-53.927l153.821 83.522v46.183l-153.821 84.083z"/></svg><svg viewBox="0 0 14 27" id="left-arrow" xmlns="http://www.w3.org/2000/svg"><path d="M13.25 1 .75 13.5 13.25 26"/></svg><svg viewBox="0 0 24 24" id="mail" xmlns="http://www.w3.org/2000/svg"><path d="m22 7-8.97 5.7a1.94 1.94 0 0 1-2.06 0L2 7m2-3h16a2 2 0 0 1 2 2v12a2 2 0 0 1-2 2H4a2 2 0 0 1-2-2V6a2 2 0 0 1 2-2Z"/></svg><svg viewBox="0 0 21 21" id="mail-h" xmlns="http://www.w3.org/2000/svg"><path d="m18.486 6.36-7.305 4.642a1.58 1.58 0 0 1-1.678 0L2.198 6.36m1.629-2.443h13.03c.9 0 1.63.73 1.63 1.629v9.772c0 .9-.73 1.63-1.63 1.63H3.827c-.9 0-1.629-.73-1.629-1.63V5.546c0-.9.73-1.629 1.629-1.629Z"/></svg><svg viewBox="0 0 21 20" id="map" xmlns="http://www.w3.org/2000/svg"><path d="M16.963 8.333c0 4.161-4.616 8.494-6.166 9.833a.834.834 0 0 1-1.001 0c-1.55-1.339-6.166-5.672-6.166-9.833a6.667 6.667 0 0 1 13.333 0Z"/><path d="M10.296 10.833a2.5 2.5 0 1 0 0-5 2.5 2.5 0 0 0 0 5Z"/></svg><svg viewBox="0 0 90 90" id="pr" xmlns="http://www.w3.org/2000/svg"><rect width="90" height="90" rx="45"/><path d="M63.903 49.046h-4.848V48.1c0-1.757-1.456-3.187-3.247-3.187h-7.419c-1.79 0-3.247 1.43-3.247 3.187v.584a10.996 10.996 0 0 0-6.289-5.226c1.685-1.431 2.753-3.532 2.753-5.871 0-4.303-3.606-7.804-8.039-7.804-4.432 0-8.038 3.501-8.038 7.804 0 2.34 1.069 4.443 2.756 5.874a11.146 11.146 0 0 0-4.948 3.282 10.725 10.725 0 0 0-2.637 7.018v5.71c0 .19.077.372.213.506.137.134.322.21.515.21h16.123v6.42c0 1.485 1.23 2.693 2.744 2.693h23.608c1.513 0 2.744-1.208 2.744-2.693V51.739c0-1.485-1.231-2.693-2.744-2.693Zm1.288 2.693v2.676l-6.807 4.37h-2.7v-.006a1.11 1.11 0 0 0-1.12-1.099h-.636v-1.157a.708.708 0 0 0-.213-.506.735.735 0 0 0-.515-.21h-2.203a.735.735 0 0 0-.515.21.708.708 0 0 0-.213.506v1.157h-.636a1.11 1.11 0 0 0-1.12 1.099v.007h-2.7l-6.806-4.371v-2.676c0-.697.578-1.264 1.288-1.264h23.608c.71 0 1.288.567 1.288 1.264Zm-13.466 9.582h.747v.412a.375.375 0 0 1-.373.367.375.375 0 0 1-.374-.367v-.412Zm-1.755-1.43v-.781h4.258v.782H49.97Zm2.502-2.21h-.747v-.444h.747v.443Zm3.172-8.635h-7.09v-.784h7.09v.784Zm-7.255-2.704h7.419c.988 0 1.791.789 1.791 1.758v.946h-.5V48.1c0-.699-.579-1.268-1.291-1.268h-7.419c-.712 0-1.291.57-1.291 1.268v.946h-.5V48.1c0-.97.804-1.758 1.791-1.758Zm-21.404-8.755c0-3.515 2.953-6.374 6.582-6.374 3.63 0 6.583 2.86 6.583 6.374 0 3.515-2.953 6.374-6.583 6.374-3.63 0-6.582-2.86-6.582-6.374Zm-4.829 21.17V53.76c0-4.515 3.236-8.364 7.728-9.241a8.18 8.18 0 0 0 3.683.87 8.18 8.18 0 0 0 3.685-.871 9.579 9.579 0 0 1 6.43 4.527h-3.388c-1.512 0-2.743 1.208-2.743 2.693v7.018H22.156Zm41.747 9.114H40.294c-.71 0-1.287-.567-1.287-1.264V56.123l6.19 3.976a.738.738 0 0 0 .4.116h2.916v.007a1.11 1.11 0 0 0 1.12 1.099h.636v.412c0 .99.82 1.796 1.83 1.796 1.009 0 1.83-.806 1.83-1.796v-.412h.636a1.11 1.11 0 0 0 1.119-1.099v-.007H58.6a.74.74 0 0 0 .399-.116l6.19-3.976v10.484c0 .697-.577 1.264-1.287 1.264ZM44.121 43.639h3.64a.735.735 0 0 0 .514-.21.708.708 0 0 0 .213-.505V37.04a.708.708 0 0 0-.213-.506.735.735 0 0 0-.515-.209h-3.639a.735.735 0 0 0-.515.21.708.708 0 0 0-.213.505v5.884c0 .19.077.371.213.505.137.134.322.21.515.21Zm.728-5.885h2.183v4.455H44.85v-4.455Zm5.725-4.068a.735.735 0 0 0-.515.21.708.708 0 0 0-.213.505v8.523c0 .19.077.371.213.505.137.134.322.21.515.21h3.64a.735.735 0 0 0 .514-.21.708.708 0 0 0 .213-.505V34.4a.708.708 0 0 0-.213-.506.735.735 0 0 0-.515-.21h-3.639Zm2.911 8.523h-2.183v-7.094h2.183v7.094Zm3.543-11.162a.735.735 0 0 0-.515.21.708.708 0 0 0-.213.505v11.162c0 .19.076.371.213.505.136.134.322.21.515.21h3.639a.735.735 0 0 0 .514-.21.708.708 0 0 0 .214-.505V31.762a.708.708 0 0 0-.214-.506.735.735 0 0 0-.514-.21h-3.64Zm2.91 11.162h-2.182v-9.733h2.183v9.733Zm9.117-14.187-2.528-3.164a1.544 1.544 0 0 0-.544-.433 1.574 1.574 0 0 0-.683-.153 1.56 1.56 0 0 0-1.226.586l-2.528 3.164a1.098 1.098 0 0 0-.129 1.184c.193.39.587.631 1.029.631h.307v13.087c0 .19.077.371.213.505.137.134.322.21.515.21h3.64a.735.735 0 0 0 .514-.21.708.708 0 0 0 .213-.505V29.837h.307c.442 0 .836-.242 1.028-.631.193-.39.144-.843-.128-1.184Zm-1.935.386a.735.735 0 0 0-.515.209.708.708 0 0 0-.213.505V42.21H64.21V29.122a.708.708 0 0 0-.213-.505.735.735 0 0 0-.515-.21h-.392l2.13-2.667a.099.099 0 0 1 .081-.038c.034 0 .06.012.081.038l2.131 2.668h-.392Zm-22.06 4.906h.004c6.15-.04 11.018-2.282 14.863-6.849l.645.273c.38.16.811.095 1.126-.17.313-.262.443-.67.34-1.063l-1.053-4.012a1.04 1.04 0 0 0-.224-.424 1.087 1.087 0 0 0-1.338-.235l-3.69 2.012c-.361.197-.573.57-.552.974.02.405.27.757.65.918l.183.077c-1.276 1.83-4.272 4.693-11.199 7.111a.725.725 0 0 0-.384.313.704.704 0 0 0 .16.907.737.737 0 0 0 .468.168Zm12.655-8.484a.707.707 0 0 0-.35-1.001l-.246-.104 2.579-1.406.736 2.805-.44-.186a.74.74 0 0 0-.859.214c-1.738 2.164-4.424 4.87-9.003 6.088 4.74-2.41 6.753-4.93 7.583-6.41Z"/></svg><svg viewBox="0 0 14 27" id="right-arrow" xmlns="http://www.w3.org/2000/svg"><path d="m.75 1 12.5 12.5L.75 26"/></svg><svg viewBox="0 0 24 24" id="tel" xmlns="http://www.w3.org/2000/svg"><path d="M22 16.92v3a2.001 2.001 0 0 1-2.18 2 19.79 19.79 0 0 1-8.63-3.07 19.499 19.499 0 0 1-6-6 19.79 19.79 0 0 1-3.07-8.67A2 2 0 0 1 4.11 2h3a2 2 0 0 1 2 1.72c.127.96.362 1.903.7 2.81a2 2 0 0 1-.45 2.11L8.09 9.91a16 16 0 0 0 6 6l1.27-1.27a1.999 1.999 0 0 1 2.11-.45c.907.339 1.85.574 2.81.7A2 2 0 0 1 22 16.92Z"/></svg><svg viewBox="0 0 21 21" id="tel-h" xmlns="http://www.w3.org/2000/svg"><path d="M18.642 14.439v2.443a1.63 1.63 0 0 1-1.776 1.629 16.117 16.117 0 0 1-7.028-2.5 15.88 15.88 0 0 1-4.886-4.887 16.117 16.117 0 0 1-2.5-7.06 1.629 1.629 0 0 1 1.62-1.776h2.443a1.629 1.629 0 0 1 1.63 1.4c.102.783.293 1.55.57 2.29a1.629 1.629 0 0 1-.367 1.718L7.313 8.73a13.031 13.031 0 0 0 4.887 4.886l1.034-1.034a1.628 1.628 0 0 1 1.718-.366c.74.275 1.507.467 2.289.57a1.629 1.629 0 0 1 1.4 1.653Z"/></svg><svg viewBox="0 0 29 28" id="tg" xmlns="http://www.w3.org/2000/svg"><rect x=".593" width="28" height="28" rx="14"/><path d="m19.961 8.617-.23.084-12.506 4.505a.42.42 0 0 0 .037.81l3.237.887.604 1.772.604 1.773a.574.574 0 0 0 .926.206l1.673-1.58 3.284 2.227c.401.274.974.071 1.076-.38l2.175-9.61c.107-.476-.395-.867-.88-.694Zm-1.596 2.133-5.65 4.619-.266.218a.287.287 0 0 0-.107.187l-.06.491-.163 1.38a.064.064 0 0 1-.126.01l-.46-1.378-.475-1.412a.287.287 0 0 1 .137-.338l5.88-3.37 1.106-.633c.161-.094.326.11.184.226Z"/></svg><svg viewBox="0 0 28 28" id="wa" xmlns="http://www.w3.org/2000/svg"><rect width="28" height="28" rx="14"/><path d="M18.629 9.369a6.511 6.511 0 0 0-10.43 7.532l-.692 3.355a.248.248 0 0 0 .04.194.252.252 0 0 0 .267.104l3.287-.78A6.51 6.51 0 0 0 18.63 9.37Zm-1.025 8.18a5.1 5.1 0 0 1-5.873.955l-.458-.227-2.015.477.006-.024.417-2.029-.224-.443a5.097 5.097 0 1 1 8.147 1.291Z"/><path d="M17.425 16.061c-.247.39-.637.865-1.127.983-.86.208-2.178.008-3.818-1.522l-.02-.018c-1.443-1.338-1.818-2.45-1.727-3.334.05-.5.468-.954.82-1.25a.47.47 0 0 1 .733.168l.531 1.193a.466.466 0 0 1-.058.478l-.268.348a.462.462 0 0 0-.042.515c.15.264.51.652.91 1.011.449.406.946.777 1.261.903a.456.456 0 0 0 .5-.105l.312-.313a.477.477 0 0 1 .465-.12l1.261.358a.478.478 0 0 1 .267.705Z"/></svg></svg>