<?xml version="1.0" encoding="utf-8"?><svg viewBox="0 0 1095 1646" xmlns="http://www.w3.org/2000/svg" xmlns:xlink="http://www.w3.org/1999/xlink"><style>:root>svg{display:none}:root>svg:target{display:block}</style><svg viewBox="0 0 483 85" id="1" xmlns="http://www.w3.org/2000/svg"><g filter="url(#aaa)"><path d="M31.902 67.569C22.268 45.17 12.634 22.787 3 .404c3.025 7.043 97.972 12.77 233.875 12.892 139.352.12 240.273-5.683 242.708-12.968l-28.901 67.165c-2.148 6.454-89.927 11.592-213.307 11.486-120.341-.105-202.796-5.168-205.488-11.41h.015Z"/></g><defs><filter id="aaa" x=".334" y=".328" width="481.916" height="83.986" filterUnits="userSpaceOnUse" color-interpolation-filters="sRGB"><feFlood flood-opacity="0" result="BackgroundImageFix"/><feColorMatrix in="SourceAlpha" values="0 0 0 0 0 0 0 0 0 0 0 0 0 0 0 0 0 0 127 0" result="hardAlpha"/><feOffset dy="2.666"/><feGaussianBlur stdDeviation="1.333"/><feComposite in2="hardAlpha" operator="out"/><feColorMatrix values="0 0 0 0 0 0 0 0 0 0 0 0 0 0 0 0 0 0 0.25 0"/><feBlend in2="BackgroundImageFix" result="effect1_dropShadow_801_2842"/><feBlend in="SourceGraphic" in2="effect1_dropShadow_801_2842" result="shape"/></filter></defs></svg><svg viewBox="0 0 48 48" id="att" xmlns="http://www.w3.org/2000/svg"><g clip-path="url(#aba)"><path d="M24 0C10.745 0 0 10.745 0 24s10.745 24 24 24 24-10.745 24-24S37.255 0 24 0Zm-1.846 11.077a1.846 1.846 0 0 1 3.692 0v18.461a1.846 1.846 0 0 1-3.692 0v-18.46ZM24 38.917a1.994 1.994 0 1 1 0-3.988 1.994 1.994 0 0 1 0 3.988Z"/></g><defs><clipPath id="aba"><path d="M0 0h48v48H0z"/></clipPath></defs></svg><svg viewBox="0 0 255 78" id="audit-1" xmlns="http://www.w3.org/2000/svg"><path d="m7.732 76.319-.68-5.807 16.487-19.796c1.385-1.651 2.39-3.077 3.016-4.279.626-1.2.996-2.281 1.109-3.242.152-1.01.178-1.938.08-2.783-.251-2.136-1.179-3.696-2.783-4.68-1.609-1.03-3.837-1.377-6.685-1.044-2.27.267-4.291.91-6.066 1.93-1.73 1.015-3.167 2.424-4.308 4.226L1.28 36.885c1.537-2.661 3.763-4.84 6.676-6.534 2.953-1.745 6.343-2.842 10.17-3.29 3.381-.397 6.383-.186 9.005.635 2.662.77 4.777 2.078 6.347 3.924 1.614 1.84 2.583 4.14 2.907 6.899a17.79 17.79 0 0 1-.069 4.608c-.228 1.516-.802 3.162-1.721 4.939-.92 1.776-2.327 3.813-4.222 6.11L16.198 71.199l-2.185-3.059 27.297-3.202.861 7.342-34.439 4.04Zm59.014-6.246c-3.693.433-7.14-.11-10.34-1.629-3.156-1.524-5.788-3.967-7.896-7.328-2.114-3.406-3.47-7.667-4.07-12.784-.601-5.117-.264-9.554 1.009-13.312 1.268-3.803 3.26-6.81 5.978-9.024 2.762-2.218 5.99-3.544 9.683-3.977 3.737-.439 7.184.104 10.34 1.629 3.156 1.524 5.79 3.989 7.904 7.395 2.153 3.356 3.53 7.592 4.13 12.71.6 5.116.244 9.578-1.07 13.386-1.272 3.758-3.268 6.744-5.985 8.957-2.718 2.213-5.945 3.539-9.683 3.977Zm-.884-7.542c2.18-.255 4.003-1.056 5.47-2.4 1.46-1.39 2.492-3.36 3.095-5.912.647-2.556.752-5.704.313-9.441-.443-3.782-1.273-6.82-2.49-9.113-1.177-2.343-2.634-3.999-4.371-4.968-1.743-1.013-3.704-1.392-5.885-1.136-2.09.245-3.89 1.065-5.395 2.46-1.466 1.344-2.522 3.295-3.17 5.852-.608 2.507-.69 5.651-.247 9.433.439 3.738 1.246 6.778 2.423 9.121 1.222 2.338 2.704 4.013 4.447 5.027 1.782.963 3.718 1.323 5.81 1.077Zm21.433-11.58-.642-5.473 33.371-3.914.642 5.473-33.371 3.914Zm52.925 10.504a34.18 34.18 0 0 1-9.842-.266c-3.23-.614-6.012-1.64-8.346-3.081l2.947-7.18c1.853 1.182 4.03 2.054 6.532 2.617a22.7 22.7 0 0 0 7.691.384c3.114-.365 5.466-1.273 7.055-2.722 1.584-1.494 2.248-3.331 1.993-5.511-.251-2.136-1.25-3.733-2.998-4.79-1.748-1.059-4.402-1.38-7.961-.962l-4.272.501-.697-5.94 11.486-17.45 1.518 3.137-25.095 2.944-.854-7.275 31.837-3.734.681 5.806-11.486 17.45-4.851-2.137 2.603-.305c5.74-.673 10.185.113 13.335 2.36 3.19 2.197 5.019 5.298 5.489 9.302.308 2.626-.075 5.129-1.149 7.51-1.074 2.382-2.909 4.424-5.506 6.127-2.558 1.653-5.928 2.725-10.11 3.215Zm38.995-4.574a34.176 34.176 0 0 1-9.842-.266c-3.229-.614-6.011-1.64-8.345-3.08l2.88-7.172c1.852 1.18 4.03 2.053 6.532 2.616 2.546.559 5.132.684 7.757.376 3.07-.36 5.397-1.287 6.981-2.78 1.629-1.5 2.315-3.34 2.059-5.52-.172-1.468-.702-2.714-1.588-3.738-.843-1.029-2.232-1.723-4.169-2.082-1.892-.364-4.44-.359-7.644.017l-11.279 1.323-.58-25.71 27.431-3.218.853 7.275-24.227 2.841 4.053-4.67.429 19.233-5.016-3.539 9.411-1.104c4.627-.543 8.416-.355 11.365.562 2.988.867 5.256 2.315 6.802 4.344 1.585 1.98 2.54 4.348 2.863 7.107.319 2.714-.056 5.284-1.125 7.71s-2.902 4.49-5.499 6.193c-2.552 1.698-5.919 2.792-10.102 3.282Zm29.303-4.113 26.423-50.462 6.541-.767L215.059 52l-6.541.767Zm1.343-22.012c-2.181.256-4.179-.051-5.995-.92-1.816-.87-3.303-2.207-4.462-4.01-1.159-1.805-1.89-3.997-2.193-6.577-.302-2.581-.099-4.883.611-6.906.71-2.023 1.848-3.667 3.414-4.933 1.565-1.267 3.438-2.028 5.618-2.283 2.27-.266 4.29.038 6.062.913 1.816.87 3.303 2.206 4.462 4.01 1.159 1.803 1.889 3.995 2.192 6.576.303 2.58.099 4.883-.611 6.905-.71 2.023-1.847 3.668-3.413 4.934-1.521 1.261-3.416 2.025-5.685 2.29Zm-.482-4.68c1.78-.209 3.079-1.06 3.896-2.554.856-1.544 1.13-3.629.822-6.254-.308-2.625-1.054-4.567-2.239-5.827-1.146-1.309-2.609-1.859-4.389-1.65-1.78.209-3.12 1.088-4.021 2.637-.856 1.543-1.133 3.606-.83 6.186.302 2.581 1.049 4.523 2.239 5.827 1.235 1.299 2.742 1.844 4.522 1.635Zm33.7 23.112c-2.181.255-4.179-.052-5.995-.921-1.816-.87-3.303-2.206-4.462-4.01-1.159-1.804-1.89-3.996-2.192-6.577-.303-2.58-.099-4.882.611-6.905.71-2.023 1.847-3.667 3.413-4.934 1.565-1.266 3.438-2.027 5.619-2.283 2.269-.266 4.289.039 6.061.913 1.816.87 3.303 2.206 4.462 4.01 1.159 1.804 1.89 3.996 2.192 6.577.303 2.58.099 4.882-.611 6.905-.71 2.023-1.847 3.668-3.413 4.934-1.521 1.26-3.416 2.024-5.685 2.29Zm-.548-4.672c1.78-.21 3.098-1.085 3.954-2.63.856-1.543 1.133-3.605.83-6.186-.302-2.58-1.049-4.523-2.239-5.827-1.191-1.304-2.676-1.851-4.455-1.643-1.736.204-3.054 1.08-3.955 2.63-.861 1.499-1.138 3.561-.83 6.186.308 2.626 1.057 4.59 2.247 5.894 1.23 1.254 2.712 1.78 4.448 1.576Z"/></svg><svg viewBox="0 0 182 180" id="audit-2" xmlns="http://www.w3.org/2000/svg"><circle cx="148.389" cy="116.597" r="23.713" transform="rotate(-18.61 148.389 116.597)"/><path d="m135.131 109.587 13.792 7.607M145.751 110.019l3.132 6.834"/><circle cx="148.388" cy="116.595" r="2.132" transform="rotate(-18.61 148.388 116.595)"/><mask id="ada"><path d="M25.137 105.488c-2.4-5.375.013-11.677 5.388-14.076l41.85-18.678a3.197 3.197 0 0 1 4.222 1.616l13.032 29.198-54.502 24.325-9.99-22.385Z"/></mask><path d="M25.137 105.488c-2.4-5.375.013-11.677 5.388-14.076l41.85-18.678a3.197 3.197 0 0 1 4.222 1.616l13.032 29.198-54.502 24.325-9.99-22.385Z" mask="url(#ada)"/><path d="M34.028 116.692a9.236 9.236 0 0 1 4.67-12.199l72.993-32.579a9.236 9.236 0 0 1 12.199 4.67l15.204 34.064a9.236 9.236 0 0 1-4.671 12.199l-72.992 32.578a9.236 9.236 0 0 1-12.2-4.67l-15.203-34.063Z"/><rect x="103.915" y="96.911" width="34.578" height="17.526" rx="8.763" transform="rotate(-24.052 103.915 96.91)"/><circle cx="41.555" cy="63.078" r="14.622" transform="rotate(-70.658 41.555 63.078)"/><circle cx="41.554" cy="63.08" r="12.867" transform="rotate(-70.658 41.554 63.08)"/><g filter="url(#adb)"><path d="m41.59 67.78-3.23-6.724 2.622-1.26c.59-.283 1.137-.432 1.642-.446a2.37 2.37 0 0 1 1.349.345c.393.245.707.61.94 1.097.234.487.324.96.269 1.42-.058.454-.25.877-.573 1.269-.327.386-.785.72-1.375 1.003L41.14 65.49l.215-.66 1.196 2.489-.96.461Zm-.188-2.853-.663-.273 2.065-.992c.615-.295 1.016-.65 1.204-1.063.194-.416.176-.865-.055-1.345-.23-.48-.57-.775-1.016-.884-.44-.112-.967-.02-1.582.275l-2.065.993.201-.688 1.91 3.977Z"/></g><circle cx="54.759" cy="66.519" r="14.622" transform="rotate(-74.612 54.759 66.519)"/><circle cx="54.76" cy="66.518" r="12.867" transform="rotate(-74.612 54.76 66.518)"/><g filter="url(#adc)"><path d="m55.12 71.208-3.687-6.486 2.53-1.438c.568-.323 1.103-.51 1.607-.558.503-.05.96.035 1.369.252.41.216.747.56 1.014 1.029.267.47.389.935.365 1.398-.026.457-.188.891-.484 1.305-.3.407-.733.773-1.302 1.096l-2.02 1.148.17-.673 1.364 2.4-.927.527Zm-.386-2.834-.68-.227 1.992-1.132c.593-.337.97-.718 1.128-1.143.165-.43.116-.875-.148-1.338-.263-.464-.621-.734-1.074-.812-.446-.081-.966.047-1.56.384l-1.991 1.132.153-.7 2.18 3.836Z"/></g><circle cx="48.609" cy="76.267" r="14.622" transform="rotate(-82.114 48.61 76.267)"/><circle cx="48.609" cy="76.266" r="12.867" transform="rotate(-82.114 48.609 76.266)"/><g filter="url(#add)"><path d="m49.578 80.866-4.502-5.95 2.32-1.755c.521-.394 1.028-.648 1.521-.763a2.37 2.37 0 0 1 1.39.07c.434.162.814.459 1.14.89.326.43.508.876.545 1.338.033.456-.07.908-.31 1.357-.244.443-.626.861-1.148 1.256l-1.852 1.402.08-.69 1.666 2.202-.85.643Zm-.752-2.76-.704-.135 1.828-1.382c.543-.412.866-.839.968-1.281.108-.447 0-.883-.32-1.308-.322-.425-.713-.646-1.172-.664-.453-.022-.952.172-1.496.584l-1.827 1.383.06-.715 2.663 3.519Z"/></g><defs><filter id="adb" x="35.162" y="55.252" width="15.053" height="15.727" filterUnits="userSpaceOnUse" color-interpolation-filters="sRGB"><feFlood flood-opacity="0" result="BackgroundImageFix"/><feColorMatrix in="SourceAlpha" values="0 0 0 0 0 0 0 0 0 0 0 0 0 0 0 0 0 0 127 0" result="hardAlpha"/><feOffset/><feGaussianBlur stdDeviation="1.599"/><feComposite in2="hardAlpha" operator="out"/><feColorMatrix values="0 0 0 0 0 0 0 0 0 0 0 0 0 0 0 0 0 0 0.25 0"/><feBlend in2="BackgroundImageFix" result="effect1_dropShadow_586_2540"/><feBlend in="SourceGraphic" in2="effect1_dropShadow_586_2540" result="shape"/></filter><filter id="adc" x="48.235" y="58.549" width="15.316" height="15.856" filterUnits="userSpaceOnUse" color-interpolation-filters="sRGB"><feFlood flood-opacity="0" result="BackgroundImageFix"/><feColorMatrix in="SourceAlpha" values="0 0 0 0 0 0 0 0 0 0 0 0 0 0 0 0 0 0 127 0" result="hardAlpha"/><feOffset/><feGaussianBlur stdDeviation="1.599"/><feComposite in2="hardAlpha" operator="out"/><feColorMatrix values="0 0 0 0 0 0 0 0 0 0 0 0 0 0 0 0 0 0 0.25 0"/><feBlend in2="BackgroundImageFix" result="effect1_dropShadow_586_2540"/><feBlend in="SourceGraphic" in2="effect1_dropShadow_586_2540" result="shape"/></filter><filter id="add" x="41.879" y="68.086" width="15.698" height="15.977" filterUnits="userSpaceOnUse" color-interpolation-filters="sRGB"><feFlood flood-opacity="0" result="BackgroundImageFix"/><feColorMatrix in="SourceAlpha" values="0 0 0 0 0 0 0 0 0 0 0 0 0 0 0 0 0 0 127 0" result="hardAlpha"/><feOffset/><feGaussianBlur stdDeviation="1.599"/><feComposite in2="hardAlpha" operator="out"/><feColorMatrix values="0 0 0 0 0 0 0 0 0 0 0 0 0 0 0 0 0 0 0.25 0"/><feBlend in2="BackgroundImageFix" result="effect1_dropShadow_586_2540"/><feBlend in="SourceGraphic" in2="effect1_dropShadow_586_2540" result="shape"/></filter></defs></svg><svg viewBox="0 0 248 152" id="audit-3" xmlns="http://www.w3.org/2000/svg"><path d="M235.238.5c2.3 0 4.164 1.865 4.164 4.165v51.85c0 3.708-4.481 5.567-7.106 2.947l-5.753-5.74a4.165 4.165 0 0 0-5.884 0L123.675 150.5H54.5L186.063 19.224a4.164 4.164 0 0 0 0-5.896l-5.727-5.715C177.708 4.99 179.565.5 183.278.5h51.96Z" fill-opacity=".6"/><path d="M145.521 41.854a4.165 4.165 0 0 1 3.74 4.55l-4.547 46.51c-.361 3.69-5.001 5.105-7.359 2.243l-3.717-4.51a4.164 4.164 0 0 0-6.239-.213L69.875 151.25H.125l99.11-96.363a4.165 4.165 0 0 0 .31-5.635l-4.252-5.16c-2.361-2.865-.076-7.154 3.62-6.793l46.608 4.556Z"/></svg><svg viewBox="0 0 200 324" id="audit-4" xmlns="http://www.w3.org/2000/svg"><path d="M198.038 280.613c-.808-.524-1.045-.982-.643-1.826 2.105-4.422 5.091-8.206 8.103-11.968 6.184-7.724 12.683-15.204 17.503-23.964 6.859-12.462 10.209-26.141 7.264-41.43-5.909-30.681-24.485-54.007-52.166-71.407-15.39-9.674-32.074-14.159-49.111-16.61-14.434-2.075-28.792-2.542-43.216-4.49-14.208-1.919-28.196-5.021-41.018-13.657-4.812-3.24-9.022-7.052-11.835-12.125-1.187-2.14-1.043-3.945.4-5.557 2.177-2.43 5.002-4.019 7.981-5.403 9.19-4.269 19.226-6.806 29.04-9.786 22.609-6.866 44.143-15.495 62.569-29.266 10.021-7.49 18.69-16.213 24.945-27.085 2.161-3.756 1.081-8.521-2.238-11.308l-16.431-13.8c-2.082-1.748-5.203-.64-6.25 1.87-4.793 11.489-13.36 19.738-23.276 26.796-14.36 10.221-30.861 16.905-48.095 22.375-12.71 4.033-25.865 7.16-37.755 12.866-7.67 3.681-14.458 8.398-18.693 15.745C-1.926 72.798 0 85.736 8.829 98.764c9.966 14.707 24.107 24.106 40.12 30.77 15.251 6.346 30.855 8.867 46.53 10.462 13.455 1.369 26.879 1.977 40.383 4.493 23.403 4.361 42.432 15.935 55.668 36.94 8.015 12.718 11.175 25.567 6.227 38.42-2.65 6.884-6.933 12.662-11.431 18.299-6.423 8.049-13.371 15.705-17.784 25.249-7.484 16.19.956 46.101 22.385 53.709 16.002 5.681 31.75 7.101 47.454 5.588 4.731-.456 9.416-1.093 14.118-1.666l19.147-22.798a6.129 6.129 0 0 0-.626-.133c-10.779-1.584-21.311-1.162-33.178-11.634-10.443.198-20.906.134-31.548-2.598-2.842-.73-5.666-1.572-8.256-3.252Z"/></svg><svg viewBox="0 0 1095 1646" id="bg-page" xmlns="http://www.w3.org/2000/svg"><g filter="url(#aga)"><path d="M546.5 743 741 479.5 679.5 354l-273 432.5L354 1292l145.5-249 47-300Z"/></g><defs><filter id="aga" x=".2" y=".2" width="1094.6" height="1645.6" filterUnits="userSpaceOnUse" color-interpolation-filters="sRGB"><feFlood flood-opacity="0" result="BackgroundImageFix"/><feBlend in="SourceGraphic" in2="BackgroundImageFix" result="shape"/><feGaussianBlur stdDeviation="176.9" result="effect1_foregroundBlur_88_93"/></filter></defs></svg><svg viewBox="0 0 51 50" id="gr-1" xmlns="http://www.w3.org/2000/svg"><path d="M49.674 20.794a2.655 2.655 0 0 0-1.39-4.277l-13.092-3.228a.953.953 0 0 1-.588-.43L27.53 1.27a2.608 2.608 0 0 0-4.476 0l-7.073 11.588a.961.961 0 0 1-.598.434L2.3 16.517a2.654 2.654 0 0 0-1.39 4.278l8.723 10.4a.977.977 0 0 1 .226.702L8.843 45.48a2.64 2.64 0 0 0 1.095 2.353 2.592 2.592 0 0 0 2.531.293l1.167-.486a2.5 2.5 0 0 0 2.49 2.36h18.333a2.5 2.5 0 0 0 2.486-2.358l1.167.485a2.591 2.591 0 0 0 2.533-.291 2.64 2.64 0 0 0 1.095-2.356l-1.017-13.584a.988.988 0 0 1 .233-.713l8.718-10.39ZM35.292 47.5a.833.833 0 0 1-.833.833H16.125a.833.833 0 0 1-.833-.833v-8.334c0-1.758.695-3.445 1.936-4.69 1.125 3.48 3.41 8.6 7.622 11.231a.839.839 0 0 0 .884 0c4.212-2.63 6.5-7.75 7.622-11.232a6.644 6.644 0 0 1 1.936 4.691V47.5Zm-8.027-15L25.988 35h-1.392l-1.276-2.5h3.945Zm-2.551 4.166h1.156l1.539 5.435c-.63.712-1.34 1.35-2.117 1.899a12.324 12.324 0 0 1-2.117-1.901l1.539-5.433Zm3.966 3.805-1.29-4.555 1.735-3.391a6.617 6.617 0 0 1 2.827.871 26.207 26.207 0 0 1-3.272 7.075Zm-3.388-9.638a5.833 5.833 0 1 1 5.834-5.834 5.84 5.84 0 0 1-5.834 5.834Zm-3.833 1.692 1.735 3.391-1.29 4.555a26.21 26.21 0 0 1-3.27-7.075c.864-.5 1.83-.798 2.825-.871Zm18.225-2.417a2.661 2.661 0 0 0-.625 1.917l1.018 13.583a.976.976 0 0 1-.407.88.925.925 0 0 1-.917.105l-1.794-.75v-6.677a8.34 8.34 0 0 0-7.1-8.231 7.5 7.5 0 1 0-9.135 0 8.34 8.34 0 0 0-7.099 8.232v6.676l-1.797.75a.93.93 0 0 1-.917-.106.976.976 0 0 1-.407-.88l1.018-13.583a2.651 2.651 0 0 0-.619-1.902L2.188 19.724a.973.973 0 0 1-.178-.947.949.949 0 0 1 .688-.642l13.077-3.219a2.64 2.64 0 0 0 1.628-1.186L24.48 2.132a.964.964 0 0 1 1.626 0l7.076 11.596a2.634 2.634 0 0 0 1.62 1.18l13.083 3.226a.946.946 0 0 1 .687.641.973.973 0 0 1-.178.947l-8.71 10.386Z"/></svg><svg viewBox="0 0 71 71" id="gr-10" xmlns="http://www.w3.org/2000/svg"><path d="M47.449 45.666a1.014 1.014 0 0 0 0 2.027c.559 0 1.012-.454 1.012-1.012v-.006a1.01 1.01 0 0 0-1.012-1.01Zm4.518 0a1.014 1.014 0 0 0 0 2.027c.559 0 1.012-.454 1.012-1.012v-.006a1.01 1.01 0 0 0-1.012-1.01Zm4.521 0a1.014 1.014 0 0 0 0 2.027c.559 0 1.012-.454 1.012-1.012v-.006a1.01 1.01 0 0 0-1.012-1.01ZM35.35 29.356a1.84 1.84 0 0 0 1.838 1.839h2.813c.615 0 1.16-.305 1.494-.77a7.185 7.185 0 0 0 2.566.496H47.6c2.58 0 4.68-2.098 4.68-4.677v-2.57a3.37 3.37 0 0 0-3.368-3.365h-.937v-2.16a2.528 2.528 0 0 0-2.525-2.524c-1.631 0-2.234 1.573-2.461 2.167l-.875 2.293c-.128.336-.246.529-.39.64A1.84 1.84 0 0 0 40 19.523h-2.813a1.842 1.842 0 0 0-1.838 1.841v7.992Zm6.49-6.537c.75-.145 1.612-.6 2.151-2.02l.874-2.29c.335-.875.51-.875.585-.875a.517.517 0 0 1 .516.516v3.163c0 .555.45 1.005 1.005 1.005h1.941c.75 0 1.359.608 1.359 1.355v2.571a2.673 2.673 0 0 1-2.671 2.669h-3.54c-.896 0-1.775-.28-2.22-.547V22.82Zm-4.482-1.287h2.473v7.654h-2.473v-7.654Z"/><path d="M59.315 40.922H46.45a18.192 18.192 0 0 0-.355-2.436c.151-.023.302-.049.453-.077 7.626-1.423 12.674-8.785 11.255-16.411a13.978 13.978 0 0 0-5.873-9.027 13.97 13.97 0 0 0-10.536-2.228 14.087 14.087 0 0 0-3.27 1.03 1.004 1.004 0 1 0 .833 1.827c.886-.404 1.83-.7 2.805-.883 3.168-.59 6.375.088 9.032 1.91a11.983 11.983 0 0 1 5.034 7.739c1.217 6.537-3.111 12.849-9.648 14.069a12.06 12.06 0 0 1-6.502-.586 1.004 1.004 0 0 0-.811.042c-1.797.91-3.756 1.212-5.84.904.845-1.755 1.092-3.26.925-5.275a1.005 1.005 0 0 0-.154-.458 11.97 11.97 0 0 1-1.687-4.278 11.958 11.958 0 0 1 1.004-7.469 1.004 1.004 0 1 0-1.807-.878 13.943 13.943 0 0 0-1.41 5.822 18.276 18.276 0 0 0-1.544-.066 18.038 18.038 0 0 0-12.836 5.316A18.033 18.033 0 0 0 10.2 42.345c0 4.849 1.888 9.408 5.316 12.836A18.029 18.029 0 0 0 28.354 60.5c4.852 0 9.411-1.89 12.838-5.32a18.252 18.252 0 0 0 2.402-2.964c.306.144.64.218.979.218h14.742a2.314 2.314 0 0 0 2.31-2.311v-6.89a2.314 2.314 0 0 0-2.31-2.311Zm-25.705-2.04a5.784 5.784 0 0 1-5.256 8.178 5.784 5.784 0 0 1-5.778-5.777 5.784 5.784 0 0 1 5.778-5.777c.965 0 1.895.235 2.729.684-.141.274-.29.543-.446.808a1.003 1.003 0 0 0 .613 1.482c.8.207 1.587.34 2.36.402ZM16.938 53.76c-6.295-6.294-6.295-16.536 0-22.83a16.041 16.041 0 0 1 11.416-4.73c.55 0 1.102.03 1.65.085a13.967 13.967 0 0 0 1.963 5.639c.06.89.015 1.64-.16 2.378a7.734 7.734 0 0 0-3.453-.806c-4.294 0-7.786 3.493-7.786 7.786 0 1.92.7 3.68 1.858 5.04a11.434 11.434 0 0 0-5.256 7.664c-.078-.075-.155-.15-.232-.227Zm11.416 4.731a16.019 16.019 0 0 1-9.345-2.976 9.402 9.402 0 0 1 4.99-7.78 7.74 7.74 0 0 0 4.355 1.334 7.74 7.74 0 0 0 4.355-1.335 9.403 9.403 0 0 1 4.991 7.781 16.022 16.022 0 0 1-9.346 2.976Zm11.417-4.73c-.076.076-.154.151-.231.226a11.432 11.432 0 0 0-5.257-7.665 7.75 7.75 0 0 0 1.857-5.039c0-.824-.132-1.641-.385-2.418a11.294 11.294 0 0 0 3.62-.99c1.513.524 3.1.781 4.695.77.177.75.3 1.513.367 2.281a2.313 2.313 0 0 0-2.172 2.307v.708l-2.868 1.9a1.004 1.004 0 0 0 0 1.674l2.867 1.9v.708c0 .126.011.25.03.37a16.189 16.189 0 0 1-2.523 3.268Zm19.846-3.638a.307.307 0 0 1-.302.303H44.573a.305.305 0 0 1-.3-.303v-1.247a1.005 1.005 0 0 0-.45-.837l-2.053-1.361 2.054-1.36a1.003 1.003 0 0 0 .45-.838v-1.247c0-.164.137-.302.299-.302h14.742c.164 0 .302.138.302.302v6.89Z"/></svg><svg viewBox="0 0 71 71" id="gr-11" xmlns="http://www.w3.org/2000/svg"><path d="M59.193 32.709a24.58 24.58 0 0 1-8.313-1.143 8.34 8.34 0 0 0-5.787-7.34 7.5 7.5 0 1 0-11.178-8.922 7.449 7.449 0 0 0-6.008 0 7.5 7.5 0 1 0-11.175 8.923 8.345 8.345 0 0 0-5.819 7.943v7.499a3.333 3.333 0 0 0 3.333 3.333h6.666v.833a3.333 3.333 0 0 0 3.333 3.333h8.986c1.985 5.272 5.643 10.621 12.368 13.275a.878.878 0 0 0 .62 0c13.394-5.284 14.63-21.26 14.689-26.03v-.01a1.721 1.721 0 0 0-.519-1.233 1.65 1.65 0 0 0-1.196-.461Zm-16.617-7.205a6.682 6.682 0 0 1 6.52 5.276 8.856 8.856 0 0 1-2.031-1.46 1.667 1.667 0 0 0-2.302-.01 11.37 11.37 0 0 1-5.12 2.649 8.27 8.27 0 0 0-4.56-3.56 7.537 7.537 0 0 0 2.817-3.53 7.44 7.44 0 0 0 3.01.635h1.666ZM40.91 12.172a5.833 5.833 0 0 1 0 11.665 5.775 5.775 0 0 1-2.583-.62 7.372 7.372 0 0 0-2.936-7.045 5.792 5.792 0 0 1 5.519-4Zm-4.166 9.999a5.833 5.833 0 1 1-5.833-5.833 5.84 5.84 0 0 1 5.833 5.833Zm-21.665-4.166a5.823 5.823 0 0 1 11.352-1.834 7.373 7.373 0 0 0-2.936 7.045 5.774 5.774 0 0 1-2.583.621 5.84 5.84 0 0 1-5.833-5.832Zm2.037 23.33a3.3 3.3 0 0 0 .463-1.666v-8.333a.833.833 0 0 0-1.666 0v8.333a1.666 1.666 0 1 1-3.333 0v-7.5a6.674 6.674 0 0 1 6.666-6.665h1.666a7.44 7.44 0 0 0 3.01-.635 7.54 7.54 0 0 0 2.809 3.524 8.345 8.345 0 0 0-5.819 7.943v5h-3.796Zm9.999 4.167a3.3 3.3 0 0 0 .463-1.667v-8.332a.833.833 0 0 0-1.666 0v8.332a1.666 1.666 0 1 1-3.334 0v-7.5a6.674 6.674 0 0 1 6.666-6.665h3.334a6.622 6.622 0 0 1 5.319 2.666 28 28 0 0 1-5.265.372 1.61 1.61 0 0 0-1.203.46 1.728 1.728 0 0 0-.518 1.246 39.9 39.9 0 0 0 1.75 11.088h-5.546ZM45.909 58.77c-6.145-2.544-9.468-7.612-11.261-12.582a.819.819 0 0 0-.092-.264 37.735 37.735 0 0 1-1.979-11.549c2.75.072 9.562-.141 13.31-3.877 3.799 3.735 10.606 3.96 13.344 3.872.007.01.01.02.01.031-.056 4.48-1.195 19.35-13.332 24.37Z"/><path d="M55.884 35.949a21.072 21.072 0 0 1-9.09-2.655 1.66 1.66 0 0 0-1.757 0 21.055 21.055 0 0 1-9.098 2.653 1.665 1.665 0 0 0-1.517 1.817c1.125 11.814 7.181 16.831 10.692 18.764a1.635 1.635 0 0 0 1.59 0c3.516-1.94 9.582-6.956 10.695-18.767a1.665 1.665 0 0 0-1.515-1.815v.003ZM45.91 55.067c-3.224-1.782-8.777-6.416-9.833-17.456a21.985 21.985 0 0 0 9.845-2.898c3 1.725 6.364 2.717 9.82 2.895-1.043 11.035-6.602 15.673-9.832 17.459Z"/><path d="M41.058 44.816a.983.983 0 0 0-.012 1.379l.002.002 2.5 2.5a.983.983 0 0 0 .695.287h.061a.984.984 0 0 0 .715-.377l5.833-7.5.001-.001a.983.983 0 0 0-1.552-1.208l-.002.002-5.145 6.62-1.716-1.714-.002-.002a.983.983 0 0 0-1.378.012Zm0 0 .106.106-.106-.105Z"/></svg><svg viewBox="0 0 71 70" id="gr-2" xmlns="http://www.w3.org/2000/svg"><path d="M59.215 48.83 55.9 49.875A25.001 25.001 0 1 0 35.462 60h.013a.902.902 0 0 0 .01-1.802 23.257 23.257 0 0 1-22.13-17.228 23.238 23.238 0 1 1 45.203-10.723 23.226 23.226 0 0 1-4.114 18.568l.089-3.486a.9.9 0 0 0-.878-.923.889.889 0 0 0-.924.877l-.141 5.558a1.42 1.42 0 0 0 1.847 1.386l5.32-1.678a.902.902 0 0 0-.542-1.72Z"/><path d="M51.832 27.321a1.43 1.43 0 0 0-.624-.906L36.804 17.06a1.437 1.437 0 0 0-1.99.423l-.949 1.463a1.429 1.429 0 0 0 .373 1.949 13.488 13.488 0 0 0-1.618 4.792c-.14 1.567.026 3.146.49 4.65.277 1.148.59 2.45.28 2.925-.307.475-1.624.718-2.786.934a12.11 12.11 0 0 0-4.498 1.476 13.365 13.365 0 0 0-3.669 3.393 1.43 1.43 0 0 0-1.932.452l-.95 1.463a1.44 1.44 0 0 0 .423 1.99l14.405 9.354a1.428 1.428 0 0 0 1.082.201 1.426 1.426 0 0 0 .907-.623l.95-1.463a1.428 1.428 0 0 0-.373-1.95 13.498 13.498 0 0 0 1.618-4.79 12.11 12.11 0 0 0-.49-4.65c-.277-1.15-.59-2.452-.282-2.926.309-.475 1.626-.719 2.788-.934a12.109 12.109 0 0 0 4.499-1.478 13.367 13.367 0 0 0 3.67-3.395c.217.132.466.203.72.206a1.465 1.465 0 0 0 .819-.253c.155-.107.288-.244.39-.403l.95-1.462a1.43 1.43 0 0 0 .2-1.083ZM35.059 50.614l-13.794-8.957.554-.852.369.24 1.192.775 12.232 7.943-.553.85Zm8.987-18.378a10.647 10.647 0 0 1-3.791 1.18c-1.666.31-3.24.6-3.97 1.725-.73 1.124-.357 2.681.039 4.33.406 1.294.56 2.653.453 4.005a11.673 11.673 0 0 1-1.336 4.027L23.952 40.04a11.787 11.787 0 0 1 3.189-2.893 10.645 10.645 0 0 1 3.791-1.18c1.666-.309 3.24-.6 3.97-1.724.73-1.125.357-2.681-.039-4.33a10.604 10.604 0 0 1-.453-4.008 11.668 11.668 0 0 1 1.336-4.024l5.744 3.73 5.744 3.73a11.799 11.799 0 0 1-3.188 2.894Zm5.323-3.656-6-3.896-7.425-4.822-.002-.002-.367-.238.553-.852 13.793 8.958-.552.851Z"/></svg><svg viewBox="0 0 71 70" id="gr-3" xmlns="http://www.w3.org/2000/svg"><path d="m60.08 39.228-2.626-2.626a2.755 2.755 0 0 0-3.889 0l-14.179 14.18-1.954 7.167-.478.478a.92.92 0 0 0-.006 1.295l-.004.018.017-.005a.92.92 0 0 0 1.296-.004l.479-.48 7.166-1.953 14.179-14.18a2.753 2.753 0 0 0-.001-3.89ZM41.514 51.26l9.437-9.436 3.909 3.908-9.437 9.437-3.91-3.909Zm-.832 1.774L43.648 56l-4.08 1.113 1.114-4.08Zm18.095-11.22-2.615 2.616-3.91-3.909 2.616-2.615a.91.91 0 0 1 1.284-.001l2.626 2.626a.908.908 0 0 1 0 1.283Zm-24.61-20.758a.921.921 0 0 0 0 1.842h16.585a.921.921 0 0 0 0-1.843H34.168Zm17.506 13.82a.921.921 0 0 0-.921-.922H34.168a.921.921 0 0 0 0 1.843h16.584a.921.921 0 0 0 .921-.922Zm-23.42-18.205a.921.921 0 0 0-1.3.1l-5.756 6.714-3.52-2.64a.923.923 0 0 0-1.347 1.205.919.919 0 0 0 .24.268l4.212 3.159a.917.917 0 0 0 1.253-.138l6.317-7.37a.92.92 0 0 0-.1-1.298Zm0 12.898a.92.92 0 0 0-1.3.1l-5.756 6.715-3.52-2.64a.922.922 0 0 0-1.29.183.92.92 0 0 0 .183 1.29l4.212 3.158a.917.917 0 0 0 1.253-.138l6.317-7.37a.92.92 0 0 0-.1-1.297Zm-1.3 13.92-5.756 6.713-3.52-2.64a.922.922 0 0 0-1.29.184.92.92 0 0 0 .183 1.29l4.212 3.158a.917.917 0 0 0 1.253-.138l6.317-7.37a.918.918 0 0 0-.085-1.316.922.922 0 0 0-1.314.119Z"/><path d="M32.325 57.91H20.51c-5.17 0-9.375-4.206-9.375-9.376V21.218c0-5.17 4.206-9.374 9.375-9.374h27.315c5.17 0 9.376 4.205 9.376 9.374v10.894a.921.921 0 1 0 1.843 0V21.218C59.044 15.032 54.01 10 47.826 10H20.51c-6.186 0-11.218 5.032-11.218 11.218v27.315c0 6.186 5.032 11.218 11.218 11.218h11.815a.922.922 0 1 0 0-1.841Z"/></svg><svg viewBox="0 0 71 70" id="gr-4" xmlns="http://www.w3.org/2000/svg"><path d="M57.833 31.657a22.294 22.294 0 0 0-6.557-15.073A22.32 22.32 0 0 0 35.39 10c-12.116 0-22.016 9.644-22.443 21.657a5.281 5.281 0 0 0-3.143 4.824v5.925a5.283 5.283 0 0 0 5.278 5.278 3.419 3.419 0 0 0 3.415-3.415v-9.652c0-1.768-1.356-3.21-3.08-3.381.636-10.467 9.349-18.788 19.973-18.788a19.891 19.891 0 0 1 14.157 5.867c3.475 3.475 5.508 8.003 5.814 12.921-1.722.173-3.076 1.614-3.076 3.38v9.652c0 1.783 1.377 3.234 3.122 3.385v2.439a4.986 4.986 0 0 1-4.982 4.98h-3.689a3.67 3.67 0 0 0-3.481-2.479H39.45a3.65 3.65 0 0 0-1.55.34 3.71 3.71 0 0 0-2.153 3.363c0 .99.386 1.921 1.085 2.617A3.675 3.675 0 0 0 39.45 60h3.803c1.576 0 2.966-1.02 3.484-2.48h3.686c4.097 0 7.43-3.332 7.43-7.428v-2.875a5.282 5.282 0 0 0 3.122-4.813V36.48c0-2.15-1.294-4-3.143-4.822Zm-41.786 2.96v9.651a.968.968 0 0 1-.967.967 2.833 2.833 0 0 1-2.83-2.83V36.48a2.833 2.833 0 0 1 2.83-2.83c.534 0 .967.434.967.967Zm28.435 21.942a1.262 1.262 0 0 1-1.23.995H39.45c-.334 0-.648-.13-.888-.37a1.243 1.243 0 0 1-.367-.886 1.259 1.259 0 0 1 1.255-1.255h3.803c.334 0 .649.13.888.37a1.242 1.242 0 0 1 .34 1.146Zm14.046-14.154a2.833 2.833 0 0 1-2.83 2.83.968.968 0 0 1-.967-.967v-9.651c0-.533.433-.967.967-.967a2.833 2.833 0 0 1 2.83 2.83v5.925Z"/><path d="M43.315 42.827A5.192 5.192 0 0 0 48.5 37.64V27.073c0-1.382-.54-2.684-1.521-3.665a5.15 5.15 0 0 0-3.665-1.521h-15.85a5.192 5.192 0 0 0-5.187 5.186v10.568a5.192 5.192 0 0 0 5.187 5.186h.097v2.738a2.538 2.538 0 0 0 3.512 2.353c.308-.13.586-.32.819-.56l4.555-4.531h6.868Zm-8.234-2.092-4.93 4.903c-.022.023-.039.04-.085.02-.056-.023-.056-.06-.056-.093v-3.962a1.224 1.224 0 0 0-1.224-1.224h-1.322a2.742 2.742 0 0 1-2.738-2.738V27.073a2.742 2.742 0 0 1 2.739-2.738h15.85c.73 0 1.416.285 1.935.803.52.52.804 1.206.804 1.935v10.568a2.742 2.742 0 0 1-2.739 2.738h-7.371c-.324 0-.634.128-.863.356Z"/><path d="M29.443 30.747c-.995 0-1.805.811-1.805 1.806a1.81 1.81 0 0 0 1.805 1.806 1.81 1.81 0 0 0 1.808-1.806c0-.995-.81-1.806-1.808-1.806Zm5.945 0c-.995 0-1.805.811-1.805 1.806s.81 1.806 1.806 1.806a1.81 1.81 0 0 0 1.807-1.806c0-.995-.81-1.806-1.807-1.806Zm5.946 0c-.996 0-1.806.811-1.806 1.806a1.81 1.81 0 0 0 1.806 1.806 1.81 1.81 0 0 0 1.807-1.806 1.81 1.81 0 0 0-1.807-1.806Z"/></svg><svg viewBox="0 0 71 70" id="gr-5" xmlns="http://www.w3.org/2000/svg"><path d="M56.984 12.26a17.127 17.127 0 0 1 5.308 12.417c0 5.851-2.927 11.019-7.396 14.12v6.236c0 .985-1.192 1.48-1.889.782l-4.332-4.332a17.24 17.24 0 0 1-3.56.37 17.273 17.273 0 0 1-3.462-.348m-13.71-17.29C28.187 14.942 35.78 7.5 45.114 7.5c3.325 0 6.428.944 9.058 2.579"/><path d="M24.47 23.858c-9.487 0-17.178 7.69-17.178 17.177 0 5.852 2.927 11.02 7.396 14.12v6.236c0 .986 1.192 1.48 1.89.782l4.331-4.331c1.171.246 2.364.37 3.56.37 9.488 0 17.179-7.69 17.179-17.177 0-9.486-7.691-17.177-17.178-17.177Z"/><path d="M21.955 48.944H32.58a2.213 2.213 0 0 0 2.213-2.214v-9.849c0-1.222-.99-2.213-2.213-2.213H16.31c-1.222 0-2.213.99-2.213 2.213v9.85c0 1.222.99 2.213 2.213 2.213h2.324m2.284-14.276v-1.845c0-.61.496-1.106 1.107-1.106h4.838c.611 0 1.107.495 1.107 1.106v1.845"/><path d="M26.143 41.75v1.943a1.673 1.673 0 1 1-3.346 0V41.75"/><path d="M14.098 38.804a1.107 1.107 0 0 0 .858 1.078l8.993 2.07c.342.08.698.076 1.04-.01l8.968-2.267a1.107 1.107 0 0 0 .835-1.073"/></svg><svg viewBox="0 0 71 70" id="gr-6" xmlns="http://www.w3.org/2000/svg"><path d="M30.597 41.25h-12.5a1.042 1.042 0 1 1 0-2.083h12.5a1.041 1.041 0 1 1 0 2.083Zm0 6.25h-12.5a1.042 1.042 0 0 1 0-2.083h12.5a1.042 1.042 0 0 1 0 2.083Zm-2.083-22.917a4.17 4.17 0 0 1-4.167-4.166 4.17 4.17 0 0 1 4.167-4.167 4.17 4.17 0 0 1 4.166 4.167 4.17 4.17 0 0 1-4.166 4.166Zm0-6.25a2.087 2.087 0 0 0-2.084 2.084c0 1.148.936 2.083 2.084 2.083a2.087 2.087 0 0 0 2.083-2.083 2.087 2.087 0 0 0-2.083-2.084ZM35.805 35a1.042 1.042 0 0 1-1.041-1.041v-2.084a3.129 3.129 0 0 0-3.125-3.125h-6.25a3.129 3.129 0 0 0-3.125 3.125v2.084a1.042 1.042 0 1 1-2.084 0v-2.084a5.216 5.216 0 0 1 5.209-5.208h6.25a5.216 5.216 0 0 1 5.208 5.208v2.084A1.042 1.042 0 0 1 35.805 35Z"/><path d="M34.826 53.75H16.014a5.214 5.214 0 0 1-5.209-5.208V15.208A5.216 5.216 0 0 1 16.014 10h25a5.216 5.216 0 0 1 5.208 5.208v16.709a1.042 1.042 0 0 1-2.083 0V15.208a3.129 3.129 0 0 0-3.125-3.125h-25a3.129 3.129 0 0 0-3.125 3.125v33.334a3.129 3.129 0 0 0 3.125 3.125h18.812a1.041 1.041 0 1 1 0 2.083Z"/><path d="M46.222 55.834c-5.743 0-10.416-4.673-10.416-10.417S40.479 35 46.222 35c5.744 0 10.417 4.673 10.417 10.417s-4.673 10.416-10.417 10.416Zm0-18.75c-4.596 0-8.333 3.737-8.333 8.333s3.737 8.333 8.333 8.333 8.334-3.737 8.334-8.333-3.738-8.334-8.334-8.334Z"/><path d="M59.764 60a1.05 1.05 0 0 1-.738-.304l-6.912-6.913a1.042 1.042 0 0 1 1.473-1.473l6.912 6.913A1.041 1.041 0 0 1 59.764 60Z"/></svg><svg viewBox="0 0 71 70" id="gr-7" xmlns="http://www.w3.org/2000/svg"><path d="M11.24 60h21.319c.588 0 1-.471 1.06-1.001v-3.122c0-4.829-2.945-9.128-7.42-10.895 2.414-1.53 3.768-4.122 3.768-6.772 0-4.476-3.71-8.01-8.01-8.01-4.416 0-8.009 3.534-8.009 7.95a8.052 8.052 0 0 0 3.77 6.832 11.697 11.697 0 0 0-7.421 10.895V59c-.059.53.412 1.001.942 1.001Zm4.71-21.79c0-3.298 2.71-5.949 5.949-5.949a5.932 5.932 0 0 1 5.948 5.949c0 3.298-2.709 5.948-5.948 5.948-3.24 0-5.948-2.71-5.948-5.948ZM12.3 55.818c0-5.3 4.299-9.599 9.599-9.599s9.6 4.3 9.6 9.6v2.12h-19.2v-2.12Zm41.283-31.095c3.71-2.356 4.888-7.244 2.533-10.954C54.643 11.354 51.993 10 49.284 10c-4.417 0-8.01 3.534-8.01 7.95a8.052 8.052 0 0 0 3.77 6.832c-4.476 1.767-7.42 6.066-7.42 10.836v3.122c0 .589.47 1 1 1.06h21.32a1.057 1.057 0 0 0 1.06-1.06v-3.122c0-4.829-2.945-9.187-7.42-10.895Zm-10.247-6.772c0-3.299 2.709-5.949 5.948-5.949a5.93 5.93 0 0 1 5.948 5.949 5.932 5.932 0 0 1-5.948 5.948c-3.24 0-5.948-2.65-5.948-5.948ZM58.942 37.68H39.684v-2.12c0-5.3 4.3-9.6 9.6-9.6s9.6 4.3 9.6 9.6v2.12h.058Zm-16.725 9.953a1.031 1.031 0 0 0-1.472 0l-3.24 3.239a1.031 1.031 0 0 0 0 1.472l3.24 3.239c.412.412 1.06.412 1.472 0a1.031 1.031 0 0 0 0-1.472l-1.472-1.473h2.886c5.005 0 9.01-4.063 9.01-9.01 0-.59-.471-1.06-1.06-1.06-.589 0-1.06.47-1.06 1.06 0 3.828-3.121 6.95-6.95 6.95h-2.885l1.472-1.473c.471-.412.471-1.06.059-1.472ZM21.192 25.37c0 .589.471 1.06 1.06 1.06.59 0 1.06-.471 1.06-1.06 0-3.828 3.122-6.95 6.95-6.95h2.886l-1.473 1.473a1.031 1.031 0 0 0 0 1.472c.412.412 1.06.412 1.473 0l3.239-3.239c.353-.353.412-1.06 0-1.472l-3.24-3.24a1.031 1.031 0 0 0-1.472 0c-.412.413-.412 1.06 0 1.414l1.473 1.472h-2.886c-5.006.06-9.07 4.064-9.07 9.07Z"/></svg><svg viewBox="0 0 71 71" id="gr-8" xmlns="http://www.w3.org/2000/svg"><path d="M51.344 25.126c.594 0 1.076-.482 1.076-1.076V13.43a3.033 3.033 0 0 0-3.03-3.03H13.845a3.033 3.033 0 0 0-3.03 3.03v44.14c0 1.671 1.36 3.03 3.03 3.03H49.39c1.67 0 3.03-1.359 3.03-3.03v-7.194a1.077 1.077 0 0 0-2.154 0v7.194a.878.878 0 0 1-.876.877H13.844a.878.878 0 0 1-.877-.877V13.43c0-.484.393-.877.877-.877H49.39c.483 0 .876.393.876.877v10.62c0 .594.482 1.076 1.077 1.076Z"/><mask id="aqa" maskUnits="userSpaceOnUse" x="16.875" y="14.773" width="45" height="41"><path d="M16.875 14.773h45v41h-45z"/><path d="M31.617 15.773c-4.954 0-8.984 4.03-8.984 8.985a8.96 8.96 0 0 0 2.82 6.53.952.952 0 0 0 .105.098 8.95 8.95 0 0 0 6.06 2.356 8.95 8.95 0 0 0 6.163-2.454 8.96 8.96 0 0 0 2.82-6.53c0-4.954-4.03-8.985-8.984-8.985Zm0 16.016a6.994 6.994 0 0 1-4.247-1.432 4.852 4.852 0 0 1 4.247-2.474 4.85 4.85 0 0 1 4.247 2.474 6.994 6.994 0 0 1-4.247 1.432Zm-1.562-7.422v-.635a1.563 1.563 0 0 1 3.125 0v.635c0 .862-.701 1.563-1.563 1.563a1.564 1.564 0 0 1-1.562-1.563Zm7.22 4.56a6.774 6.774 0 0 0-2.877-2.413c.46-.594.735-1.339.735-2.147v-.635a3.52 3.52 0 0 0-3.516-3.515 3.52 3.52 0 0 0-3.515 3.515v.635c0 .808.274 1.553.734 2.147a6.774 6.774 0 0 0-2.877 2.412 6.993 6.993 0 0 1-1.373-4.168 7.04 7.04 0 0 1 7.031-7.031 7.04 7.04 0 0 1 7.031 7.03c0 1.56-.51 3.002-1.373 4.17Zm-.384 24.346h-5.274a.977.977 0 0 0 0 1.954h5.274a.977.977 0 0 0 0-1.954Zm0-5.468H23.023a.977.977 0 0 0 0 1.953h13.868a.977.977 0 0 0 0-1.953Zm0-5.47H23.023a.977.977 0 0 0 0 1.954h13.868a.977.977 0 0 0 0-1.953Zm-17.348-5.182a.984.984 0 0 0-.691-.286.984.984 0 0 0-.69.286.984.984 0 0 0-.287.69c0 .258.104.51.286.691a.986.986 0 0 0 .69.286.986.986 0 0 0 .692-.286.984.984 0 0 0 .286-.69.984.984 0 0 0-.286-.69Zm0 5.47a.986.986 0 0 0-.691-.287.986.986 0 0 0-.69.286.984.984 0 0 0-.287.69c0 .257.104.51.286.69a.986.986 0 0 0 .69.287.986.986 0 0 0 .692-.286.984.984 0 0 0 .286-.69.984.984 0 0 0-.286-.69Zm0 5.468a.986.986 0 0 0-.691-.286.986.986 0 0 0-.69.286.984.984 0 0 0-.287.69.98.98 0 0 0 .286.69.984.984 0 0 0 .69.287c.258 0 .51-.105.692-.286a.984.984 0 0 0 .286-.69.984.984 0 0 0-.286-.691ZM36.89 36.867H23.023a.977.977 0 0 0 0 1.953h13.868a.977.977 0 1 0 0-1.953Zm21.972-13.64a4.075 4.075 0 0 0-3.113-.41 4.075 4.075 0 0 0-2.49 1.91L40.97 46.014a.979.979 0 0 0-.124.38l-.865 7.749a.975.975 0 0 0 1.55.894l6.277-4.623c.109-.08.2-.181.267-.298L60.364 28.83a4.106 4.106 0 0 0-1.501-5.602ZM42.169 52.14l.452-4.046 2.827 1.632-3.279 2.414Zm4.703-3.847-3.721-2.149 9.861-17.08 3.721 2.148-9.861 17.08Zm11.8-20.44-.962 1.667-3.721-2.148.962-1.668a2.135 2.135 0 0 1 1.305-1 2.133 2.133 0 0 1 1.63.214 2.134 2.134 0 0 1 1.001 1.305 2.133 2.133 0 0 1-.214 1.63Z"/></mask><path d="M31.617 15.773c-4.954 0-8.984 4.03-8.984 8.985a8.96 8.96 0 0 0 2.82 6.53.952.952 0 0 0 .105.098 8.95 8.95 0 0 0 6.06 2.356 8.95 8.95 0 0 0 6.163-2.454 8.96 8.96 0 0 0 2.82-6.53c0-4.954-4.03-8.985-8.984-8.985Zm0 16.016a6.994 6.994 0 0 1-4.247-1.432 4.852 4.852 0 0 1 4.247-2.474 4.85 4.85 0 0 1 4.247 2.474 6.994 6.994 0 0 1-4.247 1.432Zm-1.562-7.422v-.635a1.563 1.563 0 0 1 3.125 0v.635c0 .862-.701 1.563-1.563 1.563a1.564 1.564 0 0 1-1.562-1.563Zm7.22 4.56a6.774 6.774 0 0 0-2.877-2.413c.46-.594.735-1.339.735-2.147v-.635a3.52 3.52 0 0 0-3.516-3.515 3.52 3.52 0 0 0-3.515 3.515v.635c0 .808.274 1.553.734 2.147a6.774 6.774 0 0 0-2.877 2.412 6.993 6.993 0 0 1-1.373-4.168 7.04 7.04 0 0 1 7.031-7.031 7.04 7.04 0 0 1 7.031 7.03c0 1.56-.51 3.002-1.373 4.17Zm-.384 24.346h-5.274a.977.977 0 0 0 0 1.954h5.274a.977.977 0 0 0 0-1.954Zm0-5.468H23.023a.977.977 0 0 0 0 1.953h13.868a.977.977 0 0 0 0-1.953Zm0-5.47H23.023a.977.977 0 0 0 0 1.954h13.868a.977.977 0 0 0 0-1.953Zm-17.348-5.182a.984.984 0 0 0-.691-.286.984.984 0 0 0-.69.286.984.984 0 0 0-.287.69c0 .258.104.51.286.691a.986.986 0 0 0 .69.286.986.986 0 0 0 .692-.286.984.984 0 0 0 .286-.69.984.984 0 0 0-.286-.69Zm0 5.47a.986.986 0 0 0-.691-.287.986.986 0 0 0-.69.286.984.984 0 0 0-.287.69c0 .257.104.51.286.69a.986.986 0 0 0 .69.287.986.986 0 0 0 .692-.286.984.984 0 0 0 .286-.69.984.984 0 0 0-.286-.69Zm0 5.468a.986.986 0 0 0-.691-.286.986.986 0 0 0-.69.286.984.984 0 0 0-.287.69.98.98 0 0 0 .286.69.984.984 0 0 0 .69.287c.258 0 .51-.105.692-.286a.984.984 0 0 0 .286-.69.984.984 0 0 0-.286-.691ZM36.89 36.867H23.023a.977.977 0 0 0 0 1.953h13.868a.977.977 0 1 0 0-1.953Zm21.972-13.64a4.075 4.075 0 0 0-3.113-.41 4.075 4.075 0 0 0-2.49 1.91L40.97 46.014a.979.979 0 0 0-.124.38l-.865 7.749a.975.975 0 0 0 1.55.894l6.277-4.623c.109-.08.2-.181.267-.298L60.364 28.83a4.106 4.106 0 0 0-1.501-5.602ZM42.169 52.14l.452-4.046 2.827 1.632-3.279 2.414Zm4.703-3.847-3.721-2.149 9.861-17.08 3.721 2.148-9.861 17.08Zm11.8-20.44-.962 1.667-3.721-2.148.962-1.668a2.135 2.135 0 0 1 1.305-1 2.133 2.133 0 0 1 1.63.214 2.134 2.134 0 0 1 1.001 1.305 2.133 2.133 0 0 1-.214 1.63Z"/><path d="M31.617 15.773c-4.954 0-8.984 4.03-8.984 8.985a8.96 8.96 0 0 0 2.82 6.53.952.952 0 0 0 .105.098 8.95 8.95 0 0 0 6.06 2.356 8.95 8.95 0 0 0 6.163-2.454 8.96 8.96 0 0 0 2.82-6.53c0-4.954-4.03-8.985-8.984-8.985Zm0 16.016a6.994 6.994 0 0 1-4.247-1.432 4.852 4.852 0 0 1 4.247-2.474 4.85 4.85 0 0 1 4.247 2.474 6.994 6.994 0 0 1-4.247 1.432Zm-1.562-7.422v-.635a1.563 1.563 0 0 1 3.125 0v.635c0 .862-.701 1.563-1.563 1.563a1.564 1.564 0 0 1-1.562-1.563Zm7.22 4.56a6.774 6.774 0 0 0-2.877-2.413c.46-.594.735-1.339.735-2.147v-.635a3.52 3.52 0 0 0-3.516-3.515 3.52 3.52 0 0 0-3.515 3.515v.635c0 .808.274 1.553.734 2.147a6.774 6.774 0 0 0-2.877 2.412 6.993 6.993 0 0 1-1.373-4.168 7.04 7.04 0 0 1 7.031-7.031 7.04 7.04 0 0 1 7.031 7.03c0 1.56-.51 3.002-1.373 4.17Zm-.384 24.346h-5.274a.977.977 0 0 0 0 1.954h5.274a.977.977 0 0 0 0-1.954Zm0-5.468H23.023a.977.977 0 0 0 0 1.953h13.868a.977.977 0 0 0 0-1.953Zm0-5.47H23.023a.977.977 0 0 0 0 1.954h13.868a.977.977 0 0 0 0-1.953Zm-17.348-5.182a.984.984 0 0 0-.691-.286.984.984 0 0 0-.69.286.984.984 0 0 0-.287.69c0 .258.104.51.286.691a.986.986 0 0 0 .69.286.986.986 0 0 0 .692-.286.984.984 0 0 0 .286-.69.984.984 0 0 0-.286-.69Zm0 5.47a.986.986 0 0 0-.691-.287.986.986 0 0 0-.69.286.984.984 0 0 0-.287.69c0 .257.104.51.286.69a.986.986 0 0 0 .69.287.986.986 0 0 0 .692-.286.984.984 0 0 0 .286-.69.984.984 0 0 0-.286-.69Zm0 5.468a.986.986 0 0 0-.691-.286.986.986 0 0 0-.69.286.984.984 0 0 0-.287.69.98.98 0 0 0 .286.69.984.984 0 0 0 .69.287c.258 0 .51-.105.692-.286a.984.984 0 0 0 .286-.69.984.984 0 0 0-.286-.691ZM36.89 36.867H23.023a.977.977 0 0 0 0 1.953h13.868a.977.977 0 1 0 0-1.953Zm21.972-13.64a4.075 4.075 0 0 0-3.113-.41 4.075 4.075 0 0 0-2.49 1.91L40.97 46.014a.979.979 0 0 0-.124.38l-.865 7.749a.975.975 0 0 0 1.55.894l6.277-4.623c.109-.08.2-.181.267-.298L60.364 28.83a4.106 4.106 0 0 0-1.501-5.602ZM42.169 52.14l.452-4.046 2.827 1.632-3.279 2.414Zm4.703-3.847-3.721-2.149 9.861-17.08 3.721 2.148-9.861 17.08Zm11.8-20.44-.962 1.667-3.721-2.148.962-1.668a2.135 2.135 0 0 1 1.305-1 2.133 2.133 0 0 1 1.63.214 2.134 2.134 0 0 1 1.001 1.305 2.133 2.133 0 0 1-.214 1.63Z" mask="url(#aqa)"/></svg><svg viewBox="0 0 71 71" id="gr-9" xmlns="http://www.w3.org/2000/svg"><path d="M35.913 57.868H14.861a3.952 3.952 0 0 1-3.948-3.947V20.44c0-.822.321-1.594.904-2.176l6.86-6.86a3.06 3.06 0 0 1 2.175-.903h25.587a3.952 3.952 0 0 1 3.948 3.947v23.685a1.316 1.316 0 0 1-2.632 0V14.447c0-.725-.59-1.315-1.316-1.315H20.852a.443.443 0 0 0-.316.131l-6.86 6.86a.445.445 0 0 0-.131.316V53.92c0 .726.59 1.316 1.316 1.316h21.052a1.316 1.316 0 0 1 0 2.631Z"/><path d="M18.37 21.904h-6.141a1.315 1.315 0 1 1 0-2.632h6.14c.726 0 1.316-.59 1.316-1.316v-6.14a1.315 1.315 0 1 1 2.632 0v6.14a3.952 3.952 0 0 1-3.948 3.948Zm16.26-2.583h-.008l-7.96-.05a1.315 1.315 0 1 1 .008-2.63h.008l7.96.049a1.315 1.315 0 0 1-.007 2.631Zm8.3 8.772h-.002l-24.627-.05a1.316 1.316 0 0 1 .002-2.63h.003l24.627.048a1.316 1.316 0 0 1-.002 2.632Zm0 6.968h-.002l-24.627-.049a1.316 1.316 0 0 1 .002-2.631h.003l24.627.049a1.316 1.316 0 0 1-.002 2.631Zm-7.017 7.018h-.003l-17.61-.05a1.316 1.316 0 1 1 .003-2.63h.005l17.609.048a1.315 1.315 0 1 1-.004 2.632ZM24.51 51.777h-.01l-6.206-.049a1.315 1.315 0 0 1 .009-2.632h.011l6.206.05a1.316 1.316 0 0 1-.01 2.631ZM49.07 60.5c-6.53 0-11.842-5.312-11.842-11.842S42.54 36.816 49.07 36.816s11.842 5.312 11.842 11.842S55.601 60.5 49.071 60.5Zm0-21.053c-5.079 0-9.21 4.132-9.21 9.21 0 5.08 4.131 9.211 9.21 9.211 5.079 0 9.21-4.131 9.21-9.21 0-5.08-4.131-9.21-9.21-9.21Z"/><path d="M43.583 48.759a1.067 1.067 0 0 0-.013 1.495l.002.002 2.75 2.75c.2.2.471.312.754.312h.066a1.067 1.067 0 0 0 .776-.41l6.416-8.249.002-.002a1.067 1.067 0 0 0-1.685-1.31v.002l-5.67 7.296-1.9-1.897-.003-.002a1.067 1.067 0 0 0-1.495.013Zm0 0 .106.106m-.106-.106.106.106m0 0a.916.916 0 0 0-.01 1.285l1.295-1.296a.917.917 0 0 0-1.285.01Z"/></svg><svg viewBox="0 0 860 957" id="hero-bg-pink" xmlns="http://www.w3.org/2000/svg"><g filter="url(#asa)"><path d="M337.972 247.539 538 61.573 474.752-27l-280.76 305.24L140 635l149.636-175.733 48.336-211.728Z"/></g><defs><filter id="asa" x="-181.5" y="-348.5" width="1041" height="1305" filterUnits="userSpaceOnUse" color-interpolation-filters="sRGB"><feFlood flood-opacity="0" result="BackgroundImageFix"/><feBlend in="SourceGraphic" in2="BackgroundImageFix" result="shape"/><feGaussianBlur stdDeviation="160.75" result="effect1_foregroundBlur_823_5397"/></filter></defs></svg><svg viewBox="0 0 502.664 502.664" xml:space="preserve" id="icon" xmlns="http://www.w3.org/2000/svg"><path d="M153.821 358.226 0 274.337v-46.463l153.821-83.414v54.574L46.636 250.523l107.185 53.431v54.272zm26.273 29.358L282.103 115.08h32.227L212.084 387.584h-31.99zm168.749-29.358v-54.272l107.164-52.999-107.164-52.59v-53.927l153.821 83.522v46.183l-153.821 84.083z"/></svg><svg viewBox="0 0 14 27" id="left-arrow" xmlns="http://www.w3.org/2000/svg"><path d="M13.25 1 .75 13.5 13.25 26"/></svg><svg viewBox="0 0 24 24" id="mail" xmlns="http://www.w3.org/2000/svg"><path d="m22 7-8.97 5.7a1.94 1.94 0 0 1-2.06 0L2 7m2-3h16a2 2 0 0 1 2 2v12a2 2 0 0 1-2 2H4a2 2 0 0 1-2-2V6a2 2 0 0 1 2-2Z"/></svg><svg viewBox="0 0 21 21" id="mail-h" xmlns="http://www.w3.org/2000/svg"><path d="m18.486 6.36-7.305 4.642a1.58 1.58 0 0 1-1.678 0L2.198 6.36m1.629-2.443h13.03c.9 0 1.63.73 1.63 1.629v9.772c0 .9-.73 1.63-1.63 1.63H3.827c-.9 0-1.629-.73-1.629-1.63V5.546c0-.9.73-1.629 1.629-1.629Z"/></svg><svg viewBox="0 0 21 20" id="map" xmlns="http://www.w3.org/2000/svg"><path d="M16.963 8.333c0 4.161-4.616 8.494-6.166 9.833a.834.834 0 0 1-1.001 0c-1.55-1.339-6.166-5.672-6.166-9.833a6.667 6.667 0 0 1 13.333 0Z"/><path d="M10.296 10.833a2.5 2.5 0 1 0 0-5 2.5 2.5 0 0 0 0 5Z"/></svg><svg viewBox="0 0 90 90" id="pr" xmlns="http://www.w3.org/2000/svg"><rect width="90" height="90" rx="45"/><path d="M63.903 49.046h-4.848V48.1c0-1.757-1.456-3.187-3.247-3.187h-7.419c-1.79 0-3.247 1.43-3.247 3.187v.584a10.996 10.996 0 0 0-6.289-5.226c1.685-1.431 2.753-3.532 2.753-5.871 0-4.303-3.606-7.804-8.039-7.804-4.432 0-8.038 3.501-8.038 7.804 0 2.34 1.069 4.443 2.756 5.874a11.146 11.146 0 0 0-4.948 3.282 10.725 10.725 0 0 0-2.637 7.018v5.71c0 .19.077.372.213.506.137.134.322.21.515.21h16.123v6.42c0 1.485 1.23 2.693 2.744 2.693h23.608c1.513 0 2.744-1.208 2.744-2.693V51.739c0-1.485-1.231-2.693-2.744-2.693Zm1.288 2.693v2.676l-6.807 4.37h-2.7v-.006a1.11 1.11 0 0 0-1.12-1.099h-.636v-1.157a.708.708 0 0 0-.213-.506.735.735 0 0 0-.515-.21h-2.203a.735.735 0 0 0-.515.21.708.708 0 0 0-.213.506v1.157h-.636a1.11 1.11 0 0 0-1.12 1.099v.007h-2.7l-6.806-4.371v-2.676c0-.697.578-1.264 1.288-1.264h23.608c.71 0 1.288.567 1.288 1.264Zm-13.466 9.582h.747v.412a.375.375 0 0 1-.373.367.375.375 0 0 1-.374-.367v-.412Zm-1.755-1.43v-.781h4.258v.782H49.97Zm2.502-2.21h-.747v-.444h.747v.443Zm3.172-8.635h-7.09v-.784h7.09v.784Zm-7.255-2.704h7.419c.988 0 1.791.789 1.791 1.758v.946h-.5V48.1c0-.699-.579-1.268-1.291-1.268h-7.419c-.712 0-1.291.57-1.291 1.268v.946h-.5V48.1c0-.97.804-1.758 1.791-1.758Zm-21.404-8.755c0-3.515 2.953-6.374 6.582-6.374 3.63 0 6.583 2.86 6.583 6.374 0 3.515-2.953 6.374-6.583 6.374-3.63 0-6.582-2.86-6.582-6.374Zm-4.829 21.17V53.76c0-4.515 3.236-8.364 7.728-9.241a8.18 8.18 0 0 0 3.683.87 8.18 8.18 0 0 0 3.685-.871 9.579 9.579 0 0 1 6.43 4.527h-3.388c-1.512 0-2.743 1.208-2.743 2.693v7.018H22.156Zm41.747 9.114H40.294c-.71 0-1.287-.567-1.287-1.264V56.123l6.19 3.976a.738.738 0 0 0 .4.116h2.916v.007a1.11 1.11 0 0 0 1.12 1.099h.636v.412c0 .99.82 1.796 1.83 1.796 1.009 0 1.83-.806 1.83-1.796v-.412h.636a1.11 1.11 0 0 0 1.119-1.099v-.007H58.6a.74.74 0 0 0 .399-.116l6.19-3.976v10.484c0 .697-.577 1.264-1.287 1.264ZM44.121 43.639h3.64a.735.735 0 0 0 .514-.21.708.708 0 0 0 .213-.505V37.04a.708.708 0 0 0-.213-.506.735.735 0 0 0-.515-.209h-3.639a.735.735 0 0 0-.515.21.708.708 0 0 0-.213.505v5.884c0 .19.077.371.213.505.137.134.322.21.515.21Zm.728-5.885h2.183v4.455H44.85v-4.455Zm5.725-4.068a.735.735 0 0 0-.515.21.708.708 0 0 0-.213.505v8.523c0 .19.077.371.213.505.137.134.322.21.515.21h3.64a.735.735 0 0 0 .514-.21.708.708 0 0 0 .213-.505V34.4a.708.708 0 0 0-.213-.506.735.735 0 0 0-.515-.21h-3.639Zm2.911 8.523h-2.183v-7.094h2.183v7.094Zm3.543-11.162a.735.735 0 0 0-.515.21.708.708 0 0 0-.213.505v11.162c0 .19.076.371.213.505.136.134.322.21.515.21h3.639a.735.735 0 0 0 .514-.21.708.708 0 0 0 .214-.505V31.762a.708.708 0 0 0-.214-.506.735.735 0 0 0-.514-.21h-3.64Zm2.91 11.162h-2.182v-9.733h2.183v9.733Zm9.117-14.187-2.528-3.164a1.544 1.544 0 0 0-.544-.433 1.574 1.574 0 0 0-.683-.153 1.56 1.56 0 0 0-1.226.586l-2.528 3.164a1.098 1.098 0 0 0-.129 1.184c.193.39.587.631 1.029.631h.307v13.087c0 .19.077.371.213.505.137.134.322.21.515.21h3.64a.735.735 0 0 0 .514-.21.708.708 0 0 0 .213-.505V29.837h.307c.442 0 .836-.242 1.028-.631.193-.39.144-.843-.128-1.184Zm-1.935.386a.735.735 0 0 0-.515.209.708.708 0 0 0-.213.505V42.21H64.21V29.122a.708.708 0 0 0-.213-.505.735.735 0 0 0-.515-.21h-.392l2.13-2.667a.099.099 0 0 1 .081-.038c.034 0 .06.012.081.038l2.131 2.668h-.392Zm-22.06 4.906h.004c6.15-.04 11.018-2.282 14.863-6.849l.645.273c.38.16.811.095 1.126-.17.313-.262.443-.67.34-1.063l-1.053-4.012a1.04 1.04 0 0 0-.224-.424 1.087 1.087 0 0 0-1.338-.235l-3.69 2.012c-.361.197-.573.57-.552.974.02.405.27.757.65.918l.183.077c-1.276 1.83-4.272 4.693-11.199 7.111a.725.725 0 0 0-.384.313.704.704 0 0 0 .16.907.737.737 0 0 0 .468.168Zm12.655-8.484a.707.707 0 0 0-.35-1.001l-.246-.104 2.579-1.406.736 2.805-.44-.186a.74.74 0 0 0-.859.214c-1.738 2.164-4.424 4.87-9.003 6.088 4.74-2.41 6.753-4.93 7.583-6.41Z"/></svg><svg viewBox="0 0 14 27" id="right-arrow" xmlns="http://www.w3.org/2000/svg"><path d="m.75 1 12.5 12.5L.75 26"/></svg><svg viewBox="0 0 24 24" id="tel" xmlns="http://www.w3.org/2000/svg"><path d="M22 16.92v3a2.001 2.001 0 0 1-2.18 2 19.79 19.79 0 0 1-8.63-3.07 19.499 19.499 0 0 1-6-6 19.79 19.79 0 0 1-3.07-8.67A2 2 0 0 1 4.11 2h3a2 2 0 0 1 2 1.72c.127.96.362 1.903.7 2.81a2 2 0 0 1-.45 2.11L8.09 9.91a16 16 0 0 0 6 6l1.27-1.27a1.999 1.999 0 0 1 2.11-.45c.907.339 1.85.574 2.81.7A2 2 0 0 1 22 16.92Z"/></svg><svg viewBox="0 0 21 21" id="tel-h" xmlns="http://www.w3.org/2000/svg"><path d="M18.642 14.439v2.443a1.63 1.63 0 0 1-1.776 1.629 16.117 16.117 0 0 1-7.028-2.5 15.88 15.88 0 0 1-4.886-4.887 16.117 16.117 0 0 1-2.5-7.06 1.629 1.629 0 0 1 1.62-1.776h2.443a1.629 1.629 0 0 1 1.63 1.4c.102.783.293 1.55.57 2.29a1.629 1.629 0 0 1-.367 1.718L7.313 8.73a13.031 13.031 0 0 0 4.887 4.886l1.034-1.034a1.628 1.628 0 0 1 1.718-.366c.74.275 1.507.467 2.289.57a1.629 1.629 0 0 1 1.4 1.653Z"/></svg><svg viewBox="0 0 29 28" id="tg" xmlns="http://www.w3.org/2000/svg"><rect x=".593" width="28" height="28" rx="14"/><path d="m19.961 8.617-.23.084-12.506 4.505a.42.42 0 0 0 .037.81l3.237.887.604 1.772.604 1.773a.574.574 0 0 0 .926.206l1.673-1.58 3.284 2.227c.401.274.974.071 1.076-.38l2.175-9.61c.107-.476-.395-.867-.88-.694Zm-1.596 2.133-5.65 4.619-.266.218a.287.287 0 0 0-.107.187l-.06.491-.163 1.38a.064.064 0 0 1-.126.01l-.46-1.378-.475-1.412a.287.287 0 0 1 .137-.338l5.88-3.37 1.106-.633c.161-.094.326.11.184.226Z"/></svg><svg viewBox="0 0 28 28" id="wa" xmlns="http://www.w3.org/2000/svg"><rect width="28" height="28" rx="14"/><path d="M18.629 9.369a6.511 6.511 0 0 0-10.43 7.532l-.692 3.355a.248.248 0 0 0 .04.194.252.252 0 0 0 .267.104l3.287-.78A6.51 6.51 0 0 0 18.63 9.37Zm-1.025 8.18a5.1 5.1 0 0 1-5.873.955l-.458-.227-2.015.477.006-.024.417-2.029-.224-.443a5.097 5.097 0 1 1 8.147 1.291Z"/><path d="M17.425 16.061c-.247.39-.637.865-1.127.983-.86.208-2.178.008-3.818-1.522l-.02-.018c-1.443-1.338-1.818-2.45-1.727-3.334.05-.5.468-.954.82-1.25a.47.47 0 0 1 .733.168l.531 1.193a.466.466 0 0 1-.058.478l-.268.348a.462.462 0 0 0-.042.515c.15.264.51.652.91 1.011.449.406.946.777 1.261.903a.456.456 0 0 0 .5-.105l.312-.313a.477.477 0 0 1 .465-.12l1.261.358a.478.478 0 0 1 .267.705Z"/></svg></svg>